/* XPM */
static char *f4baff4d31c2425e92f735fbd933caf3h4aJ1eh6LXQEW3BS[] = {
/* columns rows colors chars-per-pixel */
"64 64 243 2 ",
"   c black",
".  c #533F3A",
"X  c #743C38",
"o  c #703B35",
"O  c #4B413D",
"+  c #474739",
"@  c #57473A",
"#  c #4C5035",
"$  c #664339",
"%  c #73473A",
"&  c #6B4528",
"*  c #4C3D49",
"=  c #543B48",
"-  c #593955",
";  c #4E3C55",
":  c #713945",
">  c #3B4851",
",  c #386979",
"<  c #2E5E71",
"1  c #4B4443",
"2  c #484749",
"3  c #564647",
"4  c #4B4854",
"5  c #584955",
"6  c #50544E",
"7  c #654746",
"8  c #664654",
"9  c #6B5250",
"0  c #485968",
"q  c #4F546A",
"w  c #486777",
"e  c #4C656E",
"r  c #7A6E79",
"t  c #69777A",
"y  c #767377",
"u  c #73736E",
"i  c #664D62",
"p  c #8C3E16",
"a  c #8F4616",
"s  c #9C5B2A",
"d  c #DF671E",
"f  c #FF7200",
"g  c #E6731A",
"h  c #D76627",
"j  c #FE7723",
"k  c #966A5B",
"l  c #93755D",
"z  c #8A6E58",
"x  c #A2745E",
"c  c #896B69",
"v  c #9B6C6B",
"b  c #996965",
"n  c #8A7368",
"m  c #9C746C",
"M  c #967567",
"N  c #856C78",
"B  c #996A75",
"V  c #8C7675",
"C  c #987674",
"Z  c #A56A67",
"A  c #A27463",
"S  c #A2736B",
"D  c #AC7567",
"F  c #A86B73",
"G  c #A47374",
"H  c #B4736E",
"J  c #9F5F44",
"K  c #608272",
"L  c #A79531",
"P  c #F1AA05",
"I  c #EDB632",
"U  c #FFC600",
"Y  c #FFCA01",
"T  c #FFD302",
"R  c #FFDC04",
"E  c #FFE306",
"W  c #FFEB06",
"Q  c #FFEC08",
"!  c #F6E50D",
"~  c #FFF200",
"^  c #FFF41F",
"/  c #FFF125",
"(  c #FFF735",
")  c #FFF93B",
"_  c #FFF839",
"`  c #988474",
"'  c #B1816A",
"]  c #FC8951",
"[  c #D1A275",
"{  c #F6C950",
"}  c #FBC961",
"|  c #E4CD79",
" . c #E3E579",
".. c #FDF843",
"X. c #3B6B86",
"o. c #3A7587",
"O. c #397997",
"+. c #356D90",
"@. c #005AAA",
"#. c #1757A1",
"$. c #1772A7",
"%. c #456B88",
"&. c #447388",
"*. c #447898",
"=. c #4E6F8F",
"-. c #6A7685",
";. c #747484",
":. c #756D87",
">. c #635DA0",
",. c #4677A3",
"<. c #576196",
"1. c #017DC1",
"2. c #826985",
"3. c #38889A",
"4. c #328894",
"5. c #3C8AA3",
"6. c #398BAA",
"7. c #3893AB",
"8. c #3B8EB5",
"9. c #368EB9",
"0. c #3594B7",
"q. c #2C94B7",
"w. c #149DB6",
"e. c #47869A",
"r. c #4285A4",
"t. c #4286A9",
"y. c #4389B7",
"u. c #4E90BA",
"i. c #6390B9",
"p. c #0199D8",
"a. c #0D91D2",
"s. c #379CC8",
"d. c #3199D0",
"f. c #1DA7CA",
"g. c #03ACDC",
"h. c #0CAEDD",
"j. c #07A9D7",
"k. c #15ACDC",
"l. c #1BAAD9",
"z. c #03B3DC",
"x. c #0AB2DC",
"c. c #05B8D7",
"v. c #17B3D9",
"b. c #05AECF",
"n. c #29A7CB",
"m. c #36A8CA",
"M. c #27A7D7",
"N. c #35A7D8",
"B. c #38B5DC",
"V. c #27B6D7",
"C. c #02ACE4",
"Z. c #0BADE4",
"A. c #03AEEB",
"S. c #0BADEC",
"D. c #09A6E4",
"F. c #13ABE3",
"G. c #1BABE5",
"H. c #14AAEA",
"J. c #02B3E4",
"K. c #0BB1E4",
"L. c #00BAE3",
"P. c #02B0EC",
"I. c #00B9EB",
"U. c #0CB4EA",
"Y. c #14B2E5",
"T. c #02ADF3",
"R. c #0BABF2",
"E. c #01ADFB",
"W. c #0BA8F9",
"Q. c #14ABF5",
"!. c #01B3F4",
"~. c #00BAF2",
"^. c #00B3FC",
"/. c #00BAFD",
"(. c #0CB3F5",
"). c #23A9E4",
"_. c #39B3E6",
"`. c #2BB1EB",
"'. c #52ADD8",
"]. c #74BBDB",
"[. c #71B9D2",
"{. c #58B6E5",
"}. c #48B5E5",
"|. c #63B5E1",
" X c #5798C3",
".X c #00C3F7",
"XX c #0CC3EF",
"oX c #2CC7E7",
"OX c #56CCED",
"+X c #70CFF5",
"@X c #62CEDB",
"#X c #B2B382",
"$X c #B8BBB0",
"%X c #909F9F",
"&X c #C2A892",
"*X c #D1B198",
"=X c #E4B69D",
"-X c #F4BE9E",
";X c #D1B9A9",
":X c #E7BDA3",
">X c #B2D0B5",
",X c #DBCC88",
"<X c #D9E592",
"1X c #C8D4AA",
"2X c #E7C5AA",
"3X c #EECCB1",
"4X c #F0D0B4",
"5X c #F1D3BA",
"6X c #EED0B5",
"7X c #E2E782",
"8X c #90B2CE",
"9X c #A5BFD6",
"0X c #A4B9C0",
"qX c #9ECDC6",
"wX c #9BC8C7",
"eX c #88C4D4",
"rX c #97DCFF",
"tX c #8DD5ED",
"yX c #B9DAEC",
"uX c #B9DBFA",
"iX c #ACDDF3",
"pX c #8AE5FD",
"aX c #97E4FD",
"sX c #9BF3FB",
"dX c #A8E6FA",
"fX c #B7E9F8",
"gX c #B3ECF5",
"hX c #ACD1D2",
"jX c #F4DDCB",
"kX c #F6E4D5",
"lX c #C7DAED",
"zX c #C5E5F9",
"xX c #D8EBF8",
"cX c #C7F9FE",
"vX c #DAF7FC",
"bX c #CFE8ED",
"nX c #F9F4E9",
"mX c #E6E7FC",
"MX c #E8FBFE",
"NX c #FEFFFF",
"BX c #F7F8FB",
"VX c #F2F3F2",
"CX c #C8C8C8",
/* pixels */
"8 +.~.~.J.x.I.~.l.< 7 0 f././.A.L.!.T.+.: 2 w..X~.~.T.^.U.3.4 - $.U./.P.G.E.^.f.# & > k..XL.A.E.^.G., @ 1 w./.^.S.T.^./.5.3 7 0 ",
"o , G.!.P.g.A.A.s.4 $ 6 q.I.!.A.g.!.).w % . 4.K.C.S.T.^.).&.3 : +.M.!.z.h.T.^.q.1 & 4 d.~.z.C.W.J.n.w X 7 ,.!.!.b.z.^.Q.*.$ 7 q ",
"$ e s.l.).M.).N.O.6 & 6 e.M.G.).n.).s.4 X $ &.N.M.M.).).s.w @ X <.u.l.v.M.).).5.3 o 5 y.M.M.M.M.v.0.q X : =.M.v.f.n.).d.=.$ 7 q ",
"7 0 &.O.O.O.*.*.0 6 @ 6 e O.O.O.o.3.%.5 % 7 0 O.O.o.O.O.&.6 3 9 5 %.4.4.O.,.*., 6 $ 5 %.*.O.4.O.4.X.6 $ 7 0 O.O.4.o.O.*.q @ 6 6 ",
"3 * 2 1 1 1 = = = 3 2 2 2 2 * 2 + 2 * 3 3 5 > > > + O 1 O O 1 4 . 1 > > * - - O # @ @ = 4 * 2 + * * 1 # # > > 2 O = ; ; 1 # # 2 ",
"N c b k b k b Z k c N N c b b b k k b b c c B B b k k k k k n N k z z b b b Z b z z k k v c k k Z b c n n c b k k k F B k z z c ",
"C m S m C C m S D S m m S S C C C v D A S Z H F S C C G S A M m Z Z A m C m m S C C G S S m m x Z Z F G G Z Z M M M G F Z S S F ",
"y y y y t -.t y y r r y y y ;.-.-.;.u u y N c N y -.-.-.y u u u r N r y t t t ;.:.:.r r y y y y u y r :.N N c u t t t y y r N N ",
"t.t.r.5.3.3.3.e.r.r.r.r.r.r.5.5.t.5.3.3.5.r.e.e.3.6.6.6.r.e.5.5.5.t.r.,.r.5.6.6.6.t.5.5.r.r.t.t.3.5.6.t.r.e.e.r.t.6.5.3.3.5.t.r.",
"H.G.G.M.f.f.f.l.G.G.H.G.G.).l.f.M.l.c.x.Q.Q.G.v.v.k.k.l.M.l.G.H.c.F.).M.M.M.F.F.k.k.v.v.l.M.).).v.v.Y.Y.Y.v.l.M.).).G.x.v.k.G.G.",
"~.^.^.!.I.I.I.^.^.^.~.^.^.^.!.I.Q.J.P.P.P.P.P.P.A.P.P.qX1X1X1X1X;X$XP.P.P.P.P.P.P.A.P.P.P.J.T.^.I.!.T.!.!.I.J.E.W.E.^.I.I.!.!.^.",
"I.!.E.E.!.!.!.^.!.I.L.J.T.E.!.~.R.P.P.P.P.P.P.P.P.P.P.<X) / Q E U { P.P.P.P.P.P.P.A.P.P.P.I.!./.~.~.T.R.S.I.~./.E.E.^.I.P.A.T.!.",
"z.J.S.S.P.J.P.A.A.J.z.x.Z.S.P.J.F.J.P.P.P.P.P.qXqXqXqX7X( / Q E T { wXwX0X0X{.P.P.A.A.A.P.S.P.!.L.J.C.F.F.C.J.I.T.T.P.J.z.x.J.I.",
"J.Z.F.F.F.h.K.Z.K.K.x.h.F.Z.h.z.h.x.P.P.P.P.P...) ) ) / Q Q Q Q Q Q Q Q Y U 8XP.P.P.P.P.P.F.g.z.z.z.K.Y.Y.K.J.K.Z.Z.Z.K.x.z.L.I.",
"!.P.P.S.Z.Z.J.J.J.P.A.S.S.J.J.J.z.J.P.P.`.|.|.) _ _ ( / Q Q Q Q Q Q Q Q Y U 8XP.P.P.P.P.P.A.z.c.Z.Z.C.A.S.T.A.J.z.K.S.S.J.K.P.^.",
"^.!.!.!.T.T.!.~.~.!.E.T.!.!.I.!.J.T.P.P.].) ) ~ ~ Q Q Q Q Q Q Q Q Q Q Q Y U 8XP.P.P.P.P.P.~.XXoX`.Q.W.R.E.E.E.I.L.L.!.T.S.S.W.W.",
"P.P.P.P.P.P.P.P.P.P.P.P.P.P.P.P.P.P.P.P.].) ) ~ ~ Q Q Q Q Q Q Q Q Q Q Q Y U 8XP.P.P.P.P.A.j.{.MXvXq.^.E.(.j.P.!.!.z.z.J.S.D.S.P.",
"P.P.P.P.P.P.P.P.P.P.P.P.P.P.P.P.P.P.P.P.].) ) Q Q T Y E Q R Y T Q W Y Y E W eXP.P.P.P.P.A.oXtXBXvX+X(.^.A.S.A.T.T.C.z.z.P.Q.R.T.",
"P.P.P.P.P.P.P.P.P.P.P.P.P.P.P.P.P.P.P.P.].) ) Q Q Y U R Q R U T Q W U U W Q eXP.P.P.P.P.P.@XMXBXBXcX`.C.S.F.D.(.^.!.L.z.J.T.E.^.",
"P.P.P.P.P.P.P.P.P.P.P.P.P.P.P.P.P.P.eX<X7X^ ^ T T E E W Q R U T Q Q E E T T | <XwXP.P.A.P.hXNXVXVXvXpXB._.+X+Xa.T.^.P.L.I.P.A.(.",
"P.P.P.P.P.P.P.P.P.P.P.P.P.P.P.P.P.P.qX) _ ~ ~ U U E Q Q Q R U T Q Q Q Q Y U E Q >XP.A.A.A.NXmXxXmXxXvX[.eXvXfXs.(.^.^.J.I.I.J.z.",
"P.P.P.P.P.P.P.P.P.P.P.P.P.P.P.P.P.P.qX) ( Q Q U U T R R R T U Y R R R R Y U T R ,X$X$X$X0XmXxXcXzXvXMXhXlXMXbXtXF.^./.T.C.P.I.z.",
"P.P.P.P.P.P.P.P.P.P.P.P.P.P.P.P.P.P.qX) ( Q Q U U U U U U U U U U U U U U U U U U U U U | zXvXcXcXxXxXMXMXbXMXcXn.C.T.Q.S.P.~.P.",
"P.P.P.P.P.P.P.P.P.P.P.P.P.P.P.P.P.P.qX) ( Q Q P P { } } } } } } } } } } } } I P } ,X,X,X;XxXxXxXfXzXlXyXcXxXlXfXpX`.D.Q.S.A.!.^.",
"P.P.P.P.P.P.P.P.P.P.P.P.P.P.P.P.P.P.qX) ( Q Q a p 2X4X6X4X4X4X4X4X4X4X4X4X4XD p i.P.P.P.P.xXmXmXyXyXyXiXfXzXlXlXcXB.Z.R.S.C.!.!.",
"P.P.P.P.P.P.P.P.P.P.P.P.P.P.P.P.P.P.qX) ( Q Q a p 2X6X6X4X4X5X4X4X4X5X5X5X5X' s i.P.P.P.P.zXuXzXyXuXiXdXgXfXyXyXdXn.A.^.P.b.x.C.",
"P.P.P.P.P.P.P.P.P.P.P.P.P.P.P.P.P.P.qX) _ Q Q a p 2X4XnXNXNXNXnX4X5XNXNXNXNXjX4X9XP.P.P.P.aXpXpXdXdXaXaXaXaXrXdXpXV.!.^.P.b.c.z.",
"P.P.P.P.P.P.P.P.P.P.P.P.P.P.P.P.P.P.qX) ( Q Q a p 2X4XnXNXNXNXnX4X5XNXNXNXNXjX4X9XP.P.P.P.V.V.V.m.B.B.B._._._.B._.g.^.^.(.F.x.J.",
"P.P.P.P.P.P.P.P.P.P.P.P.P.P.P.P.P.P.}.].[.s s p p 2X4XnXNXCXu %X4X5XNXNX%Xu ;X4X9XP.P.P.P.C.A.A.b.g.C.A.E.E.T.A.C.C.E.E.W.Q.T.!.",
"P.P.P.P.P.P.P.P.P.P.P.P.P.P.P.P.P.P.P.P.N.p p p p 2X4XnXNXCX  n 4X5XNXNX6   *X4X9XP.P.P.P.P.T.^.L.I.I.^.^.^.^.!./.!.!.R.W.W.E./.",
"P.P.P.P.P.P.P.P.P.P.P.P.P.P.P.P.P.P.P.P.'.[ [ *X*X3X4XjXkX6X&X*X4X5XkXkX&X&X2X4X9XP.P.P.P.T.J.z.!.P.J.P.T.T.A.C.A.A.J.P.S.T.P.J.",
"P.P.P.P.P.P.P.P.P.P.P.P.P.P.P.P.P.P.P.P.|.=X=X4X4X4X4X4X4X4X4X4X4X4X4X4X4X4X4X4X9XP.P.P.P.^.XXb.E.A.x.F.F.k.k.h.U.J.z.z.J.J.L.c.",
"^.P.K.K.I.~.I.Z.k.F.A.P.P.A.S.H.I.P.P.P.|.=X=X2X2X4X4X4X4X4X4X2X&X&X&X&X4X4X3X2X9XA.P.P.P.P.P.P.P.P.P.P.P.P.P.P.P.P.P.P.P.P.P.P.",
"A.S.Z.J.P.!.!.S.S.J.J.P.P.A.P.P.P.P.P.P.|.=X=X=X=X3X4X4X4X4X4X*X        3X4X:X=X8XA.P.P.P.P.P.P.P.P.P.P.P.P.P.P.P.P.P.P.P.P.P.P.",
"F.S.A.P.P.P.T.T.!.I.J.P.!.!.P.L.P.P.P.P.{.;X;X=X=X3X4X4X4X4X4X*X7 7 7 7 2X3X;X;X8XA.A.P.P.P.P.P.P.P.P.P.P.P.P.P.P.P.P.P.P.P.P.P.",
"J.P.T.P.P.J.P.T.T.A.J.P.!.!.P.J.P.P.P.P.P.P.P.=X=X=X=X=X=X=X=X=X=X=X=X=X=X=X].P.P.A.A.A.P.P.P.P.P.P.P.P.P.P.P.P.P.P.P.P.P.P.P.P.",
"I.I.A.A.P.J.J.P.S.S.A.P.!.!.A.A.P.P.P.P.P.P.P.=X=X=X=X=X=X=X=X=X=X=X=X=X=X=X].P.P.P.P.P.P.P.P.P.P.P.P.P.P.P.P.P.P.P.P.P.P.P.P.P.",
"!.P.K.Z.P.!.P.P.P.!.^.!.!.P.P.P.I.P.P.P.A.P.P._._.w 3 h j j j h 3 9 j j j j 8XP.P.P.P.P.P.P.P.P.P.P.P.P.P.P.P.P.P.P.P.P.P.P.P.P.",
"R.Z.x.x.S.E.E.P.J.P.T.T.A.J.L.L.L.P.P.P.P.P.P.P.P.w O h f f f d O % f f f f 8XP.P.P.P.P.P.P.P.P.P.P.P.P.P.P.P.P.P.P.P.P.P.P.P.P.",
"S.Z.z.z.S.W.E.I.g.k.l.F.A.J.L.x.L.P.P.A.A.P.P.&.%.4 O h f f f d O % f f f f B %.d.P.P.P.P.P.P.P.P.P.P.P.P.P.P.P.P.P.P.P.P.P.P.P.",
"A.I.L.g.S.T.^.C._.[.+XOXC.~.P.G.L.I.P.P.P.P.P.2 O O O h f f f d O % f f f f s O 9.P.P.P.P.P.P.P.P.P.P.P.P.P.P.P.P.P.P.P.P.P.P.P.",
"!.!.~.I.!.!.A.l.aXMXMXsXk.!.T.Q.J.I.P.P.P.P.P.2 O O O h f f f d O % f f f f s O 9.P.P.P.P.P.P.P.P.P.P.P.P.P.P.P.P.P.P.P.P.P.P.P.",
"!.A.I.P.!.T.H.OXgXnXnXcX+XS.^.T.~.g.P.P.P.P.P.2 O O O h f f f d O % f f f f s O 9.P.P.P.P.P.P.P.P.P.P.P.P.P.P.P.P.P.P.P.P.P.P.P.",
"H.D.Z.A./.^.`.dXMXnXVXMXgXm.l.D.!.j.P.P.P.P.P.` ` J s d f f f g L L f f f f H `  XP.P.P.P.P.P.P.P.P.P.P.P.P.P.P.P.P.P.P.P.P.P.P.",
"Z.k.k.J./.T.l.fXBXVXvXvXcXtX+X+XXXB.P.P.P.P.P.6X4X] f f f f f P ~ W f f f f -X4X9XP.P.P.P.P.P.P.P.P.P.P.P.P.P.P.P.P.P.P.P.P.P.P.",
"J.K.h.C.I.J.n.fXBXBXxXbXbXvXvXvXOX].P.P.P.P.P.6X4X] f f f f f P ! ! f f f f -X4X9XP.P.P.P.P.P.P.P.P.P.P.P.P.P.P.P.P.P.P.P.P.P.P.",
"T.!.!.J.v.OXtXxXmXmXMXxXvXxXxXxXdXuXP.P.P.P.P.6X4X] f f f f f d O % f f f f -X4X9XP.P.P.P.P.P.P.P.P.P.P.P.P.P.P.P.P.P.P.P.P.P.P.",
"W.^./.J.V.dXvXmXmXmXxXxXxXxXxXxXvXmXP.P.P.P.P.6X4X] f f f f f d O % f f f f -X4X9XP.P.P.P.P.P.P.P.P.P.P.P.P.P.P.P.P.P.P.P.P.P.P.",
"S.~.L.`.rXuXdXsXsXgXbXxXxXlXuXdXyXgXP.P.P.A.A.{.{.>.>.>.>.>.>.<.#.#.>.>.>.>.'.{._.P.P.P.P.^.^.A.P.!.^.^.!.P.L.z.L.J.I.^.^.!.P.J.",
"S.I.z.B.uXlXyXiXiXyXzXbXbXlXyXiXlXlXP.P.P.P.A.A.A.1.@.@.@.@.@.@.@.@.@.@.@.@.g.P.P.P.P.P.P.!.T.S.Z.P.!.!.P.J.K.J.J.J.P.!.^.!.P.Z.",
"Z.J.j.'.zXlXyXyXuXuXfXfXfXyXyXdXlXzXP.P.P.P.P.P.P.p.p.1.@.1.p.p.p.p.@.@.p.p.C.P.P.P.P.P.P.R.S.Z.k.A.!.!.J.h.Z.Z.S.Z.Z.P.!.!.Z.k.",
"C.A.Z._.pXaXaXaXrXrXrXpXpXpXpXpXpXrXP.P.P.P.P.P.P.P.P.a.@.a.P.P.P.C.@.@.A.P.P.P.P.P.P.P.P.W.R.J.h.S.!.P.K.Z.Z.R.R.S.Z.C.A.T.Z.h.",
"!.^.T.T.Y.v.v.F.).).M.v.v.Y.G.G.c.k.P.P.P.P.P.P.P.P.P.0X#X8XP.P.P._.#X#X_.A.A.A.P.P.P.P.P.E.!.J.J.P.T.T.A.A.!.^.^.!.P.A.T.T.P.J.",
"E.^.^./.C.J.I.!.E.T.A.P.I.!.T.A.c.J.P.P.P.P.P.P.P.P.P.<X~ 1XP.P.P.{.~ ~ }.A.A.A.P.P.P.P.P.^.!.I.~.!.!.T.!.!.^.E.^.^.!.!.!.!.!.~.",
"R.R.(.U.h.v.Y.U.(.Q.R.P.I.J.U.G.Y.K.P.P.P.P.P.P.P.P.P.>X .>XP.P.P.{. . .}.P.P.P.P.P.P.P.P.H.F.x.U.Z.F.F.S.S.H.G.G.H.S.S.F.F.U.P.",
"8.8.7.7.7.6.6.8.9.8.8.9.q.q.7.7.y.8.0.7.6.7.7.7.y.y.9.q.q.7.7.3.9.8.8.9.8.8.8.8.9.9.9.9.9.9.8.8.8.8.t.8.0.q.0.7.7.7.q.7.8.8.8.9.",
"u u u t -.-.-.t t t y y u t t t :.:.;.r N u y t -.-.-.-.;.r r y :.-.-.t t r 2.:.:.:.;.-.-.t t r r r r y -.t K K K K t u y y y ;.",
"A k A M n V n M l M v v Z A M n B v b v G v v c n n M b Z F v v B v M M M F F F v m v v M M b Z Z v v v v v M z z k b S v v v b ",
"S b A A b M m m M M C B F H D x G S l M V C C G S A x A b C V V m m k l A S v M l l b b b A M S S C C C C G G F H Z D S M V C C ",
"8 3 3 3 1 3 2 1 1 3 5 ; - = . + 2 1 + # # 2 4 ; * O O O + 2 6 4 2 3 1 O 1 2 2 1 # # O 5 1 3 1 2 3 3 3 2 2 4 ; - - = = 1 3 2 4 4 ",
"5 0 X.%.%.%.X.%.q 8 8 q =.%.X.o.o.o.e 6 $ 5 %.+.X.o.o.&.0 6 5 5 < %.%.%.o.o., 4 7 3 0 o.X.%.%.+.w 5 7 5 0 &.+.=.%.&.w 6 9 3 q %.",
"3 w 0.d.d.N.N.'.%.8 $ e u.M.M.n.M.n.O.3 o i y.M.n.m.M.d.*.8 : 8 9.s.d.n.M.n.8.q : 8 *.n.M.s.s.N.5.q X 7 =.m.n.n.m.m.0.0 $ o =.m.",
"@ O.v.!.H.F.A.U.6.3 $ e M.^.!.g.U.S.q.4 X e M.!.g.F.!.R.y.5 7 i l.F.S.S.P.I.f.0 : i 0.I.!.G.F.P.v., X 7 y.(.!.j.j.J.k.+.$ $ e.U.",
"3 3.I.!.T.I.~..Xw.2 @ , K././.P.T.^.a.> 7 , (./.T.S.^./.n.2 1 e z.I.!.^./..Xb.< : i n..X/.!.!./.~.< 7 5 d././.A.S.^./.$.3 7 7..X"
};
