/* XPM */
static char *b78081e07b514630c4c96308eff200b1XBzhdZNznJ4VCUmB[] = {
/* columns rows colors chars-per-pixel */
"64 64 256 2 ",
"   c #5C0F04",
".  c #6A0602",
"X  c #760605",
"o  c #75150A",
"O  c #543705",
"+  c #6E2D06",
"@  c #713936",
"#  c #5F2A2F",
"$  c #375400",
"%  c #347303",
"&  c #375B37",
"*  c #4E5506",
"=  c #715204",
"-  c #497A01",
";  c #50700B",
":  c #6C6A05",
">  c #49473A",
",  c #58493B",
"<  c #4E4C30",
"1  c #65453A",
"2  c #74462D",
"3  c #6F7530",
"4  c #563955",
"5  c #513D4A",
"6  c #673D46",
"7  c #703B4F",
"8  c #3B4B4B",
"9  c #3B536C",
"0  c #356B7B",
"q  c #1B6A77",
"w  c #484648",
"e  c #574747",
"r  c #474855",
"t  c #574855",
"y  c #4A5559",
"u  c #50544A",
"i  c #674747",
"p  c #654954",
"a  c #4F546A",
"s  c #6C506B",
"d  c #4E6B74",
"f  c #697679",
"g  c #767276",
"h  c #797070",
"j  c #6C6A43",
"k  c #3E382C",
"l  c #870B08",
"z  c #872902",
"x  c #972B05",
"c  c #8A3502",
"v  c #973501",
"b  c #903317",
"n  c #A32C0B",
"m  c #893B32",
"M  c #982620",
"N  c #964402",
"B  c #975A03",
"V  c #8C4D0A",
"C  c #A64601",
"Z  c #A65905",
"A  c #986604",
"S  c #907007",
"D  c #A16701",
"F  c #AD7206",
"G  c #8F5130",
"H  c #916C31",
"J  c #A26E31",
"K  c #D26A03",
"L  c #863748",
"P  c #984F4B",
"I  c #AF544F",
"U  c #986A58",
"Y  c #9A755B",
"T  c #8E6E52",
"R  c #A5755D",
"E  c #AC6E57",
"W  c #A85F6B",
"Q  c #8B6B69",
"!  c #996B67",
"~  c #8A7469",
"^  c #977468",
"/  c #876B79",
"(  c #987675",
")  c #916E73",
"_  c #A56A69",
"`  c #A47368",
"'  c #A96E73",
"]  c #A37374",
"[  c #B3706D",
"{  c #CD7270",
"}  c #D47763",
"|  c #5B8804",
" . c #57900B",
".. c #699A03",
"X. c #6F8E0D",
"o. c #79AA05",
"O. c #73AC0A",
"+. c #6F991B",
"@. c #37816B",
"#. c #658871",
"$. c #6D9A5D",
"%. c #8E8C0A",
"&. c #B48507",
"*. c #89B703",
"=. c #8FB202",
"-. c #A6B308",
";. c #979A32",
":. c #C99205",
">. c #F28F07",
",. c #D2AA04",
"<. c #FBA902",
"1. c #F7B601",
"2. c #C2943F",
"3. c #95C70E",
"4. c #F9CB03",
"5. c #EAE012",
"6. c #AF9153",
"7. c #AF9069",
"8. c #A1A85A",
"9. c #CB8C6E",
"0. c #D3B670",
"q. c #D29C5F",
"w. c #FCFE75",
"e. c #F9FF68",
"r. c #FAFF54",
"t. c #386D88",
"y. c #3A768A",
"u. c #3A7898",
"i. c #2D7593",
"p. c #267499",
"a. c #466B89",
"s. c #4B7391",
"d. c #697787",
"f. c #777685",
"g. c #74708E",
"h. c #5377A6",
"j. c #586996",
"k. c #957395",
"l. c #DA7983",
"z. c #3A8A9A",
"x. c #348790",
"c. c #3A89A8",
"v. c #3693A8",
"b. c #3A8BB6",
"n. c #3694B9",
"m. c #2893B2",
"M. c #1C96AE",
"N. c #478A9A",
"B. c #6D8594",
"V. c #4486A5",
"C. c #4689B5",
"Z. c #5391B6",
"A. c #6F92AF",
"S. c #5FACAD",
"D. c #149CD7",
"F. c #3898C6",
"G. c #339BD4",
"H. c #03ADDD",
"J. c #07ABD9",
"K. c #1AABD8",
"L. c #03B4DD",
"P. c #08B3D8",
"I. c #18B4D9",
"U. c #0EB3CB",
"Y. c #27A7CB",
"T. c #36A4C8",
"R. c #28A7D7",
"E. c #37A5D9",
"W. c #2CB4D7",
"Q. c #03ADE4",
"!. c #0BACE3",
"~. c #03ADEB",
"^. c #0BACEB",
"/. c #05A6E8",
"(. c #13ADE4",
"). c #18ABE8",
"_. c #02B3E4",
"`. c #0BB3E5",
"'. c #01BAE2",
"]. c #02B2EC",
"[. c #0BB1EB",
"{. c #01BAEC",
"}. c #0ABAEA",
"|. c #15B2E6",
" X c #02ADF3",
".X c #0BACF3",
"XX c #03ADFC",
"oX c #0BA9FB",
"OX c #15AAF2",
"+X c #01B3F3",
"@X c #0BB2F3",
"#X c #01B3FC",
"$X c #00BBFC",
"%X c #04B8F5",
"&X c #14B6F3",
"*X c #26AAE8",
"=X c #27B3E9",
"-X c #34B6E7",
";X c #36B5F2",
":X c #2CA9ED",
">X c #4998C7",
",X c #5094CB",
"<X c #4FACD3",
"1X c #4FB6EC",
"2X c #69BCEA",
"3X c #60A5E0",
"4X c #649ED4",
"5X c #01C4F2",
"6X c #00C1DE",
"7X c #71C7EC",
"8X c #60C9E0",
"9X c #9B9995",
"0X c #D68984",
"qX c #F69798",
"wX c #F38A8B",
"eX c #D1B995",
"rX c #DEB295",
"tX c #D0C393",
"yX c #E4D192",
"uX c #FDFF8A",
"iX c #FCFF98",
"pX c #FAEA9D",
"aX c #DAD2A9",
"sX c #F1D7AC",
"dX c #FDFEAC",
"fX c #FCFDA4",
"gX c #FAE9B7",
"hX c #FEFDB4",
"jX c #FEFDBD",
"kX c #FAF7BA",
"lX c #F1E6B1",
"zX c #91CDDB",
"xX c #B5D9D6",
"cX c #90D0EF",
"vX c #B1D8EE",
"bX c #8CE9FA",
"nX c #AEE3F5",
"mX c #D2E9D6",
"MX c #FAEDC6",
"NX c #FDF4C3",
"BX c #FDFDC4",
"VX c #F5FDCB",
"CX c #FEFDCC",
"ZX c #F8F9C6",
"AX c #FDFED3",
"SX c #FFFEDB",
"DX c #F7F8D5",
"FX c #E8F1D0",
"GX c #CEE9F3",
"HX c #FEFEE2",
"JX c #FFFEEB",
"KX c #F7FFE7",
"LX c #FFFDF3",
"PX c #EEE5F3",
"IX c #CDD8EC",
"UX c #86ADA2",
/* pixels */
"7 p._.#X@X].%X%XJ.9 6 y D.5X$X.X6X#XOXt.6 8 M.5X%X%X+X#X&Xx.u 6 p.{.5X.XOX X+XY.& 2 8 !.{.`. XoXXX*X0 , 8 M.XX#XOX#X#X#Xc.w i a ",
"6 t.I.].].H.H.^.m.9 2 u M.}.+XQ.H.+X*Xd @ 5 v.L.].^. XXX|.s.e 7 t.R.].H.^.+XOXD.u 2 a D.}.L. X X_.R.d @ p u.^._.P._.#XOXs., p a ",
"@ d T.R.*XR.R.E.u.y 1 u N.E.*XR.Y.R.F.t m 1 s.T.R.T.R.*XT.d i i a C.K.P.K.).G.c.e 2 4 b.R.Y.I.R.I.n.a @ 7 a.Y.I.M.Y.W.G.d.@ i a ",
"e y a.u.u.u.u.s.a u i u d h.u.u.y.u.t.t 1 i 9 u.u.y.u.u.a.u , i a j.u.c.u.s.s.0 e 6 p a.s.u.x.y.x.t.a @ e d u.i.x.x.u.a.a , e y ",
"e w w 5 w > 5 5 5 5 w w > 5 5 8 > w r 4 5 5 4 9 w > 5 > > k e r > > 8 w 5 4 4 > , , 6 5 4 8 w w w 5 > > u 8 8 8 > 5 4 4 > > < 8 ",
"/ Q ! U U U U _ U Q ~ ~ Q Q ! ! T U ! U Q Q / ) ! Q Q U U U Q g T U T T Q W W U j T U U ! Q ~ U W U T Q ~ j ! U U ! W ! T j T T ",
"( ] ] ] ^ ( ^ ` ' ( ( ^ ( ] ( ! ^ ^ ` ` ` _ [ ' ^ ( ] ' ` _ ` ^ _ _ ` ] ( ( ! U k.( ] R ^ ( ^ Y _ _ ' ) ( _ _ Y ~ ! ] ] ! ^ ( ] ",
"h h h f d.d.f.g ~ h h h Q h d.d.g.d.g h ~ / Q g d.A.Z.>X<X*XK.|.+X(.|.K.).<X,XZ.B.g.f.h g f.f.h g ~ k.g k./ Q h #.f f f Q / k.g ",
"b.V.N.z.z.z.z.z.V.c.C.V.V.N.V.z.h.c.x.v.v.n.F.n.K.^.~./.#X_._. X+X~.^.+X{.~./._.(.).G.F.v.z.V.b.x.c.b.h.V.N.N.N.C.c.z.z.c.N.V.V.",
").).K.K.K.Y.K.K.R.).).K.).K.K.K.*XI.P.P.!.OX[.].].%X'.P.^.Q._.+X X_._.].~._._..X].].~.^._.).:XOXI.I.`.`.I.K.R.K.:XOX(.`.I.`.(.(.",
"{.#XXXXX%X{.%X#XXX#X$X+X#X+X{.{.OX]._.].+X X+X]./. X_.Q.@XoX[.Q.[.+X].Q.^. X+X~._._.Q.].].~..X X[. XXX+X+X].].+XoXoXXX#X+X+X%X#X",
"{.+XXXXX%X+X+X#XXX+X].]. XoX#X{.~.]._._.].].~.]._..X#X+X].+X].{.=X1X2X2X1X2X1X(.@X.X].]. X~.]._.+X+X X~.[.].%X$XXXXX X_._._.~. X",
"L._.~.^.`.'._.].~.H.P.P.!..X~.].+X+X].].+X~.].]._.Q.~.L.J.^.~.OX1XxXFXmXPXFXzX-X~.Q.!._._.[.]._.].].Q.!.H.Q._.{.+X+X+X_.L.H.[.+X",
"P.Q.^.^.!.J.!.Q._.L.L.L.^.~.~.~.~.].~.~.~.~.~.~.+X^.+X_.].XX.X1XzXmXAXZXZXkXmX7XzX2X-X'.].].~.#X^.].[.`.^.!.^.^.!.!.`.J.P.L._.+X",
"~..XOX^.^.^.[.[.].].].@X.X^.].]._.].]._.]._._.].]..X#X].H.Q.=XxXKXJXJXSXVXAXSXDXDXIX7X|..X|.^.@X~.Q.].].].+X].].P.L.Q._.L._._.%X",
"#X%X].~.+X%X+X].%X%XXX X[.Q.].].].^.+X.X X].+X X`.H._.1XvXcXzXFXVXKXKXDXBXBXCXBXkXDXIXzXcX8X|.^.].].].^..X+X]._.'.].XX.X.X.XoXoX",
"].].~.].~.].].~.].].+X X~.^.Q._.+X^.].].%X~.+X_.=X;X;XzXFXZXSXVXBXAXAXZXCXSXAXkXZXSXZXCXBXxX1X=X=XOX_.].~.oX+XL. X`.P.L.^.)./. X",
"].~.].~.].~.~.].Q.Q.Q.].].].].+X_.OX^.Q.[./..X&XzXxXxXmXDXZXjXgXgXkXAXCXdXiXdXCXSXJXDXCXCXFXmXvXxX8X!.^._.].+X]. XH.J.'.^.~.@X X",
"].~.].+X~.+X].]..X@X]._._._.+X.XQ.~.%X~.;X1X<X2XmXCXBXAXAXVXCXgXsXkXCXAXfXe.iXSXSXLXSXCXCXCXCXCXDXzX1X1X1X].#X X_.Q._.L.Q.~.#X.X",
"~.].].~.].~.].~. X+X~.].~.~.]._.+X].+X^.7XmXmXmXFXSXBXBXCXAXSXkXkXNXCXAXBXfXhXAXAXHXSXBXjXCXSXBXjXFXmXPXxX-X].~.].%X+X'.'.~. X%X",
"~.].].~.~.~.].~.!.[._.].~.^.Q._.~.Q.*X8XxXFXAXAXBXBXAXAXDXZXhXjXCXAXCXNXNXCXAXVXDXCXBXBXCXBXkXBXBXCXCXCXmX7X2X2X;X~.%X[._.].~._.",
"].~.].].].].].].+X_._._.~.+X~.]._.OX2XGXVXVXAXBXuXe.kXjXBXdXe.fXBXCXNXgXgXBXAXBXCXCXBXVXSXfXe.dXAXAXVXVXZXMXFXFXcXI._..XQ.+X[.L.",
"].~.].~.~.+X~.].@X-X7XzXcXzX4X>X>X7XxXDXBXVXBXBXiXuXhXBXNXdXw.jXBXAXNXgXgXkXjXiXkXCXCXCXMXpXw.hXCXCXZXVXCXCXAXDXIXzXW..X/.].{.~.",
" X].].~.].~.].~.|.3XGXDXFXaX7.U W aXZXAXDXBXCXAXBXCXCXNXsXsXdXAXBXAXAXNXCXAXfXe.dXBXSXkXsXgXjXDXAXBXjXAXCXBXBXZXFXFX2X].#X/.+X$X",
"].].].].].~._.-XcXmXFXAXKXFXyXeXeXlXSXSXAXCXjXiXdXAXCXkXgXNXCXSXCXHXJXDXjXBXdXiXhXBXAXCXlXNXAXAXSXSXAXCXCXVXCXAXaXtX1X_.#XP. X#X",
"].~.].].].~._.;XxXFXVXAXKXKXDXNXkXCXSXJXLXSXiXr.fXCXAXCXBXCXjXkXCXHXJXSXCXAXAXjXCXCXAXSXjXBXAXHXJXDXCXCXBXZXBXMXeX7.E.Q. XU.P.Q.",
"~.].].].~.~._.;XxXAXCXCXDXSXVXdXuXhXAXSXSXAXkXhXhXCXAXhXiXiXjXCXDXHXJXAXCXCXMXsXZXSXHXJXBXCXSXSXHXZXZXVXlXyX0.0.6.6.<XOX~.J.U.L.",
"~.Q.].].].]._.;XIXMXDXBXCXAXjXfXe.fXBXBXCXCXjXBXAXAXCXdXw.uXCXSXZXBXjXjXBXjXgXsXgXCXLXLXAXCXAXBXAXCXCXDXpX2.&.S :.6.1XH.+X.XP.{.",
"].~.].].].~._.:XA.6.FXZXZXCXSXjXfXCXSXCXCXCXBXCXCXBXCXBXhXBXAXjXhXiXuXdXCXZXBXMXBXCXSXHXAXZXCXBXkX0.0.2.6.A &.:.:.0.1XH.{.XX~.#X",
"].].Q.].~.].~.*XZ.2 eXsXCXZXDXZXCXDXMXAXCXVXBXjXhXCXSXHXSXAXAXjXBXiXuXjXSXAXCXSXAXCXhXdXBXCXCXgXaXq.&.&.F A &.:.&.[ A.3X*X X+X#X",
"].].^.~.].]._.*XA.G H 7.MXCXVXAXCXpXpXkXSXSXiXr.dXAXJXHXAXBXNXAXAXjXjXCXCXBXjXBXCXBXiXuXjXCXkXeXR J F &.:.A &.:.A b P k.E.].%XJ.",
"+X].]._.~. X].*XB.F b T tXtXaXlXAXgXgXNXCXCXjXuXhXSXJXSXAXBXkXNXBXCXAXCXNXNXZXCXBXZXuXuXCXMXyX7.Z A S ,.&.V A F C x B k.E.'.{.L.",
"$XL.`./.Q._.L.I.A.H v b m G G eXVXVXCXCXAXCXBXBXBXBXCXZXCXNXsXgXBXBXCXBXgXsXgXCXAXZXhXjXVXaXE G D A A :.F + o z n n ..N.|._.].{.",
".X!.`.Q.{.{.J.x.$.-.D v z + o R eXgXZXZXZXCXCXVXNXgXCXCXBXkXgXCXAXAXVXCXBXgXNXAXCXFXaXrXeX9.A B A B Z F B + X n Z S  .@.).|.^.+X",
"!.OX.XQ._.~.U.@.O.-.S V x x X X @ tXVXZXZXAXCXCXgXsXkXCXDXCXBXjXhXAXSXCXjXZXCXCXVXlX7.b v B Z A A Z C N v l x v %. .& M.Q.Q._.~.",
"L.]. X].].`.<X3.o.o.; * + . . X o U 7.Y eXZXAXAXCXgXBXSXLXJXBXfXe.dXVXNXBXAXaX9.} 6.J A A N N N C K >.1.>.v Z %.*.8.T.U._.`.+X].",
"].{.~.+X].[.<XUX$... .% * O = + X o o X R aXkXlXNXBXBXSXLXKXNXfXw.dXCXCXCXDXeXG x N B A B Z C K K >.<.4.1.F S ..3.8.1X{.].~./.~.",
"#X_.H.[.~.~.=XT.S.o.*.o.- % | =   . l X m T T Y aXVXSXAXAXVXCXBXhXDXAXNXZXVXeXz z N B B N K >.>.>.>.<.4.4.-...- -.7.<X[. X.X].~.",
"oXH.P.!.`.#X@X=XZ.%.*.*..... .- * O . X . . X o 9XaXaXaXaXlXDXDXSXAXCXZXCXaX9.+ x v N Z K :.<.<.1.<.1.4.5.-.+.;.7.UXE.'.~. X'.+X",
"(.P.L.H.!.+X~.I.A.H +.O.=.O.; - X.*   o X l l X m P G G U 7.ZXZXCXkXBXCXsXT G M v v c C >.<.4.4.4.4.4.5.5.S 2.6.4X1X|.]._.~._..X",
" X].'.J..X+X/.=XUXJ 6.0X;.;.J ;. .; $ ; = + . . . X X X b R tXtXtXeXeXeX9.G z v z v K :.<.1.:.,.,.,.,.4.0.A.A.UX;X*XQ.~.].~.].].",
"$X].{.].+X#X[.).A.` 9.9.;.;.E R ..; ; ..| O   X X . . l v z o l o o o o + c v x + C K <.4.,.F S F T J 2.9X1X&X(.*X^._.+X].~.~.].",
"@X~.+X+X X#X^.*XE.Z.' P , 6.l.0XE } Y -.O.% $ $ O   X l x v x x x x z c x v V * : X.%.%.&.&.B A ~ A.4XS.3X).%X].Q.Q.].{.].^.~.].",
"^.J.!.^.#X#XOX7X:X:Xh.s # P l.wX{ { 9.8.8.3 ; % $ O + = + N v c v v v b v c : % X...: : S T ^ ~ k.>X[.|.).&X{._.].].].].~.Q.].].",
"^.I.K.J.$X XD.bX2XOXG.,X7 @ P { qXwXwXrX9.} E +.% % ; | * = c x x v v x V * |  .*.*.%.B H B.,X1X<X=X X_._.+X^./.+X].].].~.].].].",
"^.L.J.L.{.`.F.nXvX1X X).h.j.a k.9.0Xl.qXqX{ 9.6.T 3 %.O.- : S B V B B = : ; | o.=.=.%.J ( 4XK.P._.+X X~._._._.}.^.~.~.^.+X].].].",
" X~.%XL.5X7XcXGXPXvX;X_.*X:X*XZ.L m G wXqXqXqXqXwX7.;.3.......- - | | ; ; | *.3.%.B J / >X=X[.^.L.L._.~.#X+X~.~.~.~.~.].+X].~.~.",
"oXXX5X6XW.bXPXPXGXPX7X:XoX/.^.,Xh.4 @ { { { wXwXq.7.*.o.O.O...X. .| 3 3 3 | ..=.A P f.A.|.+X X+X.X].^.^.!.{.]..X_.].].Q.].].~.^.",
"^.%X'.-XcXvXnXbXnXnXvXcX;XXXXX`.).j.@ M # # I qX0.-.+.+.=.*...=.*.+.3 } _ ; - X.H ^ >X!.~.].+X+X X+X].]..X.X].L.'.'.%X#X#X#X].Q.",
"~.{.P.-XnXIXIXnXnXnXIXnXcXE.!.].@XE.C.Z.j.4 L I 9.0.0X7.+.O.*.*.+.7.{ wX{ E J H B.,XOX@X_._.^.~.]._._._.].!.L.L.L._._.].#X+X].P.",
"!.`.U.<XGXIXIXvXnXvXnXGXnXbX1X].Q.`.~.^.F.g.7 s { wXqXl.j  .=. .3 [ wXwXl.{ I I 4X).XX^._._..X.X^.~.].Q.!.!.!.^.^.(.J.].+X X^.K.",
"~.].J.-XbXbXcXbXbXnXcXbXbX7X7X1X|.@XXX+X).F.F.G.k.W P P # * : ; O P I I I I M m Z.J.~.^.{._.{.].].+X X]._.`.~.oXoX^.Q._. X X^.(.",
"#X#X X^.|.|.I.!.I.).*X*XI.|.|.).[.[..X~.~.~. X@Xh.j.s a.a y o   o b c v P / / / >X`.~.+X].^.Q._.].+X X~.]._.~.oXXX+X_._. X X]._.",
"XX#X#X#XQ.{.$X#XXX X.X+X%X X X^.'._.'._._..X^.].).E.*XR.).,Xm x b b v b / ,XG.:X*XOX+X+X.X.X X^.#X+X#X+X X+X#XoX#X#X+X.X+XXX%X$X",
"^.[.[.[.P.I.|.|.oX[.].'.{.6X`.J.!._.{.'.'.].[.J.H.].~.H.OX3Xg.B.k.g.f.k.4X(.]. X]..X]._.J.).^.!.`.|.).|.^.~.^.J.!.[..X|.`.(.`.@X",
"C.n.n.v.V.v.c.v.b.b.C.b.n.m.v.C.u.,X>XC.v.n.R.Y.).OX.X{.L.~..X@X'.OXOX^..X].!._.!.).K.F.F.F.b.z.b.c.V.b.n.n.n.v.V.b.n.n.v.v.b.b.",
"f g g f d.g.d.f g f g g g f d.@.g.f.f.g g h g f B.N.Z.>XE.E.*X}.+X+X&XI.R.,X4XZ.A.j.d.d.d.f g g.g g g g f f #.f #.#.f f g f.g g ",
"U U R Y ~ ~ ~ ^ ~ ^ ^ ! ! _ ^ Y ) _ _ _ ) ! ( Q ! ! ! ` _ _ _ ^ ] ! ^ ^ ^ [ W _ ) ( ^ ! ^ ~ ^ _ ' ! ! ! ) ~ ~ ~ T T ! ` ^ ) ( Q ",
"_ E ` ! ! ^ ^ ^ ^ ^ ( ] [ [ [ E ` ` ^ ^ ( ( ] ] ( ( Y ^ ! ( ) / ` ! U T ^ ! _ ] Y Y R ! ! R R _ ' ^ ( ( ( ] ' ' ' [ ' ` ^ ( ( ) ",
"p 5 t t t w w 5 > e t 5 4 5 w > w w > < w w 4 r 5 , < , w w u y 8 t e e e 8 w u < < e u e e w 8 4 e r 8 4 t 4 4 4 4 5 e u r r r ",
"t 9 t.a.a.a.a.a.t p i y a.a.t.y.i.a.d u 1 y a.a.t.a.0 s.d r e t 0 a.a.a.a.t.0 w i 5 y y.a.a.t.t.d t e u d a.t.a.a.s.0 u p e a a.",
"p d n.T.G.E.T.E.d t i d Z.G.R.Y.R.R.s., @ s C.R.Y.Y.Y.T.h.t 1 i v.>XG.Y.R.R.v.s L 7 s.R.R.>XF.E.V.a @ i d.T.R.Y.T.T.v.a @ @ a.T.",
"i x.I.].OX.X~.#Xu.a 1 d R.#XoXJ.!.^.m.5 2 d Y.+XH._. X.XC.t 6 s U.K.Q.~.~.+XY.a 7 s n.{.{.(.!..XI.0 @ 7 C.@X+XH.U._.`.t.6 6 N.5X",
"6 x.'.#X#X@X_.%XM.8 < d I.$X$X`./.XXD.9 i t.|.$X^.OX#X#XT.w w d ~..X+X#XXX5XU.q @ a T.5X$X[.{.$X}.q 1 p F.$X$X^.).$X$Xp., 1 Z.5X"
};
