/* XPM */
static char *c727662bac96410a9a2c66d08e678ba7ZNWPhBqrkPWDGLqc[] = {
/* columns rows colors chars-per-pixel */
"64 64 255 2 ",
"   c #1E1D13",
".  c #261A19",
"X  c #3E1E1F",
"o  c #1B2418",
"O  c #27261B",
"+  c #272D16",
"@  c #1D1B28",
"#  c #0B1924",
"$  c #281827",
"%  c #2E1B2B",
"&  c #1D272D",
"*  c #2A2828",
"=  c #372B29",
"-  c #2B2C36",
";  c #372B35",
":  c #383738",
">  c #2E342F",
",  c #56341B",
"<  c #46393A",
"1  c #403033",
"2  c #6A3D3A",
"3  c #733A36",
"4  c #602C1F",
"5  c #36463A",
"6  c #38412C",
"7  c #47463C",
"8  c #58453A",
"9  c #48553B",
"0  c #52482D",
"q  c #66453B",
"w  c #714828",
"e  c #4D4310",
"r  c #1B2B4C",
"t  c #363A45",
"y  c #2A3649",
"u  c #4B3D46",
"i  c #523B52",
"p  c #673D46",
"a  c #73394F",
"s  c #453F6B",
"d  c #3A4848",
"f  c #374759",
"g  c #2F5058",
"h  c #1E4F6C",
"j  c #384966",
"k  c #395973",
"l  c #32526E",
"z  c #196779",
"x  c #3A667C",
"c  c #346C7A",
"v  c #434344",
"b  c #4C4545",
"n  c #494849",
"m  c #564847",
"M  c #475448",
"N  c #58574A",
"B  c #494855",
"V  c #584854",
"C  c #4B5558",
"Z  c #5C5B55",
"A  c #545C5A",
"S  c #5B5B5B",
"D  c #565556",
"F  c #674548",
"G  c #645959",
"H  c #684F51",
"J  c #596258",
"K  c #51624D",
"L  c #65645B",
"P  c #71675B",
"I  c #4A5967",
"U  c #5C5B63",
"Y  c #575964",
"T  c #4E4D6A",
"R  c #655867",
"E  c #6B4461",
"W  c #5A6366",
"Q  c #4A6774",
"!  c #526F73",
"~  c #686567",
"^  c #796D78",
"/  c #6A7678",
"(  c #767476",
")  c #70716C",
"_  c #B47319",
"`  c #977023",
"'  c #A87029",
"]  c #985D1F",
"[  c #CA7A19",
"{  c #CB7630",
"}  c #896B58",
"|  c #996958",
" . c #8A7158",
".. c #9A725D",
"X. c #A56F5C",
"o. c #AB5E6C",
"O. c #8B6B68",
"+. c #9B6D6C",
"@. c #996965",
"#. c #8A7368",
"$. c #987468",
"%. c #856C77",
"&. c #996A73",
"*. c #997575",
"=. c #867474",
"-. c #A66B69",
";. c #A47468",
":. c #A66D74",
">. c #A27373",
",. c #A5727A",
"<. c #B36E6E",
"1. c #85373D",
"2. c #35817F",
"3. c #6D8577",
"4. c #5C836D",
"5. c #B68B2A",
"6. c #AC881F",
"7. c #CF8A18",
"8. c #E7B51A",
"9. c #ECAD16",
"0. c #D48D28",
"q. c #DDB127",
"w. c #E8AB26",
"e. c #EFAF26",
"r. c #E0A218",
"t. c #87877A",
"y. c #305F86",
"u. c #147292",
"i. c #386B87",
"p. c #387488",
"a. c #3A7798",
"s. c #2D6D90",
"d. c #3179A6",
"f. c #1E7BA8",
"g. c #466B87",
"h. c #447689",
"j. c #467899",
"k. c #4E6D90",
"l. c #6A7786",
"z. c #757683",
"x. c #73708A",
"c. c #477AA5",
"v. c #525A89",
"b. c #857685",
"n. c #8D758E",
"m. c #39899B",
"M. c #348994",
"N. c #1B92B4",
"B. c #3888A8",
"V. c #2788B7",
"C. c #388AB7",
"Z. c #2A98B8",
"A. c #3695B8",
"S. c #318DA7",
"D. c #1CACB9",
"F. c #47869B",
"G. c #588A97",
"H. c #768287",
"J. c #4587A5",
"K. c #5689A9",
"L. c #478BB6",
"P. c #4690B7",
"I. c #6986AE",
"U. c #129AD0",
"Y. c #259AC8",
"T. c #3899C6",
"R. c #279CD8",
"E. c #389CD5",
"W. c #368BC1",
"Q. c #1AA6CA",
"!. c #02ACDC",
"~. c #0BADDC",
"^. c #08A8D7",
"/. c #18A8D8",
"(. c #02B3DC",
"). c #07B4D9",
"_. c #18B4DA",
"`. c #0DAFCA",
"'. c #27A5C9",
"]. c #35A6C8",
"[. c #27A7D7",
"{. c #36A5D8",
"}. c #2CB3CF",
"|. c #02ACE4",
" X c #0BADE3",
".X c #03ADEB",
"XX c #0BACEB",
"oX c #05A6E6",
"OX c #13ACE4",
"+X c #13ACEC",
"@X c #18A8E9",
"#X c #02B3E4",
"$X c #0BB3E5",
"%X c #02BBE3",
"&X c #02B1EC",
"*X c #0BB3EC",
"=X c #01BAEB",
"-X c #0BBAE9",
";X c #13B2E3",
":X c #15B4E8",
">X c #02ADF3",
",X c #0BACF3",
"<X c #03ADFB",
"1X c #0BABFC",
"2X c #07A6F7",
"3X c #12A9F7",
"4X c #02B3F3",
"5X c #0AB3F2",
"6X c #01BAF4",
"7X c #01B3FC",
"8X c #0BB2FD",
"9X c #00BAFC",
"0X c #0AB8F4",
"qX c #14B5F3",
"wX c #26ABE6",
"eX c #28B5E7",
"rX c #2EB0EB",
"tX c #189DEA",
"yX c #4893C8",
"uX c #48AAD6",
"iX c #6AB6F0",
"pX c #56B6E0",
"aX c #01C3FA",
"sX c #02C1EB",
"dX c #00C7DB",
"fX c #77CEF2",
"gX c #62D4F4",
"hX c #858787",
"jX c #8C8B95",
"kX c #969696",
"lX c #8E928C",
"zX c #BBBBB8",
"xX c #ADB0AA",
"cX c #A79CA2",
"vX c #C3B9BA",
"bX c #BAC5B5",
"nX c #CBC8BD",
"mX c #B6BDC5",
"MX c #C3BDC3",
"NX c #8DD5F4",
"BX c #B5D8EF",
"VX c #83E8FC",
"CX c #92ECFD",
"ZX c #A7E7F8",
"AX c #B4EDF7",
"SX c #BAC3C0",
"DX c #CDCECE",
"FX c #CFD8ED",
"GX c #C8E7F7",
"HX c #D3EDF3",
"JX c #EAE9E6",
"KX c #FBECFA",
"LX c #F7F9FA",
"PX c #F0F1F1",
"IX c #E1E9D9",
/* pixels */
"a s.=X4X4X*X6X4X^.l 2 C Q.9X7X5XdX7X,Xs.p n N.=X%X-X&X7X:Xm.B i u.).9X*X;X1X7XQ.9 w f @X9X=X>X1X<XwXi.8 5 N.7X7X,X1X<X8XS.7 F Q ",
"p s._.=X*X!.!.XXZ.I q M Z.=X4X|.~.<X@XQ a u S.$X>X>X>X7X@Xh.m a i.[.4X=X X<X>XY.9 w f /.-X(.|.XX&X'.Q 3 p B.*X#X^.%X9X+Xj.8 a T ",
"2 Q ].[.wX/.[.{.a.C q N F.{.wX[.'.[.W.B 1.q h.}.[.].[.wXT.Q q q v.yX/.`.'.wX{.B.m w T d.{.Q._.[._.Z.Y 3 a g.'._.D.'.[.E.l.2 F T ",
"F C k.a.c.a.a.k.I V 8 N Q k.a.d.p.B.i.V w F I a.a.a.a.a.h.D F F V g.M.a.a.c.j.k N q E v.j.a.m.a.a.i.Y 2 H x a.a.2.M.a.k.I 8 N C ",
"m u b u n v u u 8 i b n v V v B 6 M B p 2 V t j v 7 7 b 7 8 b B 8 7 d v u i i < 0 0 2 u m d d 7 b v 7 9 M d d d 7 u i i 7 6 9 5 ",
"%.O.@.| | | X.-.@.O.#.#.O.@.@.| | | -.| O.%.&.&.O.@.@.| | } #.( #.}  ...O.&.@.@.} } | | @.O.@.| o.| @. . .P @...| @.o.+.} }  . .",
"*.*.;.;.+.*.$.;.:.+.*.*.>.>.*.&.>.$.;.X.*.$.<.-.:.:.:.>.-.;.;.$...X.X.;.n.>.X.-.*.*.>.-.>.*.*.;.-.-.:.>.,.:.;.;.$.+.*.>.;.>.;.:.",
"( ^ ^ / l.l.H.) =.( ) ) #.( l.l.x.l.( ( ) %.O.=.) G.K.yX{.[. X*X>X+X{.].uXK./ l.z.x.^ ) ( x.( ) ( %.%.x.^ &.O.) 3./ / ) %.b.%.^ ",
"C.B.m.F.F.m.m.m.F.c.K.B.S.B.B.S.C.J.M.m.B.F.J.T.XXXX.X&X&X&X&X&X.X*X.X4X&X#X#X XE.B.C.c.F.m.F.J.M.B.C.J.F.F.F.J.C.B.B.m.m.B.F.J.",
";XwX/./._._.[./.+X/./.OX@X{.'.D.[./.).~.*X:X@X&XXX&X&X&X&X&X&X.X=X&X.X.X,X5X*X$X!.~. XeX/.OXwX3X_./.OXOX_.`.[.[.tX@XOX;X_.;X;XOX",
"0X9X7X<X6X=X4X7X7X4X6X4X7X1X&XsX@X&X6XaX2X6X#X#X.X*X&X&X&X&X.X&X&X&X.XXX4X,XoX&X|.>X&X6X.X5X>X2X=X4X<X7X6X&X4X>X3X1X7X4X6X4X4X7X",
"=X4X<X<X4X&X4X7X>X0X-X#X7X7X9X6XXX=X(..X:X.X#X.X.X&X&X&X&X&X&X&X.XXXXX%X%XXX,X&X[.R.{.|.$X!.9X8X9X6X,X,XXX6X6X9X1X<X4X=X#X#X.X,X",
").|.>XXX$X%X#X.X*X*X#X!.~.$X#X|.OX5X|..X|.4X4X4X&X&X&X&X&X&X&X&X>XXX#X&X,X&X(.Y.& Q C i.i.s.^.6XsX%X X X X~.#X%X>X6X6X#X(.(.*X4X",
").!.+XXX X~.!. X X|.!./././.*X=X X>X*X7X%X,X!.qX&X&X&X&X&X.X&X&X4X=X!.XX7X*XS.* Y kX=.jXn.# A.!.(.(.$X;X X|. X$X X X X!.~.(.$X4X",
"4XXXXX+XXXXXXX*X%X#X*X5X.X&X#XU.T. XyXeXL.=XOX.X&X&X&X&X&X#X&X&X*X!.qX|.~.s.$ P kXhXJ / kXP # uX|.|..X.X,X>X.X*X).(.&X$X!.#X#X4X",
"7X4X4X&X&X4X6X6X4X4X,X1X7X6X'.h G xXG cXo W.(.<X.X.X&X&X&X&X&X.X#X>X6X[.j = ( kXb.Z J R 3.kXR A.=XXX2X3X1X<X4X&X%X=X>X,X,X,X1X1X",
"&X.X.X&X&X.X4X.X*X&X4X&X|..XV.B IXPXFXLXxXr +X*X#XXX|.&XXX.X=X.X&X|.>X/.Y hXlXz.G S Z R J t.I /.+X4X2X>X*XU.0X9X<X(.).(..XoXXX,X",
"&X&X&X&X&X&X&X&XqXoXoX*X#X&XQ.lXvXbXmXJXPXG.=X3X.X*X0X4X#X|.|.4X.X*X4XU.Y lXP A W S N D Y = y /.!.=X6X<X#X3X4X>X>X!.).!..X5X,X,X",
"&X&X&X&X.X&X&X.X|.6X*X|.4X6Xd.N vXmXzXbXxX* V.9X4XoX&X.X4X=X X|..X|.4X{.C H.Z J D ~ W M % l Y.;X,X XoX1X|./.:X8X<X*X%X#X.X.X4X4X",
".X&X&X.X&X&X&X&X8X#X#X>X4X.XQ.kXzXmXzXJXKXlX- C.4X=X|.*X.X7X&X-X.X0X&XV.) jXZ U ~ D b : s._.4X7X.XR.9X{.9XfXgXU.>X>X=X&X*X&X.X4X",
"&X&X.X&X&X&X&X&X4X#X*X>X,X&Xf.- cXxXcXmXKXJXt.: yX$X.X$X=X2X4X#X&X|..XC.W ( J S Z A Z = s.$X!.tXI - p.: ].ZXAX].,X7X9X&X*X#X#X#X",
".X&X&X&X&X.X.X&X>X!.#X4X.X&X^.y.C G.: cXDXPXLXhXy T.6X&X(..X,X>X&X&X*Xd.( kX) D E J C -   S.U.B * C A * k iXFXfX+X9X9X.X|.#X=X#X",
"&X&X&X&X&X.X&X&X,X XXX4X|.&X+X~._.U.z = xXnXJXKXt.r Q.|.*X#X*X.X|.6X$Xy.* jXhXL R K m v * ; 5 ; D Z U D o s.GXHX'.oX<X1XXX.X4X.X",
".X&X.X&X&X&X.X4X6X&X.X>X$X$X4X4X<X,X(.i.> kXDXJXLX3.r R.7X|.%X.X5X.X|.k.  ^ A S S J Z B V n d K U N R d 1 B.NXAXVXeXoX3X+X.X9X4X",
"4X&X&X.X&X.X&X.X&X&X.X&X&X&X>X&X4X4X&X{.k : xXzXKXPX/ > Z.&X;X.X2XR.x + ( kXb.S W U A S W R A R A Z U m * V.pXBXGX}.XX<XXX~.$X9X",
".X&X&X&X&X&X&X&X&X&X&X&X&X&X&X&X.X$X|.0XwXl < xXnXPXJX) s [.=X4XQ.f < H.kXH.J N S N J G M Z Z S J G C 7 : Y.%XBXAX}..X7X*X^.~.#X",
".X&X&X&X.X&X.X4X&X.X>X&X&X.X&X&X*X4X|.4X4XU.l u xXFXPXPXG I `.C.& B kXlX) Z G A G H L G S R A W H D u t d U.qXfXVXeX0X4X#X`.).$X",
"&X&X&X.X&X&X&X.X&X&X&X&X&X&X.X&X=X4X.X X|.4X/.h m xXDXHXPX~ r . Z kXhX~ J D U n t C y A ~ S G D C : > ; y U.oXwXeX~.0X7X5XOX X#X",
"&X&X.X&X&X&X&X&X&X.X&X.X&X&X.X&X>X.X=X|.5X.X#X^.g M xXMXPXPXS 1 kXhXG G U W v 5 = * : M M C Z C t + O l Q.8X,X-X|.oX<X<X3X3X,X4X",
".X&X&X&X&X.X&X&X&X&X&X&X.X&X&X&X X.X.X.X&X*X&X=XOXf M zXDXLXPXY = N W J S : < * . O O > ; : < : = $ a.%X.X|..X#X6X6X7X2X1X2X7X7X",
"&X.X4X&X&X.X&X.X&X&X&X&X4X&X&X&X!.0X.X5X#X.X.X.X2XY.t D xXSXLXIXn 1 D d b y & ; W.T.d.B.l c y g $ B.6X2X#X%X*X,X&X#X(.*X>X,X&X#X",
"&X&X.X&X&X&X&X&X&X.X&X.X.X&X&X.X7X|.(.&X4X*X$X>X!.C.$   R vXDXPXJXv ; 5 = X f '.4X.XoX=X+X XwX@XZ.&X<X X|.7X>X#X4X%X).(.#X%X(.(.",
"9X4X X|.=X6X5XOX$X&X&X#X=X>X@XJ.OXY.,X/.5XeX.XeXi.* P hX; W xXDXLXIX7 * @ l ~..X7X|.$X|.4X,XoX6X.X&X&X&X&X&X.X&X.X&X.X4X.X&X.X&X",
"*X X.X*X&X4X.X.X2XXXXXXXoXwXj = ! $ K.* yXf W.h - H.jXhXZ O ) zXDXKXFX: y ). X=X.X=X*X6X#X|.=X.X.X.X.X&X&X.X&X&X&X&X&X&X&X&X&X&X",
"~. X&X&X&X#X4X>X#X4X<X.XZ.- 5 lXkX( kX) hXv . u =.kXz.H A M $ ~ zXDXKXIX1 u.yXs.^.#X<X,X!.0X=X#X&X&X&X&X.X4X&X.X&X&X&X&X&X.X&X.X",
" X.X.X&X#X&X.X7X&X&X:XJ.@ D kXjXW ~ / ~ kXz.N lXlX/ N G R D >   L zXFXLXDX2 ] . s.[.>X8X,X|.&XOX&X&X.X&X&X&X&X&X.X&X&X.X&X&X&X&X",
"6X&X.X&X#X%X=X4X2XqXy.o ) cXn.~ G G Z G / hX/ jX~ K J Z v 5 > * + P vXIXnX_ [ 5.O j.:X6X%X&X>X,X.X&X4X.X&X&X&X&X&X.X&X&X&X&X&X&X",
"6X&X|.|.&X&X.X.X$XXXB.( kXhXA A J A Z Y L C G L Y A R V > > @ y.V.O ) cX[ 7.w.8.6.  d.+X&X*X.X6X&X&X.X&X&X&X.X&X&X&X&X.X&X.X&X>X",
"4X$X).$XXX,X>X.X%X Xk H.z.H J S Y Y S ~ C L G N Z R t > ; % B.-X<XU.w ] [ e.w.8.9.0.o f.oX.X*X#X.X&X&X&X.X&X.X&X&X.X&X&X&X&X&X&X",
"+X~.).~.2X1X<X6X!.:Xh.=.! S N R Z Z b < d D A W Z 7 : * - Z.(.2X!.N., _ 0.8.9.e.e.e.6.  f.,X>X.X&X&X.X&X&X&X&X&X&X&X&X&X.X&X.X&X",
",X%X#X.X*X4X4X.XeXuXK H.( J J A m * < o : < N R A D * - Z.6X>X#X.XyX% ] 7.0.w.q.8.9.e.' . S.oX=X&X@X+X#X*X X!.>X&X&X&X&X&X&X&X.X",
">X#X=X4X=X>X.X/.ZXHXf = N ~ K n $ s./.g.* : C A Z U : - W..X.X&X#X^.yX  ] [ e.e.e.9.q.8.6.$ L.$X(.7X.X$X>X<X X6X4X.X&X.X.X&X&X&X",
"7X&X4X&X=X<X@XpXAXIXiX: t N < . S.wX1X~.j N A Z J R t f /.6X.X#X(.>X.Xf.. ' [ r.w.e.8.8.q._ % V.4X#X0X>X<X6X6XoX.X&X.X&X.X&X&X&X",
" XoX+X.X4X7XrXZXLXJXIXC.h f.y T.>XoX=XY.C N J R N S u r {.|..X.X.X.X&X%Xu.$ ' 7.q.9.e.e.e.q.` . V.oX&X$X#X&X^.=X&X&X&X&X&X&X&X>X",
"~.~.@X X6X>XR.AXKXPXHXiXwX5XQ.|.|.8XZ.: = R U A J D : c ;X4X&X.X,X6X|..X*Xf.  ` 7.r.e.e.9.9.q.6.@ N.%X!.*X#X#X.X&X&X4X.X&X.X&X&X",
"~.$XXX#XsX%XE.ZXLXKXHXGX X|.7X|.}.f.$ 6 U N Z Y G A : j wX>X#X.X.X0X*XoX|.$Xa.. ] 0.r.w.9.9.w.w.w g eX9X>X|.5X.X.X&X.X&X&X&X&X&X",
",X.X6X#X).gXNXHXJXHXLXHXNX$X.X*Xu.$ 5 ~ U G Z W Z n - a.6X4X#X4X#X&X.X*X6X.X/.c.$ ` 7.e.r.w.r.0.{ K.!.|.,X<X&X4X&X&X&X&X&X&X.X&X",
"3X7X9X4X}.ZXHXPXKXKXGXHXHXiX#X>XA.B H C W G S S v 5 - i..X.X#X>X*X.X=X|..X7XXX;Xg.O ' { 0.7.0._ , j rX#X#X|.&X&X&X&X.X&X&X.X&X&X",
",X6X%XeXNXBXZXVXCXAXGXHXIXBXpX+Xg B G U K Z N d : . ; S.&X&X5X=X&X&X.X&X&X&X&X&XoXu.% { 7.0.{ e j '.sX2X3X$X).%X(.%X4X<X7X7X.X|.",
"oX=XsXuXAXFXFXBXZXBXGXHXHXHXNXuXd.& n b I C < > + f Y.4X4X:X!.|.&X&X&X&X&X.X&X.X!. Xh , ' { 4 t uX:X9X7X8X(.!.*X(.%X&X=X9X6X#X~.",
" X$X`.uXGXGXFXFXBXFXGXAXBXGXBXNXpXc * : ; t ; o i.Y.>X>X=XoX,X&X&X&X&X&X&X&X&X&X.X*X+Xs.g ! k {.wXXX>X>X#X(.+X3X+X X~.*X4X4X+X/.",
"&X$X~.eXfXCXNXVXCXNXNXfXVXNXVXCXfXuXg V.: a.& i.@X4X#X!. X>X.X0X4X.X&X&X&X&X&X&X,X|.=XqXU.;X^.(.!..X=X*X).(.$XXX1XXX|.#X>X,X.X X",
"7X7X>XXX;X:X;X_.wXwX@X_._.eX[.@X).-XqX>XrX).E.OX.X.X=X>X,X&X#X|..X&X&X&X&X&X&X4XXX6X#X|.0X&X,X4X=X4X>X&X&XXX.X4X<X.X#X|.>X>X&X%X",
"<X7X7X9X|.*X6X4X<X2X*X.X=X6X>X>XdX!.!.8X|.|.#X9X#X#XoX1X4X#XqX|.&X&X&X&X&X&X&X.X.X X4XXX3X7X,X6X4X4X>X4X7X1X<X8X7X9X4X4X>X7X4X9X",
"XX*X*X:X)._._.:X5XXXXX X#X%X*X:XeX$XqXaX|.*X$XoX=XoX:X=X.X&X|.5X.X&X&X&X&X&X.XXX&XXX^.qX3XqX!.`.$X$X$X~.XX|. X/.;XXXqX*X;X;X*X*X",
"P.C.A.S.B.B.S.A.A.C.C.W.Z.Z.A.S.C.J.Z.J.S.m.S.'./.1X4X.X#X#X4X.X&X&X&X&X&X&XXXXXR.W.A.A.S.A.P.L.P.C.B.P.A.Z.Z.C.J.C.A.A.S.B.C.C.",
"/ ) ( / l.x.l./ ( / ( ( ( / ! 4.x.x.^ ^ ^ ^ ( / z.G.I.P.uXwX X*X4X2XwX].A.I.n.x.x.l.z.x.l.! / z.( ^ ^ / / / 3./ 4.4./ / ( z.^ ^ ",
"X...X.$.=.#.#.$.$.O.#.+.-.-.$.#.+.-.-.&.>.@.+.O.O.#.$.$.o.-.-.@.$.@.;...$.:.o.-.+.$.+.&.$...@.:.;.+.@.+.$.$.#.|  ...+.;.+.$.%.#.",
"-.| -.X.@.$.$.$.$.$.*.+.<.<.X.X.;.<.@.*.*.+.,.*.>.;.....@.*.b.n.;.+.+...$.+.:.$.....X.-.@.X.;.;.-.*.*.*.*.,.:.n.<.<.<.;.+.=.*.*.",
"E V B V V n m u 7 m V V i p u 9 5 n 7 9 9 n B i u 7 7 8 7 n M C b M m 8 b n b M 9 8 9 M m 8 7 B i m n B B i i i i i V b M B B B ",
"V I x h.g.g.g.i.D V V C k.g.i.p.s.p.Q N 8 V v.a.g.p.c k.Y D N F k Q i.g.h.i.i.C F H I p.i.g.i.a.Q V m m I h.a.g.g.h.Q C H F I g.",
"m Q Z.E.E.{.{.{.v.F F Q yXE.{.'.[.'.j.q w U L.{.'.}.'.].c.V 2 F A.E.'.'.'.'.J.R a a j.'.'.].T.{.J.Y 3 F l.].[.'.D.].A.I q 3 k.T.",
"q M._.*X3XXX.X*XB.B q ! [.7X4X^.,XXXV.m 3 Q [.=XoXXXXX3XA.B 2 R /.wXXXXX4XaXY.l a a A.sX&XOX~.*X_.x a F L.5X4X!.^.$X~.p.F F G.qX",
"p M.%X4X1X5X%XsXN.f 0 ! _.9X9X$X1X7XU.j F g.:X7X.X5X9X6X].n b Q #X4X4X8X9XaX`.l p Y ].aX7X8X6X9XsXz q F T.9X9X@X+X0X6Xf.8 q B.aX"
};
