/* XPM */
static char *ba8e24db8a794d2afcc3cb339f56d868mHuBgf9Fxz4VRuuR[] = {
/* columns rows colors chars-per-pixel */
"64 64 256 2 ",
"   c #15140A",
".  c #0D1716",
"X  c #161417",
"o  c #130D10",
"O  c #151227",
"+  c #10181E",
"@  c #6A3D3A",
"#  c #763835",
"$  c #54291A",
"%  c #3A4C3B",
"&  c #48473B",
"*  c #5A4439",
"=  c #47553A",
"-  c #53492D",
";  c #65453B",
":  c #6F442B",
">  c #784F0E",
",  c #1F2E48",
"<  c #553956",
"1  c #4E3C4C",
"2  c #683D46",
"3  c #74394E",
"4  c #3A4A4A",
"5  c #3B4A57",
"6  c #395C58",
"7  c #0C5877",
"8  c #11536F",
"9  c #394B64",
"0  c #3C566C",
"q  c #3A6679",
"w  c #2D6E79",
"e  c #2C6867",
"r  c #4C4444",
"t  c #484649",
"y  c #574748",
"u  c #575549",
"i  c #484855",
"p  c #574754",
"a  c #49535A",
"s  c #4F5450",
"d  c #674648",
"f  c #684A50",
"g  c #574C65",
"h  c #485768",
"j  c #4F536F",
"k  c #486873",
"l  c #586679",
"z  c #5B7879",
"x  c #4C696E",
"c  c #7B6D76",
"v  c #6A7779",
"b  c #767276",
"n  c #72706D",
"m  c #6B4461",
"M  c #8F392C",
"N  c #A5341B",
"B  c #CE3C29",
"V  c #C5391E",
"C  c #BA4917",
"Z  c #B1670D",
"A  c #B74426",
"S  c #B54A34",
"D  c #8F4D22",
"F  c #C3471C",
"G  c #CB551D",
"H  c #D35615",
"J  c #DA6519",
"K  c #D26D0F",
"L  c #E97809",
"P  c #E56C17",
"I  c #ED741B",
"U  c #EA7615",
"Y  c #F37716",
"T  c #EE720F",
"R  c #CA4728",
"E  c #D0522D",
"W  c #E97724",
"Q  c #EC6D25",
"!  c #E14431",
"~  c #986A58",
"^  c #8A7158",
"/  c #97725B",
"(  c #8C6A56",
")  c #A4745A",
"_  c #A2675D",
"`  c #8B6B69",
"'  c #9B6D6C",
"]  c #996A64",
"[  c #897468",
"{  c #9B736D",
"}  c #967568",
"|  c #856D77",
" . c #996A73",
".. c #9C7474",
"X. c #967777",
"o. c #8A7171",
"O. c #A66A69",
"+. c #A57368",
"@. c #A37374",
"#. c #AC6D72",
"$. c #A75F6B",
"%. c #86344B",
"&. c #35817F",
"*. c #638275",
"=. c #5C836D",
"-. c #D28914",
";. c #FC990A",
":. c #F58818",
">. c #FC9917",
",. c #EB8E0C",
"<. c #FEA509",
"1. c #FDA416",
"2. c #F5AE11",
"3. c #D58331",
"4. c #FE9622",
"5. c #F5AA25",
"6. c #D78D6C",
"7. c #325A84",
"8. c #0C7896",
"9. c #147597",
"0. c #136E90",
"q. c #396B87",
"w. c #387489",
"e. c #297C98",
"r. c #3B7798",
"t. c #2E6D8E",
"y. c #1176A8",
"u. c #255F8D",
"i. c #515585",
"p. c #476A88",
"a. c #437487",
"s. c #487798",
"d. c #567390",
"f. c #776E87",
"g. c #6A7688",
"h. c #767484",
"j. c #677696",
"k. c #717A98",
"l. c #666C88",
"z. c #747DA2",
"x. c #6E7DA6",
"c. c #526E9F",
"v. c #866E88",
"b. c #39899B",
"n. c #2F8B96",
"m. c #0A8BB8",
"M. c #158CB6",
"N. c #1092B6",
"B. c #3A89A8",
"V. c #3496A9",
"C. c #398CB7",
"Z. c #279ABA",
"A. c #3694B7",
"S. c #2988A8",
"D. c #149CA9",
"F. c #48879A",
"G. c #778598",
"H. c #6F8290",
"J. c #4486A6",
"K. c #4588B6",
"L. c #4890B0",
"P. c #758DA7",
"I. c #079ACB",
"U. c #0E98D3",
"Y. c #3698C5",
"T. c #389BD8",
"R. c #2C96CA",
"E. c #03A1CD",
"W. c #02B4CC",
"Q. c #01ADD5",
"!. c #03ADDC",
"~. c #0CADDD",
"^. c #05A4D9",
"/. c #1DABD4",
"(. c #18A8DA",
"). c #03B3DD",
"_. c #09B2DD",
"`. c #05B7D8",
"'. c #18B5D8",
"]. c #16ABCD",
"[. c #28A6C9",
"{. c #34A4C9",
"}. c #27A7D8",
"|. c #2FADD6",
" X c #0E9DEC",
".X c #02ACE4",
"XX c #0BADE4",
"oX c #03ADEC",
"OX c #0BACEC",
"+X c #06A5E8",
"@X c #12ADE4",
"#X c #13ACEC",
"$X c #1AA9E7",
"%X c #02B3E4",
"&X c #0BB2E5",
"*X c #01BAE4",
"=X c #02B1EC",
"-X c #0CB2EB",
";X c #01BBEC",
":X c #0ABAEC",
">X c #13B1E2",
",X c #12B3EB",
"<X c #03ADF3",
"1X c #0BACF3",
"2X c #03ADFB",
"3X c #0BACFC",
"4X c #07A6F7",
"5X c #15ABF6",
"6X c #02B3F3",
"7X c #0BB3F2",
"8X c #01BAF4",
"9X c #02B3FC",
"0X c #01BBFD",
"qX c #0BB6F9",
"wX c #13B6F6",
"eX c #26A9E6",
"rX c #31B5E8",
"tX c #329DE1",
"yX c #4CABD8",
"uX c #02C2E8",
"iX c #00C4F8",
"pX c #1DC6DB",
"aX c #62CFEE",
"sX c #878797",
"dX c #878AA8",
"fX c #8996AA",
"gX c #959CB5",
"hX c #9195AE",
"jX c #A598AC",
"kX c #97A5B4",
"lX c #AAACB9",
"zX c #97A7C6",
"xX c #91A6C7",
"cX c #AAB8C9",
"vX c #B5BDCD",
"bX c #ACB0D1",
"nX c #8EADDE",
"mX c #BBC6D8",
"MX c #B9C8CD",
"NX c #90DAF4",
"BX c #B8D3EF",
"VX c #93E5F9",
"CX c #87EAFD",
"ZX c #B0E6F3",
"AX c #C6CBD8",
"SX c #C9D5DB",
"DX c #CCCFD3",
"FX c #CBD2E5",
"GX c #CFD6EE",
"HX c #D1ECF8",
"JX c #EAE8FA",
"KX c #FCFEFE",
"LX c #F6FBFB",
"PX c #ECEDED",
"IX c #E5DFE0",
"UX c #CDA582",
/* pixels */
"3 t.7X0XqX=X8X9X^.0 @ a [.0X0XOX`.0X<Xt.2 i D.iX6XwX<X0XwXb.a < 8.>X0XXX5X2X2X].= : 5 +X0X;X<X2X2XeXq * 4 M.0X0X5X2X2X9XS.& f j ",
"1 w '.6X=X!.).OXZ.9 - s Z.:X6X.X~.<X$Xk : 1 S._.&X).oX9XeXa.y 2 t.}.;X).XX<X1XZ.= : a (.:X`.oX+X%X}.k : f r.XX=XQ.*X6XeXs.; d j ",
"@ k {.}.eX}.|.T.b.s : u F.T.eXeX[.rXA.i M @ s.|.}.}.}.eX{.x ; 3 j K.$X].}.eXT.B.r : j r.|.[./.}.'.A.j M 3 p.[./.Z.[./.T.l.; d g ",
"d a a.s.r.r.r.s.h p d s k s.r.r.w.r.q.p ; f h r.r.r.r.r.a.s y f g d.n.n.r.r.s.q u d m i.c.e.b.r.n.q.h 2 u k r.e.&.n.r.s.h * u a ",
"y t 1 1 r t t 1 1 r r t t t t 5 % t t < 2 1 5 9 1 r 1 & & - r s & = 4 4 1 1 1 1 - - * 1 t 4 4 & 1 1 & = = 4 5 4 & 1 < < & % - % ",
"o.` ] ~ ~ ~ ) _ ~ ` [ o.` ] ] ~ ~ ~ O._ ` `  . .` ( ~ ~ ~ ( ^ [ ~ ~ ( ` ` $.~ ] ^ ( ~ ~ ] ` ] ~ $.~ ] ^ ^ n ~ ~ ~ ] $.] ^ ^ ^ ^ ",
"X...+.{ } } ..+.#...X.X.@.@.@. .{ / +.+.} ' #.O.} X.....O.+.{ X.' _ ) X.X...'  .X.X...+.+.....) O.O.#...@.#.O.+.} ' ..@.+...{ +.",
"c c c v g.g.h.n c c [ n [ n g.g.k.h.b n n | ` o.b g.g.g.b c n n v.o.` v H.v v h.f.f.c c b f.b n b c | f.c  .| n *.z v b c | v.c ",
"C.J.F.b.F.b.b.b.F.B.L.J.J.B.F.B.J.F.n.b.B.L.J.J.R.[.].$X$XXX-X7XoXOX/.#XtX}.V.R.J.K.s.K.s.S.C.J.n.B.B.J.J.F.F.F.K.J.B.b.b.J.F.J.",
"$X(.(./././././.$X(.$X(.$X/./.].$X@X_.&XXX#X@X~.).~.+X2X.X  . X . X   X . N.=X+X!.%X_.`.].rXeX$X'.'.#X@X'.'././.5X$X>X_._.>X>X>X",
"0X9X2X9X8X8X9X9X9X9X8X9X9X9X8X;X#X@X*X%X=XoX=X*X4X*X1X1X;XX 6 i.H.kXjXkXv.s.y.8.y.m.<X=X*X3X4XqX-X6X<X9XoX=X=X6X5X3X9X9X8X6X9X9X",
";X6X2X9X9X=X6X9X9X6X=X-X<X2X6X;X1XOX&X=XoX<XoX=X-X.X%X*X<X8 7.g.sXmXmXmXzXG.n H.s s.U.+X).%XqX%X8X9X7X1X7X=X8X0X4X4X6X=X%X&XoX<X",
"`.%X<XOX&X*X&X-X%X!.`._.OX<X-X%X6X6X=X6X6X9X6X9X%X6X&X.X1XuX0.  O l kXDXAXFXIXLXMXx.. X S..X6X6X*X*X&XXXXX!..X;X6X9X=X%X).).&X6X",
"`.!.OXOXXX_.!..X%X).`.~..XoXoX%X=X%X=X%X%X&X.XXX9X4X.X6X4X<X%XE.].8 j.bXMXDXFXIXHXJXIXfXa.0.8XoX%X%X&X-XXXXXOX#X~.XX&X!.!._.&X6X",
"6XOX#X#XOXOX-X-X=X6X=X&X-X-X<X=X=X-X6X=X=X=X=XoX=X.X%X6X2X~.<XoX-XD.r.k.bXDXmXAXJXPXKXmXjXd.m.-X=X.XoX=X6XoXoX-X`.).=X&X&XXX%X8X",
"9X6X6XoX=X6X6X;X9X6X6XOX.X%X=X=X=XoXoXOX=X%X=X=X=XoXwX).oX).+X8X6X=XM.o kXvXFXFXDXIXKXKXAXdX+ E.=X=XOX1X3X<X6X8X*X=X<X<X1X1X4X2X",
"oX=X=X=XoX=X=X=X=X=XoX=X=XoX=X=X=XoX=X=X=X=X=X=X=X=XoX=X=X=X=X=X7X%X+X;Xo H.bXAXFXAXAXKXLXPXhXa y.%X%X1X2X+XqXoX=XXX_.&X.X1X#X.X",
"=X=X=X=X=X=X=XoX=X=X=X=X=X=X=XoX=X=X=XoX=XoXoX=X=X=X=X=X=XoXoX=X.X<X;X2X  l.dXcXAXAXFXJXLXLXIXfXH.0.6X0X).).oX6X6X%X).).%X1X1X<X",
"=X=X=XoX=X=X=X=XoX=X=XoX=X=X=X=X=XoX=X=X=XoX=X=X=XoX=XoX=XoX=X=XOX<X*X-X7 i.z zXAXAXAXAXHXLXKXDXhX9 I.^.:X<X,X5X2X6X&X).%XoX3X2X",
"oX=X=X=X=X=XoX=X=X=X=X=X=X<X=X=X=X=X=X=X=X=X=X=X=X=X=X=X=X=X=X=X5X6X%X<X_.8.h fXMXAXFXAXDXDXLXKXSXlXO m.<XXX.X3X2X6X%X*X;X=XoX6X",
"=X=XoX=XoX=X=X=X=XoX=X=X=X=X=XoX=X=X=X=X=X=X=X=X=X=XoX=XoX6X=XoX8X<XXXOX=X8.0 hXmXmXFXSXFXFXSXLXLXPXP.d.9.).`.<X6X9X9X=X6X%X).*X",
"=X=X=X=X=X=X=XoX=X=X=X=XoX=X=X=X=XoX=X=X=XoXoX=X=X=X=X=XoX=X=X=X%X=X8X6XM.s.k.MXvXvXvXcXmXFXDXLXKXKXkXd.8 oX8X.X=X6X6X3X7X=X).`.",
"oX=X=X=X=X=X=X=XoX=X=X=X=X=X=X=X=XoXoX=X=XoX=X=XoX=X=XoX=X=X=X=X<X~.!.%X  k.bXDXzXgXgXkXvXFXFXJXKXPXkXb 8 2X%X1X-X=X<X1XOXoX=X%X",
"=X=XoX=X=X=XoX=X=X=X=XoX=X=X=XoX=X=X=X=X=X=X=X=X=X=X=X=X=X=X=XoX7X+XU.X xXIXJXgXz.d.j.j.j.k.gXAXDXSXj.j i X o 9.=XoX<X#X+X<X0X9X",
"=X=X=X=X=X=X=XoX=X=XoX=X=XoX=X=X=X=X=X=X=X=X=XoX%X-X+X5XoX!.*X6XoXy.d.f.HXSXMXv.P.k.a 4 a j G.gXxXgXj j 9 k j.H.8.).XX+X5XoX6X6X",
"oX=XoX=XoX=X=X=X=X=X=X=X=X=X=X=X6XoX=X%X=X=X-X=X3X_.0X%X).<X~.+X^.q.sXMXPXmXP.G.sXx.7 8 7 u.l v c c.h h.dXx.gXg.j I.;X9X&X].&X~.",
"=X=X=X=X=X=X=XoX=X=X=XoX=X=X=X=XoX%XoX=X=X=X=X6X=X-X.X<X&X;X0X^.X P.FXLXgXP.P.xX6 9.9X6X2XU.. . , 0 0 AXJXzXk.dXxXo M.2XoX>X`.%X",
"=XoX=X=X=XoX=X6XoX=X=X=XoX=X=XoX=X=X=X%XoX=X=XoXoX*X&X%X<X4Xy.p.P.mXvXmXk.hXdX5 M.~.oX~.%XoXU.^.y., hXMXIXHXcXP.x.X m.4XqX.X].*X",
"=XoX=X=X=X=X=X=X=X=X=XoX=X=X=X=XoX=X=X=XoX=XoX-X.X<X&X-X0XI.s.H.bXvXbXdXk.G.P.0.oXoX&XOX.X6X4XI.e.j z.zXDXIXSXlX6 y.I.qX3X5X+XqX",
"=X=X=XoX=XoXoX=X=X=X=X=X=X=X=X=X.X=X=X=X=X=XoXoX-X2X_.iX~.X H.lXFXzXP.j.gXl 7 oX4X<XXX9X8X.X1X8 i j.j.gXzXGXKXAXO &X).oX5X4X3X9X",
"=XoX=X=X=XoX=X=XoX=X=X=X=X=X=X=X=X=X=X=X=X-XoX+X^.o . + o kXMXAXxXk.G.hXO M.=X9X!.;X).6X=X.XoX7 l.hXc.l.k.gXh u.oX!.0X=X#X2X%X).",
"=X=X=X=X=X=X=X=X=X=X=XoXoX=X=XoX=X=X6X=X6X-X.XE.d.-.K Z H 6.lXlXsXP.G.d.C.^.&XXX%XoX6X1X#X=X.XR.J.v dXz.g.l J.(.&X9X2XXXW.&X;X).",
"6X=X%X%X=X6X=X=XOX&X=XoX=X%XoX&X.X&X<X%X^.+XI.j.Z 1.1.:.,.;.6.jXG.G.H.u.!.9X+X%X=X=XoX=X=XoX=X=Xm.u.dXj.l 8 /.6XoXoX=X=X=X=X=X=X",
"6XOX=XOX=X=X=X=X%X=X9X=XXX=X<X9X6X<X$X6Xm.o O -.5.;.,.:.>.U W 6.gXi.0.W.oX+X0X,X=X=X=X=X=X=X=XoX0XW.+ o 7 *X+XoX=XoXoX=X=XoX=X=X",
"XXOX<X<X=X%X=X=X%X<X6X%XOX=X=X%X%X1X.X9.] ,.2.,.>.:.>.:.U I L Q p R.Q.8X9X%X=XOX=X<X=XoX=XoX=X=X-X^.E.Q.^.OX7XOX=XoX=X=X=XoXoX=X",
"XXoX<X6X-X=X=XoX%XOX=X&X6X=X~.~.7X!.I.^ -.1.<.4.:.L ,.:.W Y P G   ^..X+X<X*X9X%X=X=X=X=X=X=X=X=X*X1X3X6XoX1X.X6X=X=X=X=X=X=X=X=X",
"%X6X6X=XoX=X&XoX6XXX%X<X=X=X-X6X~.U.. ,.1.2.1.:.Y :.L L I I E A   ^.=X8X2X!.6XOX=X=XoX=X=X=XoX=X4X8X!.%XoX<XqX.X=X=X=X=X=XoX=X=X",
";X%X%X%X=XoX=X-X6X%X6X<X.XoX9X2X8.> 5.>.;.1.I L U P I L U R F A O ^.;XOXoX).-XOX=X=X=X=XoX=X=X=X*XXX-XOX0XoX).`.=XoX=X=X=X=X=X=X",
"1X.X)._.=X6X-X.X<X%X6X6X!.7X+Xn.+.-.5.4.>.,.Y I P J Q J J B D 3 m.(.%X=X.XOX6X=XoX=X=XoX=X=X=X=XoX=X*X+X.X8X.X-X=X=X=XoXoX=XoX=X",
"5X@XW.`.oX6XoX%X6X).oX;X!.2XI.> -.<.>.<.,.I I L I G J J B B f 9.6X.X=XOX8X=X=XOX=X=X=X=X=X=XoX=X=XqXoX-X%X-X=X2X=XoX=X=X=X=X=X=X",
"4X:X).Q.-X1X.X;X3XoX-X%X=Xm.. >.1.<.>.:.I L U U T Y E R R   I..XoX=X=X=XoX=X=XoX=X=X=XoX=XoX=X=X=X=X=X=X=X=X=X=X=X=XoX=X=X=X=XoX",
"9X=X;X%X6X6X6X=X`.#X).%X0.+.-.1.1.>.:.L L I W U W G F F F o m.9XoXoXoX=X=X=X=X=X=X=X=X=X=X=X=X=X=X=XoX=X=X=XoX=XoX=X=X=X6XoX=X=X",
"=X+X8X=X<X9X6X.X=X9X1XM.) -.<.2.;.:.L Y T E Y P H R V V M e.T..X=XoX=X=X=X=X=X=X=X=X=X=XoX=X=X=XoX=XoX=XoX=X=X=X=X=X=X=X=X=X=X=X",
"OX~.&XoX0X9X1X$X+X6XE.O ,.1.2.4.:.:.L I Q H P J R S R N O Q..X6X=X=X=X=X=XoX=X=XoX=X=XoX=X=X=XoX=X=X=X=X=X=XoX=X=X=XoX=X=X=XoX=X",
"OX(.(.^.0X<XU.aXOX7XU.X ,.1.;.Y W P L U P L R F F F $ e.5X*X:XoX=X=X=X=X=X6X=XoX=X=X=X=XoX=X=X=X=X=X=X=X=X=XoX=X=X=XoX=XoX=X=X=X",
"oX~.~.Q.8X&XT.NXrXoX^.O ,.1.:.I I I H I U H R R V # r.E.oX!.9X+X=XoXoX=X=XoX=X=X=X=X=X=X=X=X=X=X=XoXoX=X=X=X=X=XoX=X=X=X=X=X=XoX",
"=X6X;X*XuXaXNXHXJXrXI.7 3.,.,.U P P R Q J A A A S 7  X%X=XwX<X;X=X=XoX=XoX=X=X=X=X=X=X=X=X=X=XoX=XoX=X=XoX=X=XoX=X=X=X=X=X=X=X=X",
"<X2XiXuX[.ZXHXJXJXZX'.7X7 Z 1.Q J G T H R A A N 8 =X&XOX#X<X`.=X=X=X=X=X=X=XoX=XoX=X=XoXoX=X=X=X=X=X=X=X=X=X=X=X=X=X=XoX=X=XoX=X",
"+X8X*XrXNXBXVXCXVXZXBXeX}.s.> Q T J E R A ! $ c.eX#XoX=X=X6X=X=X%X%X%X%X%X=X=X=XoX6X=X<X=X6XoX-X1X<X<X<X<X=X%X*XuX*X6X2X9X9X=X.X",
"oX8X*XyXZXGXGXBXZXZXHXGXaXI.y.Z K G ! R C M 8.^.%X%X%X=X=XoXOXOX6X=X9X=X6X=X6X=X%X=X%X%X%X%X=X%X*X%X;X6X&X).).).).).%X;X9X8X&X_.",
"XX&X].yXHXGXFXBXBXZXGXZXGXNX&XX M R F R N . 9X-XoX-X6X=X=X%X=X;X<X1X<X1X<XoX=XoX6XoXoXoX<XoXoXoX&X=X<XoXXX~.~.OX#XXX~.=X6X1XOX(.",
".X:X~.pXCXVXVXCXVXVXCXNXNXVXaXyX8.O     7 uX=X<XoXoX=X-XOXOX=X%X=X=X=X%X=X%X=X%X=X-X-X=X6X6X6X=XXX<X3X6X&XXXOX2X3XOXXX.X6X2XoX~.",
"9X9X<XOX@X'.'.@XeX$X{.'.'.wX}.-XA.L.A.L.T.oXW.&X=X=X6X=XoX-X=X=X%X%X%X=XoXOXOXOX%X=X%XoXoX=X=X;X%XoX<X<X&X%X<X2X2X=X%XXXoX<X=X%X",
"2X2X9X0X.X6X8X9X4X2X9X;X2X=X3X+X`.3X6X;X=XoX0XoX%X=X=X=X6X6X6X=X=XOX<X=X6X6X6X6X=X6X6X<X6X-X=X=X8X9X9X6X<X6X<X3X0X9X6X6X<X9X8X0X",
"-X-X7X:X_.'._.,X7X@X^.#X6X~.wXeX_.XXiX%X_.*X6X&XXX&X%X.XoXOXOXoXoX6X=X%X=X%X%X!.-XoXOX#X#X,X>X&X;X&X>X>XOXOXOX~.XXOXOXOX>X>X-X-X",
"K.A.A.B.L.B.B.V.C.Y.Y.C.V.Z.D.V.K.L.A.C.B.V.n.A.T.T.(.$XXX.X=X=X=X=X>X$X}.R.Y.Y.A.A.C.C.C.C.C.B.C.J.J.B.A.Y.A.V.J.C.Y.A.V.B.C.C.",
"v n b v g.g.h.*.v n b b v v z z f.f.| c c c b n d.g.v v f.v.c [ g.l.g.v v v.v.f.g.h.h.l.g.v v h.c b b b g.z *.*.=.=.v v v h.b c ",
") ~ +./ o.X.[ [ } ` ] ] O.+.} ^  .O. .'  . .} ` [ { ] /  . .' ' } ' } / } O.$.$.' {  . .X.^ ] #.' +.' ] } } [ [ / / } +.' ' o.o.",
"O.~ _ { ] { } +.} } X.@.#.#.+.) +.+.] } } { @...+.+.) ) / ..X.v.+.+.] / +.O.O.+./ ) ) } ) ) ) O.#...X.X.@.@.#.#.#.#.#.+. .X.X.X.",
"f p p p p t r r r y p t 2 1 y & % r r = s r i < y & & & & t a a t i r r r 4 4 t = - & r r y r i p r t i i < < < < < y * u t i i ",
"p 0 q.p.p.a.p.p.g f f h i.p.a.w.t.w.k u u s i.s.w.w.w.a.x s u p q p.w.k a.t.w a d p x w.q.p.q.r.j s d u k p.q.a.p.a.k s u p g p.",
"d k A.{.T.T.{.tXl y d x Y.T.|.[.|.[.s.y M g K.}.[.[.[.T.d.p @ 2 C.Y.[.[.{.{.L.g %.3 s.[.[.{.{.T.L.a # d j.Y.}.[.{.|.V.h # @ l {.",
"@ b.'.6X5X1X.X6XB.i ; x }.9X3X~.1XOXZ.< : k }.;X!.&X6X#XK.s ; g }.$XoXoX1X=X[.h 3 m A.*X=X@X!.-X'.q 3 2 L.-X9X!.].%X@Xt.2 2 J.pX",
"d n.*X9X2X7X*XuXM.5 - x '.0X0X&X1X2XU.5 f q.$X0XOX3X9X0X{.a * k &X=X6X0X9XiXW.e 2 g {.iX0XwX9X0X;Xw ; y Y.0X0X#X@X9XiX9.* d A.iX"
};
