/* XPM */
static char *be6dad1bd747480ecbff976b4dd8bdc4Z4JPYSINCpVgR1M5[] = {
/* columns rows colors chars-per-pixel */
"64 64 256 2 ",
"   c #30261B",
".  c #151C31",
"X  c #192636",
"o  c #1E2527",
"O  c #2A343A",
"+  c #373538",
"@  c #2C2D2E",
"#  c #1F1D1E",
"$  c #4B3937",
"%  c #6A3D3A",
"&  c #763937",
"*  c #59321C",
"=  c #3A4C3B",
"-  c #48473B",
";  c #5A4539",
":  c #47553A",
">  c #53492D",
",  c #66453A",
"<  c #71462D",
"1  c #754119",
"2  c #132C57",
"3  c #112E4F",
"4  c #353846",
"5  c #2B374F",
"6  c #133969",
"7  c #243E63",
"8  c #4B3D47",
"9  c #473E55",
"0  c #553956",
"q  c #533A4A",
"w  c #683D46",
"e  c #74394E",
"r  c #39484A",
"t  c #3A4657",
"y  c #324F59",
"u  c #354669",
"i  c #3A5768",
"p  c #264878",
"a  c #304E78",
"s  c #365676",
"d  c #284C6D",
"f  c #39677A",
"g  c #2D6E79",
"h  c #1D5271",
"j  c #4C4444",
"k  c #494649",
"l  c #574748",
"z  c #575449",
"x  c #474856",
"c  c #574754",
"v  c #49545A",
"b  c #555658",
"n  c #475346",
"m  c #664548",
"M  c #6B4D4D",
"N  c #574C65",
"B  c #485869",
"V  c #485777",
"C  c #52546B",
"Z  c #47636C",
"A  c #486776",
"S  c #5D7B78",
"D  c #516A73",
"F  c #776D6A",
"G  c #797569",
"H  c #7B6D76",
"J  c #6A7679",
"K  c #747374",
"L  c #777278",
"P  c #67706A",
"I  c #63595D",
"U  c #843A2F",
"Y  c #975A2A",
"T  c #86344B",
"R  c #896A59",
"E  c #986A58",
"W  c #8A7158",
"Q  c #99725C",
"!  c #9B6847",
"~  c #A56F5A",
"^  c #8B6B69",
"/  c #9B6D6C",
"(  c #996A64",
")  c #897468",
"_  c #9B736D",
"`  c #967568",
"'  c #856D77",
"]  c #996A73",
"[  c #9C7473",
"{  c #967777",
"}  c #8A7171",
"|  c #A66A69",
" . c #A47368",
".. c #A56C75",
"X. c #A27373",
"o. c #A67578",
"O. c #B36E6E",
"+. c #A75F6B",
"@. c #35817F",
"#. c #638275",
"$. c #5C836D",
"%. c #C5824E",
"&. c #B29077",
"*. c #1C4C87",
"=. c #244C84",
"-. c #285A99",
";. c #315789",
":. c #396B86",
">. c #387489",
",. c #38669A",
"<. c #3B7798",
"1. c #2D6D92",
"2. c #2C5CA5",
"3. c #2B67AB",
"4. c #3567A8",
"5. c #336CB5",
"6. c #3B73B8",
"7. c #2F6FAF",
"8. c #137B97",
"9. c #4B5B87",
"0. c #466A88",
"q. c #447488",
"w. c #477797",
"e. c #517091",
"r. c #776E87",
"t. c #6A7687",
"y. c #757586",
"u. c #687C94",
"i. c #6C718A",
"p. c #4776A7",
"a. c #4678B9",
"s. c #4D75AD",
"d. c #647AAF",
"f. c #3D77C0",
"g. c #447CC3",
"h. c #866C86",
"j. c #3A899B",
"k. c #318695",
"l. c #3A89A8",
"z. c #3793A9",
"x. c #3A8BB8",
"c. c #269AB6",
"v. c #3693B7",
"b. c #298AAA",
"n. c #1B99B3",
"m. c #458899",
"M. c #4D8495",
"N. c #708494",
"B. c #4383A3",
"V. c #4686A8",
"C. c #488AB7",
"Z. c #5688B8",
"A. c #4896BA",
"S. c #5594B7",
"D. c #518CA9",
"F. c #6694B7",
"G. c #6D89AD",
"H. c #149BD5",
"J. c #3698C6",
"K. c #299CD4",
"L. c #379BD5",
"P. c #2F94C6",
"I. c #04ADDE",
"U. c #0BADDD",
"Y. c #09A8D6",
"T. c #19AAD9",
"R. c #03B3DC",
"E. c #0BB2DD",
"W. c #05B6D7",
"Q. c #18B3DA",
"!. c #14B0CD",
"~. c #28A5C9",
"^. c #35A5CA",
"/. c #27A7D7",
"(. c #37A7D8",
"). c #31B5D9",
"_. c #03ADE5",
"`. c #0BADE4",
"'. c #03AEEC",
"]. c #0BACEC",
"[. c #0AA6E9",
"{. c #13ADE5",
"}. c #1BABE4",
"|. c #13ABEB",
" X c #17A8E9",
".X c #02B3E5",
"XX c #0BB2E4",
"oX c #02BAE3",
"OX c #02B1EC",
"+X c #0BB2EB",
"@X c #01B9EC",
"#X c #0AB9ED",
"$X c #14B2E3",
"%X c #14B2EB",
"&X c #1BB1EB",
"*X c #1CB4E6",
"=X c #03AEF3",
"-X c #0BACF3",
";X c #03ADFC",
":X c #0BABFA",
">X c #08A6F9",
",X c #11ACF3",
"<X c #18AAF6",
"1X c #02B3F3",
"2X c #0BB2F2",
"3X c #00BAF4",
"4X c #01B3FC",
"5X c #00BAFD",
"6X c #0CB2FA",
"7X c #17B6F4",
"8X c #24ABE4",
"9X c #28ABE6",
"0X c #38AAE4",
"qX c #27B5E8",
"wX c #32B6E5",
"eX c #25A9F3",
"rX c #24B5F4",
"tX c #179FE9",
"yX c #4B85C7",
"uX c #4699C7",
"iX c #579BC4",
"pX c #5489CC",
"aX c #6495C8",
"sX c #45A6D5",
"dX c #4FA6CF",
"fX c #6CB0CA",
"gX c #43ACE5",
"hX c #45B7E5",
"jX c #50BCEB",
"kX c #00C0D4",
"lX c #04C3F0",
"zX c #72C7DF",
"xX c #6FCBF6",
"cX c #56CCEB",
"vX c #8B8999",
"bX c #8FD1F0",
"nX c #BAD9EB",
"mX c #B5DBF7",
"MX c #AADBF6",
"NX c #88E5FC",
"BX c #95E4FD",
"VX c #8BF8FF",
"CX c #A6E8FA",
"ZX c #B7E6FB",
"AX c #B1F3F7",
"SX c #A2C4CD",
"DX c #C8D8EF",
"FX c #C5E8F7",
"GX c #D7EDF4",
"HX c #CAF5FB",
"JX c #D4F7F8",
"KX c #CCE5EB",
"LX c #E8EAFB",
"PX c #E5FAFB",
"IX c #F0F7F1",
"UX c #D9EFDF",
/* pixels */
"e 1.#X5X4X#X1X4XT.a m v ~.5X5X+XW.3X:X>.w k n.lX@X7X=X4X7Xj.x 0 8.$X5X`. X;X;X!.: 1 u [.3X@X=X;X:XqX:.; r n.;X5X|.;X;X4Xl.- l 9.",
"q g Q.1XOXI.I..Xc.i , n n.#X1X_.I.4X Xf < q b.XX.X.X'.4X*X>.l w :.T.@XW.XX;X-Xc.: < i K.#XW.OX[.OX~.A & w l.`.OXW..X4X Xw.; m C ",
", Z ^./.9X/./.(.>.b < z m.^.9X/.~.0Xv.x U w w.(./././.8XJ.D , e 9.yXQ.!.T.9XL.l.z < N 6./.~.Q./.Q.v.C & e q.~.Q.n.~.).L.e.< w N ",
"m B 0.<.<.<.w.w.B c l z D w.<.7.g l.:.c < M i <.<.<.<.<.q.b m M N 0.k.k.<.p.p.s z , c 9.w.<.k.<.k.:.v % m f <.<.@.k.<.w.C ; z v ",
"l j q j j k 8 q q j j k k k 9 k = r x w q c 4 u k 8 $ k - > - k $ : r r 8 q 0 8 > > % 8 k r r - j 8 - : n r r r - 8 0 9 - > : = ",
"} ^ ( E E E E ~ E ^ ) } ^ ( ( E ! E | +.^ } ] ] ^ E E E ! E ) G Q E W Q ( ( ( E R W E E ( ^ ` E +.E ( R ) R ( Q ! +.+./ R W W R ",
"[ [  .X.` { _  ...[ { [ X.X.[ ] X.`  . . ._ O.| ` { { [ [  .[ { [ ~  .[ { X.| ] { { o. . .[ [ ~ | | o.[ [ ..| ` ` _ { X. ._ _ | ",
"H H K J t.t.y.K } H G G } K t.t.i.y.K K G } ^ } L t.i.t.y.F F G r.} ^ J t.#.J t.r.r.H F L i.L G L ' ' r.H ] ^ G #.S J K ' h.' H ",
"x.l.j.m.m.j.j.j.j.V.V.C.B.M.m.j.V.j.j.z.l.B.B.m.b.v.P.K./.{.`.`.'.`.T./.J.J.P.l.x.V.V.l.V.m.B.a.j.j.l.C.B.M.M.V.C.l.j.j.l.l.m.B.",
"T.8XT.T.T.!./.T.}.}. X}.}.}.T.T.T.Q.E.E.{.}.T.Q.U.U.E.].'.OXOX'.'.OXOX]..X.XU.E.{.T.T.Q.Q.!.T.<XQ.T.}.%XQ.!.!./.eXeX{.{.E.Q.$X}.",
"5X4X;X4X3X3X3X4X5X5X3X1X4X;X3X3X,X2X3X3X3X;X1X1X@X1X1X1X=X=X1X'.|.OX1X-X1X'.OX%X|.{.,X1XOX'.=X5X1X1X=X4X3XOXOX4X>X>X4X3X1X3X4X5X",
"@X1X;X;X1X@X1X4X=XOX.X.X=X=X1X@X[._.OX@X=X=X=XOX].'.'.'.'.OX.X.X=XOXOX.X_.'.|.9XJ.L.9X#X@X=X=X5X3X3XOX=X-X2X3X5X>X;X1X@X.X_.'.=X",
"W..X'.]..XoX.X'.-X.XR.XX].].'.#X`..XOX@X1XOXOXOX.XOX.XOXOXOX.X.X'.OXR._.OXXX(.A.q.B.K.R..XOXXX.XkXoX.XU.U.U..XoX=X3X@X.XR.E..X1X",
"R.`.].[.`.U.U.`._.I.R.E.`.`._.R.U.I.XX_.].'.OXOXOXOXOX@X'.1XOX1XOX.X1X-X7XgXF.N.u.C.9X].'.].E.E.XX`.`.XX`.[.[.XX`.`.`.`.I.E..X1X",
"=X-X|.|.].].+X].#X.X_.`.`.`..XR.R.R..X.X.XOX.X.X'.'.OX'.'.].=X]..XOX=X2X0XS.N.N.S./.2X1X'.'..XW.`.>X'.'.'.=X'..XW.E..X.XE..XOX3X",
"3X3XOX1X1X1X1X@X3X4X;X;X-X1X@X1X#X'.=X=X1X1X=X'.OXOXOXOX.XOX.XOXOX].<X/.D.N.N.iXgX|.3XOX|.OXOXlXrX<X<X,X:X;X4X@X.X@X1X>X-X-X>X>X",
"=X'.OXOX'.OX'.OXOXOX'.OX'.OXOXOXOXOX].'.'.OX@X'.E.1X=X].'.=X=X+X|.#X9XS.u.u.S.sX,XOX.X[.-XOXXXxXFXc.1X4X7XH.1X1X4XR.W.I.'.[.].-X",
"OXOXOX'.OXOXOXOX'.OXOXOXOXOXOX'.OXOXOXOXOXOXOX'..XOXOX.X.X2X9XsXsXgXS.u.u.iX0X|.]..X@X'.2X1X_.jXbXzX7X4X'.%X4X=X=XI.W.I.'.2X].=X",
"'.OX'.OXOXOX'.OXOXOXOXOX'.OX'.OX=XOXOX.XOX.X.X'.].=X'.{.8X(.iXN.G.G.G.N.A./.,X4XOXOXOX.X1X3X_.}.jXCXqX>X{.T.|.-X>X1XoX.X'.'.1X1X",
"OXOXOXOXOX'.OXOX'.1X'.OXOXOXOXOX'.OXOXOXOX'.OXOX'.1X2X0XiXG.u.J S J y.F.).+X'.@X1XOXOX.X'.1X'.'.qXxXxXhXhXcXxXY.=X1XOX@X#XOX'.2X",
"OX'.OX'.'.OX'.OXOX'.OX'.OXOXOXOXOXOX.X'.'.=X1X@XoX.XU.^.F.{ F b b b t.iX*XOX.XI.1X_.'._._.'.1X1X%XhXmXfXzXJXCXv.:X5X5XOXOXOX.X.X",
"OXOXOXOXOXOXOXOXOXOXOXOXOX'.OX'.OXOXXX].=X=X,X%XsXA.V.D.N.#.I b z + C S.}.OX2X'.1X'.'.OXOX'.'.OX=XrXbXSXFXIXKXbX X3X5X=X_..X@X_.",
"OX'.OXOXOX'.'.1XOX'.OXOX'.OXOXOXOXOX.XOX1X+X/.sXF.vX .) P P b b j + B uX&X_.=X4X'.@X1X+X'.OXOXOX'.].hXZXPXUXPXHX~.I.;X:X[.'.3X_.",
"OXOX'.OXOXOXOX'.OXOX'.OX'.OXOXOXOX].OXOX@XXX(.aXvX&.%.! , z c j o t M.0X1X.X`..X'.1X1X'.'.OX@XOX.XOXqXbXFXHXKXZXNXqX[.,X|.=X3X1X",
"OXOXOX'.OX'.OX'..X_.OX1XOX'.OXOXOX`.'.1X].^.Z.G.aXvXh.~ Y , - + O B iX8X'.@X=X_.OXOXOX'.OXOX'.OX'.+X<XcXBXKXDXDXAXsX[.;X].U.+X3X",
"'.OXOXOXOXOXOXOXOX'.OXOXOX'.'.OX_.=X4X&X^.C.C.pXg.s.r.~ Y Y > o @ Z iXT._.1X'.OX'.OX'.1X'.OXOXOX@X'.`.wXbXZXnXnXAX).'.3X+XY.E.OX",
"OX'.OX'.1X'.OX'.OXOXOXOXOX.X.X.X_.1X<XsXG.Z.pXpXf.f.s.i.E Y 1   # y <.(.XXOX[.OXOXOXOX'.OX'.OX'.OXOX'.wXxXBXCXCXxXwXlX4X.XY.E.E.",
"1XOXOXOX'.OXOXOX1XOX'.'.OXOXOXOX3XqXsXF.pXpXg.g.5.5.5.4.D U U * O 5 9.iX&X'.`.@X'.OXOXOXOXOXOXOXOX1XOX$X9XwX/.0X).$X3X4X2X`.`..X",
"'.OX'.OXOXOXOXOXOXOX_.'.OX1X1X'.-XL.F.Z.pXg.g.4.5.3.3.2.=.x $ $ =.;.V D.9X1X[.@X'.OXOXOX'.OX'.OX_.'.1X=X'.-X=X1XI._.;X>X<X,X:X1X",
"OX'.OXOXOX'.'.OXOXOX.XOX1X=X%X}.(.C.s.pXpXg.4.3.4.2.-.*.6 2 7 p 4.9.9.S.qX=X'.OXOXOXOX'.OXOXOXOX1X'.=X1X;X5X4X1X3X5X4X-X>X>X1X5X",
"OXOXOXOXOXOXOXOX'.OX.XOXOX|.9X(.C.C.Z.g.g.6.5.5.4.-.*.6 2 2 *.,.4.,.C.(.XX'.1X_.'.OX'.OXOXOX'.OXOX'.'.'.'.OX1X_.'..X.XOX2X=XOX.X",
"OX'.OX'.OX'.OX'.1XOXOXOXOX&X(.iXs.pXpXa.5.5.5.2.-.*.6 3 2 p 4.,.s w.sX{..X'.1X'.OXOXOXOXOX'.OXOXOX_.#XOX[.[.Q.!.1X.XW.R..X.XR.W.",
"5XOX`.`.@X3X].{.`. X`.OX#XeXiXw.pXpXg.5.7.4.2.-.p 6 3 3 p 4.2.a 9.iXwX|.1XOX'.OXOXOXOXOXOXOXOX'.OX'.OXOXOXOX'.OX'.OXOX'.OX'.OXOX",
"+X`.'.OXOXOX1X'..X.X#XOX'.wXaXd.g.f.5.5.5.3.-.*.6 6 2 p 2.4.u $ < y.iX9X'.'.-XOXOXOXOXOXOXOXOXOXOXOX'.OXOX'.OXOXOXOXOX'.OXOX'.OX",
"`._.OXOXOXOX1X=X=XOXoXOX].9XdXu.s.5.5.5.3.-.*.6 3 2 p ,.4.;.4 * Y ^ F.wX-X'.OX_.'.'.OX'.OXOX.X_.OXOXOXOX'.1X'.OX'.OX'.OXOXOXOXOX",
"XX].OXOX.X.XOX4X>XOX.XOX-X7XsXS.,.,.5.3.-.p 6 2 . 3 h ,.;.u 5 4 , G A.Q.6X3X.XXXOXOX1X'.OX'.'.OX'.OX'.OXOXOXOXOXOXOXOXOX=XOX'.OX",
"@X1X'.OX.XoXOX1X:XOX.X1X=X'.qXsXs.w.2.-.p 6 2 3 . X y d a a ;.=.t e.uX$X'.oX_.|.OXOXOXOXOX].OXOXOXOXOX'.OXOXOX'.OXOXOXOXOX'.OXOX",
"3X'._._.OX@XOX'.3XOX'.1X=X'.$X0XaXD.0.a 7 3 . . 5 y t 9 9.s.3.-.=.0.S.0X&X9X9X<X[.'..X@X1XOX'.OX'.OXOXOX'.OXOXOX'.OX'.OXOXOX'.OX",
"=X`.W.XX].>X=X'..X[.|.-XOX'.].|.hXdXC.e.s 5 X r w.V.w.C V d.6.4.-.a 0.J.J.A.C.(.8X{..XOXOXOXOXOXOX'.OX'.OX'.OX'.OXOXOX'.OXOXOXOX",
"|.U.W.E.-X>X;X@XW.{.tX[.OX.X#X'.-XeX0XdXD.:.h w.uX0X^.A x 0.a.a.5.;.s ,.w.i y w.0X8X].OXOX1XOXOXOXOXOXOXOXOXOXOX'.OXOXOX'.OX'.OX",
"-XoX.X'.OX1X=X_.hXfXbXcX_.3XOXXX.X.XOX$X8XL.P.Y.,X'.T.l.V 9 s V.6.4.a 5 X X 3 h M.uX*XOX'.[.'.OXOX'.'.OX'.OX'.1XOXOXOXOX'.OX'.OX",
"1XOX@X1X#X1X'.T.VXJXJXCXT.1X'.OX].-XOXOX+X X{.OX]._.+X~.w.x B 9.p.9.t 4 5 7 7 6 d V.^.}.+X=XOX@XOXOXOXOXOXOXOX'.'.OXOX'.OXOXOXOX",
"1XOX1XOXOX;X XjXUXIXIXHXxX[.1X=X'.OX1XOX@X'.'.=X-X_.+X7XsXD c 9 V t 4 t a ;.*.6 3 y p.dXqX'.OXOXOX'.'.OXOXOXOXOXOX'.1XOXOXOX'.OX",
"].[.].`.3X;X9XAXIXIXIXPXAXQ.XX1X.XOXOX.X.X_.'.'.@X.X'.6X0Xm.v j 4 4 t a -.3.-.p X . x w.uX&X1X_.OXOXOXOXOX'.OX'.OXOX'.OXOX'.OXOX",
"U.T. X_.3X1XH.ZXIXIXIXJXAXbXhX,XOXOX].'._..X.X@XOXOXOX-X&X^.f j O t s 4.7.3.=.5 o # # r C.0X`.@XOXOXOX'.OXOX'.OXOX'.OX'.'.OX'.OX",
"I.E.]..XoXoX(.mXIXLXLXFXJXLXMXjXOX'.=X-X=X'.OX=X[.OXOX.XrX(.f 8 B s ,.5.3.-.u 4 @ o o i S.0X[.1X'.OXOXOX'.OXOXOXOXOXOXOXOXOXOXOX",
"=XOX5XOXkXcXbXJXLXLXLXGXGXGXDXbXqX+XOX3X1X=X'.'.-XOX'.{.(.S.i C 9.p.5.3.;.u 4 + @ X s C.).*XOXOXOX=XOX'.OXOXOX'.OX'.OXOXOXOX'.OX",
">X5XlX%X(.CXJXLXLXGXUXLXGXGXHXDXxXwXI.OX'..XOX.XOX_.#XrXuXt.v e.6.g.f.2.u 5 @ O @ B s.0X&XOX.X2XOXOXOXOX'.OXOXOXOXOX'.1X'.'.OXOX",
"[.3XoXwXbXmXZXVXCXCXAXGXGXKXmXmXbXjXeX>X;XOX_..X`.1XOX(.M.V e.pXyXg.4.h O $ + + i C.0X%X[.-X2X'.OX1X4X;X-X'..XkXoX@X1X;X4X4X=X_.",
"].3XW.hXmXDXDXMXMXnXnXGXGXKXnXmXDXbXjX/._.OXOX'._.1X1XwXA.e.d.aXiXp.u 4 + + O y V.L.&X#XOX1X=X_..XOX1X1XOXR.R.R.R.oX.X@X3X3X.XU.",
"`..XY.dXZXKXDXDXZXmXnXKXKXnXmXmXDXmXMXjX8X1X1X1X@XOX'.rXgXuXaXg.C.V 4 $ @ + i D.0X{.[.'._.].].`.T.].1X1X.XU.`.{.|.[.U.'.1X-X|.T.",
"_.#XE.wXNXBXbXNXNXBXBXNXNXNXNXNXNXBXbXxXjX&X[.'.@XOX_.`.&X).yX<.V 9 + + @ y C.0X%X'.@XOXOX-X'.+X`.'.=X1X.X_.[.>X:X]..X.X1X=X'.`.",
"4X4X=X].$X*XQ.`.9X9X8X8XQ.$X&X}.kXE.9X9X&XoX.X3X=X-X].'.'.XX(.A.V r @ O y V.gX<X'.;X1X1X1X>X=X1X.X1X=X]._._.'.;X;X=X.X_.=X=XOX.X",
";X4X4X5X_.@X3X4X>X'.=X=X1X1X=X>XkX.X4X;X=X1X'.6X=X-X1X1X=X=X8XgXS.A r y V.0X<X+X=X1X1X1X1X4X4X@X3X1X;X-X-X1X4X4X4X3X1X1X=X4X3X5X",
"].].#X$XU.Q.$X%X`.|.`.]..XoXXX$X$XXX@X.X.XoXoX+X`.`.R..X@X=X].|.gXZ.e.l.^.9XY.W.U.{.{.E.{.,X$X!.+X$X{.%X+X-X+X$X$X].+X].{.Q.+X#X",
"A.x.v.b.z.B.z.z.P.x.x.x.v.c.z.z.yXC.z.z.z.z.j.z.yXv.P.T.T.}.].OX,XT.^./.K.K.J.v.P.P.J.v.C.J.x.z.x.x.l.z.P.v.v.l.V.x.P.v.z.l.x.x.",
"J K J J i.i.J J J K K L K J S S r.r.H H H K G J t.J J J i.h.H W i.i.u.J P r.h.r.i.t.r.i.t.S J L L L L J J J #.S $.$.S K K r.L L ",
"~ E ~ Q ) { ) ) ` W ` / / | ` W ] | | ] [ ] / ^ } _ ` Q / ..] _ _ / ` Q ` O.+.+./ _ / ] _ W ( ..| | / / ` ` ) ` W Q  .X./ ` { ^ ",
"| E  . .( ` _  .` { `  .O.O. .~  . ._ ` { [ ..[ X. .~ ~ ( { h.h._  .( Q  .| | | Q ~ (  .~ ~ ~  .| [ [ [ [ h.o...O.O.O. ._ { { { ",
"c c c c k c j 8 j l c 9 0 q j - - k - : : j x 0 j - - - - n n N k k k j j k r n : ; : k j l l x c l l k x c 0 0 0 0 k j z x c 5 ",
"N B f q.0.0.0.0.N m M v 9.0.0.>.>.>.Z z , b 9.w.>.>.>.q.B z z c f 0.:.0.q.>.g v c m B >.0.0.:.<.V b ; z B 0.>.0.A q.A n M l C 0.",
"w A v.^.L.(./.(.0.c m Z A.(./.~./.K.w.l & N C./.~.~.~.L.p.l % M z.uX~.~.^.~.V.N T e m.~.~.^.P.(.V.B & e u.^./.~.^.).v.B , % D ^.",
"% k.Q.2X,X,X'.3Xl.x ; D ).4X6XU.-X2Xb.c < A /.@XI.XX1X,XA.l % b T.}._.'.=X#X~.i e M v.lX@X{.I.XXT.f % m C.+X3XI.Y..X$X:.w % V.7X",
"w j.oX3X;X2X.XlXb.r > D Q.5X5X.X>X4XH.t m :.&X5X].,X5X5X^.x l A .X+X3X4X4X@XW.g w N ^.lX5X:X1X5XlXg , c J.5X5X X{.5X5X8.j , A.lX"
};
