/* XPM */
static char *_045e37e7edc43d3a15d3ef09db83a82kvqC6z0wt3JdGpFW[] = {
/* columns rows colors chars-per-pixel */
"64 64 256 2 ",
"   c #0A0602",
".  c #320714",
"X  c #32132A",
"o  c #470517",
"O  c #58071A",
"+  c #531213",
"@  c #781505",
"#  c #66061C",
"$  c #780616",
"%  c #740F13",
"&  c #732D0B",
"*  c #550824",
"=  c #680828",
"-  c #7D0625",
";  c #7C052A",
":  c #770728",
">  c #760C2D",
",  c #582B2D",
"<  c #6F3B38",
"1  c #48251C",
"2  c #3A4C3B",
"3  c #48473B",
"4  c #514C36",
"5  c #65453B",
"6  c #6D482B",
"7  c #736028",
"8  c #513B50",
"9  c #683D46",
"0  c #743A4D",
"q  c #3A494E",
"w  c #3B546A",
"e  c #366979",
"r  c #1B6A77",
"t  c #4A4547",
"y  c #574747",
"u  c #484855",
"i  c #574754",
"p  c #495459",
"a  c #52544D",
"s  c #664548",
"d  c #6D4B51",
"f  c #505469",
"g  c #4F6D72",
"h  c #7B6C77",
"j  c #6A7679",
"k  c #767276",
"l  c #76726B",
"z  c #6B4461",
"x  c #98061A",
"c  c #9B141D",
"v  c #870E11",
"b  c #BD011C",
"n  c #B90218",
"m  c #A91115",
"M  c #922E0E",
"N  c #B63A17",
"B  c #B32F0D",
"V  c #860627",
"C  c #970826",
"Z  c #971424",
"A  c #830431",
"S  c #861722",
"D  c #A60726",
"F  c #BD0222",
"G  c #B60329",
"H  c #B20D2D",
"J  c #B43424",
"K  c #8A322A",
"L  c #C4021C",
"P  c #C9031C",
"I  c #CF1515",
"U  c #EB1C13",
"Y  c #C72814",
"T  c #DA2719",
"R  c #C83C1B",
"E  c #D3330A",
"W  c #EB2A04",
"Q  c #F42402",
"!  c #F72904",
"~  c #F53A04",
"^  c #EB310D",
"/  c #C40123",
"(  c #C3012A",
")  c #CA0328",
"_  c #D0072B",
"`  c #CA2825",
"'  c #FB3C20",
"]  c #B5490F",
"[  c #BB4227",
"{  c #915721",
"}  c #C94808",
"|  c #DA5607",
" . c #D24A11",
".. c #FB4905",
"X. c #E85807",
"o. c #FD5402",
"O. c #FE5C01",
"+. c #F85907",
"@. c #EC4B11",
"#. c #FC6301",
"$. c #F86504",
"%. c #FE6310",
"&. c #CC4B31",
"*. c #EA622D",
"=. c #96394A",
"-. c #CC3A4F",
";. c #986A58",
":. c #97725C",
">. c #8B6D57",
",. c #A46F59",
"<. c #B75169",
"1. c #8B6B69",
"2. c #996B67",
"3. c #897468",
"4. c #987469",
"5. c #856D77",
"6. c #997575",
"7. c #946C73",
"8. c #A66A69",
"9. c #A47368",
"0. c #BB6979",
"q. c #A37374",
"w. c #AF6D71",
"e. c #A94B54",
"r. c #CC4A4C",
"t. c #C56D56",
"y. c #C75168",
"u. c #C66771",
"i. c #FC7E72",
"p. c #638275",
"a. c #5C836D",
"s. c #35817F",
"d. c #A78F6B",
"f. c #D48B5B",
"g. c #387589",
"h. c #3A7698",
"j. c #366E8B",
"k. c #1E7B9C",
"l. c #466B88",
"z. c #437488",
"x. c #517393",
"c. c #6A7587",
"v. c #757484",
"b. c #71728D",
"n. c #487BA9",
"m. c #5E6896",
"M. c #876C87",
"N. c #BB7686",
"B. c #BB758F",
"V. c #C3748B",
"C. c #3A889B",
"Z. c #318B94",
"A. c #0590BF",
"S. c #0F8FB8",
"D. c #398AA7",
"F. c #3791A9",
"G. c #398BB8",
"H. c #2999B8",
"J. c #3695B7",
"K. c #2C8DAD",
"L. c #179DB1",
"P. c #468798",
"I. c #5A829B",
"U. c #79849A",
"Y. c #4586A6",
"T. c #448AB5",
"R. c #4991B0",
"E. c #6B97B2",
"W. c #0A95D0",
"Q. c #3798C6",
"!. c #389CD6",
"~. c #2A99CC",
"^. c #04ADDD",
"/. c #0BADDC",
"(. c #07A9D5",
"). c #18A9D9",
"_. c #03B3DD",
"`. c #07B5D9",
"'. c #18B4DA",
"]. c #13ACCA",
"[. c #29A5C9",
"{. c #35A6C9",
"}. c #26A7D8",
"|. c #37A6D9",
" X c #31B8D7",
".X c #03ACE4",
"XX c #0BACE3",
"oX c #03ADEB",
"OX c #0CACEC",
"+X c #09A5E7",
"@X c #13ACE4",
"#X c #17A9E9",
"$X c #02B3E4",
"%X c #0CB3E4",
"&X c #01BAE3",
"*X c #02B1EC",
"=X c #0BB2EB",
"-X c #01BAEC",
";X c #0AB9ED",
":X c #14B2E5",
">X c #03AEF3",
",X c #0BACF3",
"<X c #03ADFC",
"1X c #09A7F9",
"2X c #14A9F4",
"3X c #02B3F3",
"4X c #0BB3F3",
"5X c #01BAF4",
"6X c #01B3FC",
"7X c #01BAFD",
"8X c #0AB4FA",
"9X c #14B4F8",
"0X c #26AAE7",
"qX c #2EB1E9",
"wX c #1B9EED",
"eX c #4A94C7",
"rX c #4EA9CE",
"tX c #70B1D3",
"yX c #4EAEEA",
"uX c #6CAEE4",
"iX c #01C2F6",
"pX c #0AC3EB",
"aX c #2BCCF3",
"sX c #54CAF4",
"dX c #6DCBF0",
"fX c #64CAD4",
"gX c #B9889A",
"hX c #B2878A",
"jX c #B691A6",
"kX c #9F9AA0",
"lX c #C6899A",
"zX c #D2A899",
"xX c #E4D0B7",
"cX c #8CC3D8",
"vX c #8FD3F3",
"bX c #B3DAF1",
"nX c #87E5FB",
"mX c #95E6FA",
"MX c #8BF8FF",
"NX c #A9E8F8",
"BX c #B7E6F9",
"VX c #B3F0F6",
"CX c #ADD1CF",
"ZX c #C6DAF6",
"AX c #CCD8ED",
"SX c #C6E4EA",
"DX c #C9E7FB",
"FX c #D8EBF7",
"GX c #C6F8FA",
"HX c #D8F4FB",
"JX c #D6F0E9",
"KX c #E5E9FA",
"LX c #E7FBFB",
"PX c #F6F9FA",
"IX c #EFF0EF",
"UX c #EEEDD5",
/* pixels */
"0 k.=X6X5X=X5X5X).w s p [.7X7X=X&X6X4Xj.9 q L.-X5X9X>X6X2XC.u 8 k.=X7XXX2X<X<X].2 7 q +X7X&X>X<X<X0Xe 5 q S.5X6X#X<X<X8XD.3 s f ",
"8 e '.-X*X^.^.oXH.w 5 4 L.;X3X.X/.5X#Xg < 8 K.%X$X$XoX6X'.P.y 9 j.}.-X_.%X<X,XH.3 6 p wX;X`.oXoX$X}.g < 9 D.XX-X(.&X3X#Xn.4 s f ",
"< g {.}.qX}.}.|.h.a 5 a P.}.0X}.[.}.Q.u K < h.{.}.[.}.0XQ.g 5 0 f eX}.].).wX|.D.t 6 i n.|.].}.|.'.J.f < 0 l.[.'.L.[.}.!.x.< 9 f ",
"y p l.x.h.h.h.l.f u y a g x.n.h.e n.j.i 6 d w C.h.h.h.h.z.a y d f l.k.C.h.n.x.e i 5 z l.n.g.Z.h.C.j.p < d e h.g.Z.Z.h.x.f 5 a p ",
"y t 8 8 t 2 8 8 8 y y t t 8 8 q 2 t t 9 8 8 8 w t 8 t 3 3 4 3 t 4 3 q q 8 8 8 8 4 , 4 8 8 q q 3 8 , 3 3 a 2 q q 3 8 8 8 3 2 4 2 ",
"5.1.2.;.;.;.,.,.;.1.3.5.1.2.2.>.;.;.2.2.1.1.5.7.1.>.;.;.;.;.1.3.>.;.>.1.2.;.;.;.>.>.;.;.;.1.:.;.8.1.1.>.l >.2.;.;.8.8.2.>.>.>.>.",
"6.6.9.9.4.4.q.9.8.6.6.6.6.q.6.7.q.4.9.9.4.9.w.8.4.6.6.6.8.9.6.6.4.,.9.6.6.4.2.q.q.6.4.8.q.6.6.9.8.8.q.q.q.w.q.4.2.7.6.q.9.q.4.9.",
"h h k j c.c.v.j l h l l 3.k k c.b.c.l l k 1.1.1.k c.c.c.k l l l v.7.1.j c.j j b.v.b.h l k b.k l k h 5.v.h 7.1.l p.j j k h 5.5.h ",
"G.D.C.P.C.P.C.C.P.Y.n.n.Y.D.C.D.n.D.P.Z.F.D.I.P.C.D.J.G.n.C.Y.D.D.Y.n.n.Y.Y.D.K.T.D.D.P.P.P.Y.T.C.C.D.T.Y.P.P.Y.T.D.D.C.C.Y.P.Y.",
"#X}.).).'.).).).'.@X'.#X#X}.}.[.0X].].pX#XOX#X).'.].).).}.@X).2X].'.}.0X}.).).'.).#X:X:X'.}.#X#X).'.@X#X'.].[.).wX#X@X/.'.%X:X:X",
"7X6X<X6X;X5X5X<X<X6X5X5X6X3X5X-X#X8XiX5X<X<X6X&X_.;X>X3X5X4X>X7X5X7X7X5X*X5X5X5XXXOX*X-X-XoX>X<X5X3X3X6X5X-X3X<X1X1X8X5X5X5X3X6X",
"-X5X<X<X5X*X5X6X<X3X$X-X>X>X5XiX+X*X&X9X1X<X=X.X<X7X>X6X>X+X5X>X,X<X5X5X*X3X3X<X$X$X$X-X-X-X*X7X5X5XoX,X,X=X5X7X1X<X7X-X.X$XoX>X",
"`.$XoXOX$X$X$X*X-X_.`./.OX2XOX&X@X&X-XoX=X%XD.+ m.[.%XoXOX@X.X1X+X,X*X*X$X-X-X*X.X.X+X,X,X3X*X*XpX$X.X/./..X$X&X3X3X*X$X_._.*X4X",
"`.^.+XOXXX/./.XX.X/././.@X+X.X_.(.^.=X).Z.1 m U B O l.).OXOXXX_.*X*X*XOX+X@XoX*X=XXX#XwXwX2X^._.`.^.XX%X%XOXXX@XXXXX$X/.^./.$X*X",
"4XOX2XOXOXOXOX=X-X*XoX4X*X-X$X/.yX0XC., c U U b G b c X h.}.:X_.;X=XoX,X2X@XoX-X$X.XXX@X,X.X_.`.@X,XoXoX>X>XoX$X`._.$X=X_..X-X5X",
"6X5X3X*X3X3X5X-X5X3X<X>X*X:XqX|.E.+ B ^ I P b L L / ( P m 1 z.|.qX@XoX*X-XOX$X-X5X>XoX<X6X5XpXaX9X2X2X,X2X<X6X-X&X*X<X,X,X,X<X1X",
"oX*XoX*X*X*X*X*XoXOX^.5X|.rXE.+ M U I I L ( ) L ) L / F b n Z 1 b.rXrX).$X-X.X5XoX,XoX7XiX`.rXPXLX{.3X6X=X.X4X*X6X_.(._.oX+XOX4X",
"*X*X*X*X*XoXoX*X3X9XOX0XE., % W I _ ( b L F / L ) ` &.r.x G G F Z 1 m.rXyX^.oX^.#X3X6X,X5XaXvXPXIXfX9X7XoXOXoX>X<X^.`._.*X4X,X>X",
"*X*X*X*X*X*X*X*X*XoX$XQ.v W L G _ L b ) ) b L G n &.xXd.      $ n F D . c.eXuX#X6X.X_.:X].fXPXPXPXGXqXoX4X}.@X8X<X-X$X.XoXoXoX6X",
"oX*XoX*X*X*XoX*X_..X>X[.M o.^ ` _ / F / ) ( ) / _ I *.,.. . . .   $ m P x O x.tXyX(.dXfXfXCXPXKXIXHXvXqXqXdXdX+X>X>X-X*X-X$X*X4X",
"*X*X*X*XoX*X*X*X*X>X9XQ.M O.+.o.E T ) F F L ) P F n L n C A - # . .   # F / C o m.tXcXHXPXPXKXFXFXJXHXtXcXHXNXQ.1X7X7X*X=X-X$X.X",
"*XoX*XoX3XoX*XoX>X3X.XJ.M +.+.$.O.o.~ T / P L / G _ / L L ) G > ; = .   v _ L L m O I.~.vXAXFXHXDXKXIXCXSXLXSXvX#X5X7X4X.X*X-X^.",
"*XoX*X*X*X*X*X*X/.*X-XH.& } X.$.+.| %.X.^ T _ _ L L ( _ ) b F n C = # a f.u./ / G F x # c.Q.dXbXGXHXJXLXLXJXLXGX[.^.<X<XOX*X5XoX",
"*X*X*X*XoX*XoX*X-X*X=XQ.+ K J X.} M *...#.o.^ R _ P n F / / L ) ) H v d.xXzX-.F / P P / x O c.~.tXbXBXBXDXHXSXBXnXqX+X2X+XoX6X3X",
"*X*X*X*X*XoX*X*XoX-XXXQ.& +.~ M & 6 d.] | $.#.o.~ T P P F F ( / ) / F r.f.f.*.n ) / F / P / x % x.eXuXmXVXDXAXSXVX XXX<XOX/.=X5X",
"oX*X*XoX*X*X*X*XoX*X>X~.& ..~ @.Y t d.;.B #.#.O.+.+.~ T _ _ n ) L L L / I n L L L / / F F / / L v : l.yXBXBXCXbXVX{.OX6X-X(._.oX",
"*X*X*X*X*XoXoX3X*X5XoXQ.@ Q Q Q E lXxX4 M } X...+.o.O.o.W T P n ) / / L / ) / ( L L P / ( ) / ) G P % R.NXmXmXBXdXqX;X6X$X(.'._.",
"*XoX3XoX*X*X*XoXoXOX=XG.v ! ! Q Q i.xXf.v S B | X.O.X.%.#.o.@.T L P ) ( L b F ( / / ) / b b L P P U v H.|.qX}.qXaX'.6X6X4X@X%X.X",
"*XoXoX*X*X*X*X*X*X>X6X~.@ Q Q Q Q Q *.*.^ ! @.K B  .X.o.o.#.o.+.@.E I / ) / / L / F F b L _ I I T m o W.1X7X2X*X^.+X<X<X2X2X,X5X",
"*X*X*X*XoX*X*XoX*XoX3X~.v ! ^ B Y Y Q Q ! ..+.$.N X K  .| #.#.@.o.o.@.T I F ( ) ( / L I T _ ` m : : o W.8X6X7XoX7X5X6X1X1X1X<X7X",
"*X*X*X*X*XoX*X*X*X$XOXG.@ ! Y * V c Y E ~ +.o.X.w.d.d.@ J @.} *.*...+...~ ^ I L / _ I T I c V : A $ o A.>X1X6X.X*X$X_.*X,X>X*X$X",
"oX*X*XoX*X*X*X*X-X.X,X!.@ Q T 0 u.D A c ` Y o.E kXUXzX{ R m v 7 ;.{ X.o.o.O. .T E T I D - = : V = # . W.:XL.0X`.*X&X`._.&X$X_.`.",
"7X*XXX=X*X5XOX@X).+XOXQ.v ! R d jXjXu.G v c H J f.zXkX] ....B b.d.7 ] o.+.+.$.o.@.C A ; : = = # O O . A.>X*X$X,X*X*X*X*X*X*X*XoX",
"=XXX.X*X*X3X*X>X$X*X$XQ.@ ! I = y.lXB.hXu.F c Z I B N } $.o.E xXxX7 M E | $.#.+.} V A A : O * o = : . A.*X*X$X>XoX*X*XoXoX*X*X*X",
"XX.XoX*X$X-X3X>X5X5X&XH.@ Q T = C x y.gXjXgXu.H S M ] @.$.+.o.f.zXt.B B J R | +.J ; = * O O = ; ; - O W.4X*X$X>X*X*XoX*XoX*X*X*X",
".XOX*X*X*X$X*X3X,X.X.XQ.@ Q T = D V V G <.gXV.lXu.m S H ] | ..E  .*.Q Q @.R ] ] M O * O # # ; A A - o S.>XoX$X>X*X*X*X*X*X*X*XoX",
"-X3XoX*X$X-X-X>X2X1X>XQ.v Q B 0 N.G C C C c <.B.B.jXN.G Z K [ E W ! ..X.$.$.| E M * = ; A : : : : V o A.>XoX$X4X*X*X*X*X*XoX*X*X",
"5X*XXX$X$X*X*XoX$X5X6X~.@ Q Y d gXlX0.n C V V m y.gXB.hX<.H D Z m ^ @.O.O.#.#.#.J A ; V - : > ; : - o A.>X.X$X>X*X*XoX*X*X*XoX*X",
",X%X_./.OX<X3XoX$X.XoXQ.@ ! Y $ -.V.gXgXV./ Z V x x y.lXB.jX0.n S J N | +.o.O.+.R V ; V - : : : ; - o A.>X$X$X>XoX*XoX*X*X*X*X*X",
"+X/.`._.1X1X<X5X(.#XW.Q.@ Q ! m - x y.gXB.gXV.G C V v D y.N.gXjX0.G D M ] X.o.$.R V : : V : A V ; A o A.3X*X$X>X*X*X3XoX*XoX*X*X",
"3X-X$X.X*X3X>XoX XfXdX{.o B ..~ Y [ # x y.V.B.jXB.F Z C V D <.N.B.jXV.D % ] #.O. .; ; A - ; ; - : - o A.oX*X$X>XoX*XoX*X*X*X*X*X",
">X-X-X5X4X3XoX).NXPXPXcXH.c.{ B O.X.@.&.$ C r.N.B.jXB.H m x C D <.N.V.jXk ] %.#.R ; : A - ; ; - : - o A.3X*X$X>X*X*X*X*X*XoXoX*X",
">X*X5X*X>X<X#XfXVXPXJXGXdXqXA.U.M } #.X.| J > D r.0.B.jXV.H D C V D y.V.=.[ +.O.R ; ; ; - : ; - ; - o W.>X*X$X4X*X*X*X*X*XoX*X3X",
"@X+XOX+X5X<XqXmXPXUXIXLXVXeX/.|.E.U.M | $.$.| B V C y.B.hXkXhXL D V S D c [ o.$.R ; ; A - ; A - ; - o A.oX*X$XoXoX*XoX*X*X*X*XoX",
"/.).@XXX5X3XwXBXPXKXKXJXGXvXvXdX8XrX#Xb.M ] #.+.| B % D <.u.jXjXu.H D V + N o.$.R A ; ; ; ; A - ; - o W.>X*X$X>X*X*X*X*X*X*X*X*X",
"^.%XOX.X&X&X~.bXIXPXKXJXFXLXGXPXsXdXDXcXE.U.& E #.%.|  .- C y.<.lXjXB.H ; Y ~ o. .; ; A : ; ; ; ; V o A.oX*X$X>X*XoX*XoX*XoX*XoX",
"oX*X5X-X'.sXvXHXKXKXPXGXJXJXFXFXNXbXKXPXDXcXrXU.& ] +.o.| J ; Z e.u.V.jXM.c ~ o.R ; ; A ; ; ; - : - o A.3X*X$X>X*XoX*X*X*X*X*X*X",
"1X6XiX&X XNXHXKXKXFXFXJXFXFXFXHXFXFXKXFXJXJXHXrXE.b.& ] +.+.| N = D -.y.=.B ! ..R ; ; ; - > A - ; - o A.>X*X$X>X*X*X*X*XoX*XoX*X",
"2X5X&X XvXbXBXMXNXNXVXJXKXSXbXBXNXBXGXGXJXKXZXmXaXrXrXb.& ] o.+.X.N , D x I Q .. .> A A ; V : A ; % * W.6X$X&X_.pX&X3X<X6X6X*X.X",
"oX-X_.yXBXZXZXbXbXbXSXFXJXAXbXbXAXAXFXGXJXJXAXbXdX].(.qXrXc.&  .+.~ | c = M ! @.J > ; ; : $ A A V O X A.4X^.`.:X_._.-X*X6X5X=X_.",
"XX$X].yXBXAXAXAXbXbXZXDXSXbXbXBXZXZXDXBXbXSXAXZXuX0X$X^.=X:XH.c.& } o.E T W W ..R A ; $ > > ; + X g.~.XX.X(.%XwX+X@XXX$X3X,XXX).",
"$X*X_. XnXmXvXnXnXnXnXvXnXnXnXnXnXvXmXvXvXmXmXmXsXOX1X4X$X$X-X0X[.m.@ B ' U ..o.R ; A A ; # . n.~./.oX>X*X@X$X,X1XOX$X$X>X6X+XXX",
"6X6X<X+X:X'.:X/.#X0X0X}.'.:X0X0X`.'.#X0X0X#X@X4X7X5X2X1X<X4X$X>X5X).(.m.& m ! ..R V V O X P.(.).*X4X<X+XoX2X*X*X<X>X$X.XoX>X*X$X",
"<X<X6X7X.X5X5X7XoX>X3X>X>X6X>X>X&X$X4X6X6X5X3X6X<X*X,X1X>X3X7X5X5X7X*X0X(.I.+ ] &.o . I.].0XoX5X7X>X3X6X7X1X6X6X6X6X5X4X3X6X5X7X",
"=X=X;X:X/.'.%X:X=X#X@X=X%X&XXX:X:X:X-X&X&X$X&X;X(.0X,X4X@X`.(.`.#X2X#X9X0X@XW.kXo S.(.#X,X#X#X#X=X:X/.:X4X#X#X#X%XOXOXOX:X@X=X4X",
"T.G.J.K.R.C.F.F.Q.G.G.G.H.H.K.F.T.G.G.K.F.F.F.F.eXT.Q.K.H.J.R.Z.Q.D.eXK.D.Q.Q.rXE.yX~.Q.T.J.J.C.T.F.D.T.K.H.F.J.Y.G.Q.J.F.F.D.G.",
"j k k j c.c.j j j k k k k j p.g b.v.h h h h k l g c.j j b.M.h 3.v.b.c.j j v.M.b.b.v.b.b.c.j j v.k h k k j j p.j a.a.j j j v.h k ",
",.;.,.4.3.7.3.4.3.>.1.8.8.2.4.:.8.8.8.q.7.7.7.1.6.4.4.:.2.q.7.4.2.2.4.:.:.9.8.<.4.4.2.7.4.>.2.7.9.q.2.2.4.4.3.3.:.:.2.9.2.4.7.1.",
"9.;.,.9.2.4.4.4.4.4.6.q.w.w.9.,.9.9.4.4.7.6.q.6.q.9.,.,.2.6.6.M.4.2.2.;.9.8.8.8.:.:.:.4.2.,.9.9.q.q.6.6.6.M.0.q.w.w.w.9.4.7.6.6.",
"d 8 u i i u t 8 t y i t i 8 t 4 2 t 3 3 3 t i 8 t 3 3 4 3 t u p t u y t y q q t 4 4 4 t y 5 3 u 8 t t t u i 8 8 8 8 y y a t u w ",
"i w j.l.l.l.l.l.f i d p m.l.j.g.g.j.g a 5 p l.h.g.C.e z.f a a i e l.g z.z.j.e p i i f g.j.l.j.h.g i y y g l.l.z.z.z.g p s s f l.",
"s g J.{.!.|.{.|.g y s f R.!.}.[.}.[.h.s 6 z T.|.[.[.{.!.n.y 6 d J.Q.~.[.{.[.R.f =.0 P.[.[.{.Q.|.Y.f < s m.{.}.[.{.[.F.f 5 5 g {.",
"< Z.'.4X2X,XoX4XY.u 5 g }.7X4X(.,X,XH.i < g }.-X(.=X3X,XT.i 5 i ).#XoXoXoX-X[.w 0 0 J.pX=X@X^.OX}.e < d T.OX5X_.(.&X@Xj.9 s Y.9X",
"9 Z.&X6X<X4X&XpXS.q 4 g '.7X7X=X1X<XW.q 9 l.#X7X,X,X6X7X{.u y g $X=X5X6X6XpX].r 9 f {.iX7X,X5X7XpXr 5 s Q.7X7X+X#X3X7Xk.4 5 R.iX"
};
