/* XPM */
static char *new_sky_resized[] = {
/* columns rows colors chars-per-pixel */
"64 64 155 2 ",
"   c #563E3D",
".  c #593C39",
"X  c #613F3B",
"o  c #5A413F",
"O  c #62413E",
"+  c #3F5C6C",
"@  c #3F5F70",
"#  c #36677D",
"$  c #35697F",
"%  c #554343",
"&  c #5B4443",
"*  c #5B4748",
"=  c #544A4F",
"-  c #5C4A4C",
";  c #4D4E56",
":  c #504B50",
">  c #5A4F53",
",  c #4B535D",
"<  c #5C555B",
"1  c #5D595F",
"2  c #624543",
"3  c #634C4C",
"4  c #694E4D",
"5  c #66504F",
"6  c #634F50",
"7  c #645153",
"8  c #605459",
"9  c #61585E",
"0  c #435E6F",
"q  c #575962",
"w  c #5C5B63",
"e  c #585E68",
"r  c #615B62",
"t  c #615F68",
"y  c #57616B",
"u  c #59646F",
"i  c #566572",
"p  c #586773",
"a  c #576977",
"s  c #556A7A",
"d  c #60636D",
"f  c #616570",
"g  c #8E6963",
"h  c #856E6F",
"j  c #846F71",
"k  c #847071",
"l  c #8B7574",
"z  c #8E7877",
"x  c #8F7778",
"c  c #8E7878",
"v  c #326C85",
"b  c #386D85",
"n  c #316E89",
"m  c #4A6D81",
"M  c #4D748A",
"N  c #46738A",
"B  c #537283",
"V  c #437A94",
"C  c #407F9A",
"Z  c #3B829F",
"A  c #1D86AD",
"S  c #1B8AB4",
"D  c #178FBA",
"F  c #3B85A3",
"G  c #218BB4",
"H  c #348FB6",
"J  c #388DB3",
"K  c #2E90B7",
"L  c #3390B6",
"P  c #3193B9",
"I  c #45839D",
"U  c #48849D",
"Y  c #4182A2",
"T  c #1398C9",
"R  c #2996C0",
"E  c #259AC6",
"W  c #2C99C6",
"Q  c #239DCB",
"!  c #2A9BC9",
"~  c #07A6DE",
"^  c #0AA4DC",
"/  c #1EA0D0",
"(  c #1CA6DA",
")  c #18A8DC",
"_  c #22A4D7",
"`  c #04ACE5",
"'  c #0DAEE7",
"]  c #00A6E9",
"[  c #02AEEA",
"{  c #0BAFEA",
"}  c #14ACE4",
"|  c #02B0EC",
" . c #0CB2EC",
".. c #14B5ED",
"X. c #1CB7EC",
"o. c #1DB8EC",
"O. c #00B5F4",
"+. c #0AB5F2",
"@. c #00B8F7",
"#. c #00B7F8",
"$. c #00B9FA",
"%. c #23BAED",
"&. c #2DBBED",
"*. c #33BEEC",
"=. c #2FBEF0",
"-. c #3BC0EE",
";. c #44C3EE",
":. c #4BC5EE",
">. c #55C6EF",
",. c #55C9EF",
"<. c #5ACBEE",
"1. c #40C3F0",
"2. c #53C9F1",
"3. c #5DCAF1",
"4. c #61CEEF",
"5. c #73D2EE",
"6. c #7AD0EF",
"7. c #63CCF1",
"8. c #6DD1F2",
"9. c #74D3F2",
"0. c #79D5F3",
"q. c #84D5F0",
"w. c #8AD7F2",
"e. c #89DAF3",
"r. c #94D7F1",
"t. c #91D8F0",
"y. c #9DDDF1",
"u. c #A2DBF2",
"i. c #ADDDF4",
"p. c #B2DFF5",
"a. c #9CE0F7",
"s. c #9CE0F9",
"d. c #A7E3F5",
"f. c #ADE1F4",
"g. c #B5E1F6",
"h. c #BAE2F6",
"j. c #BCE8F6",
"k. c #BCE3F8",
"l. c #B9E9F9",
"z. c #C3E6F7",
"x. c #C9E5F7",
"c. c #C0EBF6",
"v. c #C3E7F8",
"b. c #CDEBFA",
"n. c #C6EDFB",
"m. c #D5ECFB",
"M. c #D9EEFB",
"N. c #D7F2FD",
"B. c #DEF1FC",
"V. c #E3F3FC",
"C. c #EAF6FD",
"Z. c #EDF9FD",
"A. c #FBF6FD",
"S. c #F3FBFF",
"D. c #FEFFFE",
/* pixels */
"X v #.[ | | | O.R 2 * ; ` | | | | | { 1 & o D @.[ | | ` O.V O o # @.[ | | | O.Q 3 * : ~ | [ | | | | y & O A @.| | | [ @.Z O & + ",
"X n #.` | ` ` O.Q 2 & ; ` | ` | | | | y & o D @.` | | ` O.Z o O $ @.` | | ` | / 2 * : ` | [ | | | | u & o S @.` [ | ` @.Z O & 0 ",
"& q  .@.O.O.O.#.V O - * R $.O.O.O.$.E 2 - o N $.O.O.O.@. .y & & < } O.O.O.| $.Z 2 * & K #.O.@.O.$./ 3 * O m @.O.O.@.@.+.i o * > ",
"7 3 p B B B B B 5 5 - 5 1 M s B B B 1 5 3 5 5 s s B B B i 5 5 > 3 u B B B B B 7 5 - 4 < B B B s B w 4 - 7 5 s s s B B a 5 6 5 5 ",
"& %     . . . . % % % % o   . . . . o o o % o   o o o . . o o % % o   . o . . o & % % o .   .   o o % % % o . . . . . o o o o o ",
"h h h k h h k k h h h h k k k h l z h h f h h h k k k k k k k k h h h k k k k k h k h h h h h h k k h h l f h l k k k l f l k k ",
"l c c z c c z c z z c c c z c z x c x x x x z z l z z z z z z z z z z c z z z z c c z z z z z z z z z z x x x x z z z c z z z z ",
"g g g g g g g g g g g g g g g g g g g g g g g g g g g g g g g g g g g g g g g g g g g g g g g g g g g g g g g g g g g g g g g g ",
"U U U U U U U U U U U U U U U U U U U U U U U U U U U U U U U U U U U U U U U U U U U U U U U U U U U U U U U U U U U U U U U U ",
"O.O.O.O.O.O.O.@.O.O.O.O.O.O.O.O.O.O.O.O.@.O.O.O.O.O.O.O.O.O.O.@.O.O.O.O.O.O.O.@.O.O.O.O.O.O.@.O.O.O.O.O.O.O.O.@.O.O.O.@.O.O.O.O.",
"| ` | | | ` | ` | | ` | | ` | | ` | | | ` | | | | ` [ [ [ [ [ [ ` | [ [ ` | | | | | | ` ` | [ | | ` | | | ` | ` [ ` | ` | ` | | ",
"| | | | | | | | | | | | | | | | | | | | | | | | | | | | | | | | | | | | | | | | | | | | | | | | | | | | | | | | | | | | | | | | ",
"| | | | | | | | | | | | | | | | | | | | | | | | | | | | | | | | | | | | | | | | | | | | | | | | | | | | | | | | | | | | | | | | ",
"| | | | | | | | | | | | | | | | | | | | | | | | | | | | | | | | | | | | | | | | | | | | | | | | | | | | | | | | | | | | | | | | ",
"| | | | | | | | | | | | | | | | | | | | | | | | | | | | | | | | | | | | | | | | | | | | | | [ [ | | | | | | | | | | | | | | | | ",
"| | | | | | | | | | | | | | | | | | | | | | | | | | | | | | | | | | | | | | | | | | | | | | ..;.-. .| | | | | | | | | | | | | | ",
"| | | | | | | | | | | | | | | | | | | | | | | | | | | | | | | | | | | | | | | | | | | | | ] ;.D.C. .| | | | | | | | | | | | | | ",
"| | | | | | | | | | | | | | | | | | | | | | | | | | | | | | | | | | [ | | | | | | | | | | %.e.S.V.4...| | | | | | | | | | | | | ",
"| | | | | | | | | | | | | | | | | | | | | | | | | | | | | | | | | | | | | | | | | | [ [ ] 8.D.Z.S.D.%.[ [ ] [ | | | | | | | | | ",
"| | | | | | | | | | | | | | | | | | | | | | | | | | | | | | | | | | | | | | | | |  .4.9.7.d.S.V.V.V.e.o.-.0.,.[ | | | | | | | | ",
"| | | | | | | | | | | | | | | | | | | | | | | | | | | | | | | | | | | | | | | [ [ [ B.D.D.D.C.m.m.m.D.-.5.D.j.` | | | | | | | | ",
"| | | | | | | | | | | | | | | | | | | | | | | | | | | | | | | | | | | | | | | X.7.0.b.V.M.V.V.m.m.m.V.y.f.C.b.5. .| | | | | | | ",
"| | | | | | | | | | | | | | | | | | | | | | | | | | | [ | | | | | | | | | | [ &.x.V.M.m.m.m.m.m.M.M.m.D.Z.b.C.C.| | | | | | | | ",
"| | | | | | | | | | | | | | | | | | | | | | | | | | | | | | | | | | | | [ [ [ &.p.h.m.M.M.m.M.m.k.k.z.k.m.b.k.z.s...| | | | | | ",
"| | | | | | | | | | | | | | | | | | | | | | | | | | | | | | | | | | | | | | [ &.p.p.M.M.M.M.M.m.i.i.i.i.x.b.u.h.D.%.[ | | | | | ",
"| | | | | | | | | | | | | | | | | | | | | | | | | | | | | | | | | | | | | | |  .*.i.p.z.k.p.k.p.i.p.p.p.g.p.p.g.g.X.| | | | | | ",
"| | | | | | | | | | | | | | | | | | | | | | | | | | | | | | | | | | | | | | | [ { i.i.i.p.p.i.p.p.i.p.p.p.i.i.p.i.X.| | | | | | ",
"| | | | | | | | | | | | | | | | | | | | | | | | | | [ | | | | | | | | | | | | | +.X.X.X.X.X.X.X.X.X.X.X.X.X.X.X.X.| | | | | | | ",
"| | | | | | | | | | | | | | | | | | | | | | | | | | | | | | | | | | | | | | | | | ] | | | | | | [ | | | [ [ [ [ [ | | | | | | | ",
"| | | | | | | | | | | | | | | | | | | | | | | | | | | | | | | | | | | | | | | | | | | | | | | | | | | | | | O.[ | | | | | | | | ",
"| | | | | | | | | | | | | | | | | | | | | | | | | | | | | | | | | | | | | | | | | | | | | | | | | | | | | | | | | | | | | | | | ",
"| | | | | | | | | | | | | | | | | | | | | | | | | | | | | | | | | | | | | | | | | | | | | | | | | | | | | | | | | | | | | | | | ",
"| | | | | | | | | | | | | | | | | | | | | | | | | | | | | | | | | | | | | | | | | | | | | | | | | | | | | | | | | | | | | | | | ",
"| | | | | | | | | | | | | | | | | | | | | | | | | | | | | | | | | | | | | | | | | | | | | | | | | | | [ | | | | | | | [ | | | | ",
"| | | | | | | | | | | | | | | | | | | | | | | | | | | | | | | | | | | | | | | | | | | | | | | | | | | | | | | | | | | | | | | | ",
"| | | | | | | | | | | | | | | | | | | | | | | | | | | | | | | | | | | | | | | | | | | | | | | | | | | | | | | | | | | | | | | | ",
"| | | | | | | | | | | | | | | | | | | | | | | | | | | | | | | | | | | | | | | | | | | | | | | | | | | | | | | | | | | | | | | | ",
"| | | | | | | | | | | | | | | | | | | | | | | | | | | | | | | | | | | | | | | | | | | | | | | | | | | | | | | | | | | | | | | | ",
"[ | | | | | | [ | +.| | | | | | | | | | | | | | | | | | | | | | | | | | | | | | | | | | | | | | | | | | | | | | | | | | | | | | ",
"| | | | | | | | [ ] [ [ | | | | | | | | | | | | | | | | | | | | | | | [ | | | | | | | | | | | [ | | | | | | | | | | | | | | | | ",
"| | | | | | | | -.3.<.:.| | | | | | | | | | | | | | | | | | | | | | | | | | | | | | | | | | [ [ | | | | | | | | | | | | | O.[ [ ",
"| | | | | | | ] y.D.D.b.[ | | | | | [ [ [ [ | | | | | | | | | | | | | | | | | | | | | | | | O.[ | | | | | | | | | | | | | [ [ | ",
"| | | | | | | 2.n.S.S.N.7. .| | | | %.0.8...| | | | | | | | | | | | | | [ | | | | | | | | | | | | | | | | [ | | | | | | | | | | ",
"| | | | | | | b.D.Z.S.D.Z.| [ [ | ] -.D.S. .[ | | | | | | | | | | | | | | | | | | | | | | | | | | | | | | | | | | | | | | | | | ",
"| | | | | | | l.D.C.M.V.m.q.0.w.-.&.g.Z.C.a.%.[ | | | | | | | | | | | | | | | | | | | | | | | | | | | | | | | | | | | | | | | | ",
"| | | | | [ ] l.D.V.m.m.m.V.V.A.:.,.D.Z.S.D.*.[ | | | | | | | [ | | | | | | | | | | | | | | | | | | | | | | | | | | | | | | | | ",
"| | | [ ..6.t.b.C.M.m.M.m.m.m.m.f.f.V.B.B.B.j.-.| | | | | | | | | | | | | | | | | | | | | | | | | | | | | | | | | | | | | | | | ",
"| | | [ ..h.V.B.m.m.M.m.M.m.M.m.V.B.m.m.m.m.D.<.] | | | | | | | | | | | | | | | | | | | | | | | | | | | | | | | | | | | | | | | ",
"| | [ %.r.i.p.h.h.g.z.M.m.h.h.h.g.z.M.m.M.m.x.u.:.[ [ | | | | | | | | | | | | | | | | | | | | | | | | | | | | | | | | | | | | | ",
"| | [ *.k.i.p.i.i.i.h.m.m.i.i.i.i.k.M.m.m.M.p.p.7.] | | | | | | | | | | | | | | | | | | | | | | | | | | | [ | | | | | | | | | | ",
"| [ [ =.p.p.p.p.g.p.g.h.g.g.g.p.g.g.h.g.h.h.p.z.3.[ | | | | | | | | | | | | | | | | | | | | | | | | | | | | | | | | | | | | | | ",
"| [ [ &.i.u.u.u.u.u.u.u.u.u.u.u.u.u.u.u.u.y.y.i.>.[ | | | | | | | | | | | | | | | | | | | | | | | | | | | | | | | | | | | | | | ",
"| | [ [ .. . . . . . . . . . . . . . . . . . . .[ [ [ | | | | | | | | | | | | | | | | | [ [ | | | | [ [ | | [ | | | | [ | | | | ",
"[ [ [ [ [ [ [ [ | [ [ [ [ [ ` | [ [ | [ [ [ [ [ [ [ [ [ [ [ [ [ ` | [ | | [ [ [ [ [ | [ [ [ [ [ [ [ [ [ [ [ [ [ | [ [ [ [ [ | [ ",
"#.@.O.@.@.O.O.O.O.O.@.O.O.O.@.O.@.O.O.@.O.O.@.O.@.@.O.O.@.@.O.@.O.O.O.O.@.O.O.@.O.@.O.O.@.O.O.@.@.@.O.O.@.@.O.O.O.O.@.O.O.@.O.@.",
"P P P P P P P P K L P P P P P P P P L P P L P P P P P P L P L P P P P P P P L P L P P L P P L P P P P P P P P P P L P P L P P L ",
"g g g g g g g g g g g g g g g g g g g g g g g g g g g g g g g g g g g g g g g g g g g g g g g g g g g g g g g g g g g g g g g g ",
"k l l l l l l l l l l l l l k l l l l k l l l l l l l l l l l l l l l l l l k l l l l k l l l l l k l l l l l l l l l l l l l l ",
"c x l c x x c c z z z z c c z c c c x x c l c c c c c c l x c x z c c c c c c z c x x x c z c c c x c x x x x c z c c z c c l c ",
"& * % &   &   & % * % * % o o o o o % * % * *   %   o & % % % * % o o o & o % % * % % & % o o o % % * % *     & o o % % % % % o ",
"6 3 r d u d d t 3 5 3 3 1 d d d d d - 6 3 4 8 d d u d d 3 3 3 6 7 f d u u d 7 3 - 7 6 f d d d d 9 3 3 3 3 t d d d p 9 3 7 3 3 d ",
"* w }  .{  . . .a & * 8 _ O. . .{ +.M 2 * 3 W O.{ { { +.Y 2 - 2 H +.{  .{ +.H 3 * 2 I +.{  . .O.! 3 * * M +.{  .{  .( 8 * & i ..",
"X Z #.[ | | [ @.S . O M @.` | | [ @.T & & p O.[ | | [ O.^ = & 1 { [ [ | | | [ , o 6 ) | [ [ [ [ @.0 o 2 Q @.[ | [ [ #.b . 2 P #.",
"O I #.[ | | ` @.S 2 o M @.[ | | [ O.T & & i O.[ | | | | ^ = & w { | | | | | ` , & 6 ) O.[ | [ [ O.+ 2 3 E @.[ [ [ [ @.v O 2 H @."
};
