/* XPM */
static char *_cc5f520ab824c47a53bbd09aaf1c383aLj54nffDWy30nCA[] = {
/* columns rows colors chars-per-pixel */
"64 64 241 2 ",
"   c #2C1E1E",
".  c #271B1B",
"X  c #31241E",
"o  c #2E1E21",
"O  c #2F2624",
"+  c #2D2A28",
"@  c #3D2D2D",
"#  c #342A2B",
"$  c #393329",
"%  c #3E2C30",
"&  c #3A2C39",
"*  c #3E3336",
"=  c #3B363A",
"-  c #2D2D37",
";  c #47381F",
":  c #412C2E",
">  c #452A2A",
",  c #44332D",
"<  c #49362A",
"1  c #442D32",
"2  c #472B37",
"3  c #453433",
"4  c #4A3436",
"5  c #463837",
"6  c #4B3B34",
"7  c #44333A",
"8  c #4B353A",
"9  c #463939",
"0  c #4C3B3B",
"q  c #523C35",
"w  c #513D3D",
"e  c #543737",
"r  c #502739",
"t  c #4A443B",
"y  c #58463C",
"u  c #4E462B",
"i  c #60423A",
"p  c #3C3743",
"a  c #393951",
"s  c #453442",
"d  c #573C45",
"f  c #54384E",
"g  c #643F4B",
"h  c #663B57",
"j  c #28586D",
"k  c #2C5A72",
"l  c #255873",
"z  c #2A6176",
"x  c #4D4B46",
"c  c #554444",
"v  c #594646",
"b  c #554B43",
"n  c #5A4945",
"m  c #564748",
"M  c #5C4648",
"N  c #554A4A",
"B  c #5B494A",
"V  c #4E5143",
"C  c #59524D",
"Z  c #494753",
"A  c #5B4453",
"S  c #584B50",
"D  c #5E5F5D",
"F  c #415353",
"G  c #614443",
"H  c #624944",
"J  c #62444C",
"K  c #614B4C",
"L  c #6A4748",
"P  c #654A54",
"I  c #665253",
"U  c #6C555A",
"Y  c #6E5C5D",
"T  c #6A5756",
"R  c #735F5E",
"E  c #73565A",
"W  c #73544B",
"Q  c #58615E",
"!  c #76615E",
"~  c #706256",
"^  c #6D5C62",
"/  c #745E60",
"(  c #795E63",
")  c #7D5E6C",
"_  c #586D6D",
"`  c #656565",
"'  c #6B6565",
"]  c #646966",
"[  c #666A69",
"{  c #6C6E6C",
"}  c #6C6767",
"|  c #756263",
" . c #7B6364",
".. c #7C696B",
"X. c #756A6A",
"o. c #6A726F",
"O. c #79716F",
"+. c #6F7170",
"@. c #727373",
"#. c #7D7474",
"$. c #7D7679",
"%. c #7B6370",
"&. c #805E5F",
"*. c #856D6C",
"=. c #896E6D",
"-. c #816A68",
";. c #86726F",
":. c #89716F",
">. c #8B6E70",
",. c #857373",
"<. c #8A7271",
"1. c #877879",
"2. c #917877",
"3. c #377386",
"4. c #2278A8",
"5. c #577E8F",
"6. c #5A7B8E",
"7. c #4C7390",
"8. c #64728B",
"9. c #497FAD",
"0. c #1E93B9",
"q. c #1B87B6",
"w. c #3A92B1",
"e. c #28A0B9",
"r. c #0DA0B4",
"t. c #478DAC",
"y. c #4793B2",
"u. c #4A8FB3",
"i. c #438F9C",
"p. c #1394C7",
"a. c #2F97C6",
"s. c #07AADA",
"d. c #05B3DB",
"f. c #0FA6D1",
"g. c #23A5D8",
"h. c #20AAD7",
"j. c #03AEE6",
"k. c #03AEEB",
"l. c #0AACED",
"z. c #0AA8E3",
"x. c #15ABE6",
"c. c #02B2E4",
"v. c #0AB3E3",
"b. c #01B1EC",
"n. c #0BB2EC",
"m. c #15B2E7",
"M. c #03ADF2",
"N. c #0AAAF5",
"B. c #02B3F2",
"V. c #09B2F4",
"C. c #04B4FA",
"Z. c #16AFF3",
"A. c #28B2E8",
"S. c #3BB9E9",
"D. c #31B9F3",
"F. c #55B8EC",
"G. c #45B6E8",
"H. c #6EBFEC",
"J. c #5CC4E8",
"K. c #6EC4ED",
"L. c #66C4EB",
"P. c #71C4ED",
"I. c #7CC9E7",
"U. c #68C4F3",
"Y. c #75C5F4",
"T. c #9D8585",
"R. c #9B8788",
"E. c #9D9D9C",
"W. c #939393",
"Q. c #A68C8C",
"!. c #A5898A",
"~. c #A59294",
"^. c #AB9595",
"/. c #AC9798",
"(. c #AC9B9B",
"). c #B19999",
"_. c #9CA09E",
"`. c #A1A19F",
"'. c #9CA0A1",
"]. c #A3A3A2",
"[. c #A5A5A5",
"{. c #A3A5A3",
"}. c #A8A8A6",
"|. c #AAABAA",
" X c #A6A8A7",
".X c #ADB0AD",
"XX c #B1B0AE",
"oX c #B4B5B4",
"OX c #B8BDB9",
"+X c #B1AFB0",
"@X c #C6BDBE",
"#X c #C9C1BF",
"$X c #82CCEE",
"%X c #96D6EC",
"&X c #8AD0F5",
"*X c #A9DBE9",
"=X c #B2DEEE",
"-X c #B6DEE8",
";X c #ACDDF4",
":X c #AFDCF9",
">X c #A2D8F2",
",X c #B2DCF5",
"<X c #BBDDF5",
"1X c #B2DDF9",
"2X c #B6D7F9",
"3X c #B4E1EE",
"4X c #AEE1F5",
"5X c #ACE3F7",
"6X c #B3E1F4",
"7X c #BCE1F4",
"8X c #BCE1F9",
"9X c #B2E1FA",
"0X c #A8E2EF",
"qX c #C9C3C2",
"wX c #CECACA",
"eX c #CBC8C6",
"rX c #D1CBCB",
"tX c #D1C8C7",
"yX c #D9D2D2",
"uX c #D1D5D7",
"iX c #C1D7E4",
"pX c #CDEEFC",
"aX c #C6E8F8",
"sX c #D6EBF4",
"dX c #D4EDFC",
"fX c #DAEBFD",
"gX c #D9E8F8",
"hX c #CCF1F6",
"jX c #D4F2FE",
"kX c #DCF3FF",
"lX c #D8F5F7",
"zX c #D2F2ED",
"xX c #E7ECF9",
"cX c #F7EDFF",
"vX c #ECF4FD",
"bX c #E9F9F9",
"nX c #F2F4FE",
"mX c #F3FAFE",
"MX c #FBF9FB",
"NX c #F0F7ED",
"BX c #C6F3DC",
/* pixels */
"'.E.W.`._.E.E.E.E.E.E.E.`.].].].{.{.{.{.{.{.{.{.{.{.{.|.|.{.{.{.`.`.].{.{.{.{.}.|.{.{.{.].].].].].].{.{.{.}.}.|.+X XoX X.X.XoXD ",
"E.$.#.O.X.#.#.#.#.#.#.#.#.#.#.#.#.#.#.#.#.#.#.#.#.#.#.#.#.#.#.#.#.#.#.#.#.#.#.#.#.#.#.#.#.#.#.#.#.#.#.#.#.#.#.#.#.1.X.#.O.#.qXD ",
"E.X./.^.^.^.^.~.^.^.^.^.^.^.^.^.^.^.^.^.^.^.^.^.^.^.^.^.^.^.^.^.^.^.^.^.^.^.^.^.^.^.^.^.^.^././././.^.^.^.^.^.^.^.(.^.^.^.~.rX` ",
"E.' ~.Q.Q.Q.Q.Q.!.Q.Q.Q.Q.Q.Q.Q.Q.Q.Q.Q.Q.Q.Q.Q.Q.Q.Q.Q.Q.Q.Q.Q.Q.Q.Q.Q.Q.Q.Q.Q.!.!.Q.Q.Q.Q.Q.!.Q.Q.Q.Q.Q.Q.Q.Q.Q.!.^.!.Q.~.qX` ",
"|.} ,.=.<.<.<.<.=.=.=.=.=.=.:.:.:.:.:.:.:.:.:.:.:.:.:.:.:.:.:.:.=.=.=.=.=.=.=.=.=.:.:.:.:.:.=.=.=.=.=.=.:.:.:.:.:.-.*.2.*.*.yX[ ",
" XX.*.*.<.<.*.;.<.<.<.<.<.<.<.<.:.:.:.:.:.:.:.:.:.:.:.:.:.:.:.:.<.<.<.<.<.<.<.<.:.:.:.:.:.:.:.:.<.<.<.<.:.:.:.:.<.<.*.2.<...rX` ",
"|.X.1.,.<.;.:.<.:.:.:.:.:.:.:.:.:.:.:.:.:.:.:.:.:.:.:.:.:.:.:.:.<.<.:.:.:.:.:.:.:.:.:.:.:.:.:.:.:.:.:.:.:.:.*.*.>.*.;...2.1.qX[ ",
"+X' 1.*.<.<.<.=.:.:.:.:.<.<.<.<.<.<.<.<.<.<.<.<.<.<.<.<.<.<.<.<.:.:.:.:.:.:.:.:.<.<.<.<.<.<.<.<.:.:.:.:.:.:.<.<.>.*.2.,.*.1.tX' ",
".X} ,.,.;.;.;.;.;.;.;.;.;.;.;.;.:.:.:.:.:.:.:.:.;.;.;.;.;.;.;.;.;.;.;.:.:.:.;.;.:.:.:.:.:.:.:.:.;.;.;.;.;.;.;.;.:.:.:.=.<.1.qX] ",
"}.' ,.<.=.<.:.:.:.:.:.:.:.:.:.:.:.:.:.:.:.:.:.:.:.:.:.:.:.:.:.:.:.:.:.:.:.:.:.:.:.:.:.:.:.:.:.:.:.:.:.:.:.:.:.:.=.:.<.:.<.,.qX` ",
"|.X.1.>.=.=.*.<.<.<.<.<.<.<.<.<.:.<.:.:.:.:.:.:.>.>.>.>.>.>.>.>.:.:.:.:.:.:.:.:.<.<.<.<.<.<.<.<.<.<.<.<.<.<.<.<.<.:.:.:.<.,.rX} ",
"}.' .. . .-. .-. . . . . . . . . . . . . . . . . . . . . . . . . . . . . . . . . . . . . . . . . . . . . . . . .-. . . .....rXD ",
"|.} ' | |  .R | | | | | | | | | | | | | | | | | | | | | | | | | | | | | | | | | | | | | | | | | | | | | | | | |  .| |  .| ^ yX` ",
"XX` 9 5 5 9 9 9 9 9 9 9 9 9 9 9 9 9 9 9 9 9 9 9 5 5 5 5 5 5 5 5 9 9 9 9 9 9 9 9 5 5 5 5 5 5 5 5 5 5 5 5 5 5 5 5 4 7 9 9 3 9 rX} ",
"oX` O   . . O o                                                                                                 o   . O . O eX} ",
"oX} # @ * @ 3 @ @ @ @ @ @ @ @ @ % 1 1 % % % % % @ @ @ @ @ @ @ @ % % % % % % % % @ @ @ @ @ @ @ @ @ @ @ @ @ @ @ @ % # # * # * rX` ",
"oX' 3 @ , @ : : > @ @ < # # $ r @ @ @ @ @ @ % % & $ % 2 > : 2 # @ @ @ @ @ @ @ @ @ @ @ @ @ @ @ @ 1 $ @ @ 1 2 # 1 : 1 @ @ @ * wX] ",
"oX' 5 1 4 n ..*.R I 5 $ 3 8 7 , 3 3 3 3 3 3 3 3 6 ; , 3 $ , 4 , 3 3 3 3 3 3 3 3 3 3 3 3 3 3 3 3 , = 8 5 $ 4 T ,. .Y c 4 : * wX[ ",
"oX' 9 4 , n 1. .^ M 5 5 e 7 & < * * * * * * * * 2 > 7 s 3 7 7 @ * * * * * * * * * * * * * * * * , 7 8 4 $ 4 Y ;. .T c 0 5 5 wX] ",
"oX' 9 0 6 v  .K 7 , 6 4 e t s + O O O O O O O O - # + # X X + O O O O O O O O O O O O O O O O O & 6 6 e 0 4 C  .d 4 3 4 0 0 wX] ",
"oX} 0 d c n R K 4 6 y d d 6 8 l k k k k k k k k j l j j l l j z k k k k k k k k k k k k k k k k j e ; w A w C E c 0 0 d c c wX] ",
"oX} c v v y M M H M c C P = a g.j.j.j.j.k.j.j.j.s.c.j.n.C.M.j.b.j.j.k.k.k.b.k.j.j.j.k.j.k.k.j.j.0.Z 6 c Z d B g K v B M v c rX] ",
"+X' B M M v M M n P c t d 3.4.b.k.k.k.M.M.M.M.k.B.b.A.G.D.S.G.m.k.k.k.k.M.M.M.k.k.k.k.k.M.M.M.k.s.4.3.A t y J B v c M M B B rX] ",
"oX` B v c B M v x J A y 1 r.B.j.c.c.c.b.b.b.c.c.N.l.$XxXbXvXxX%Xc.c.c.c.c.c.c.c.c.c.c.c.c.c.c.c.v.V.p.s u H v N M v M v c B rX` ",
"oX' B v M n M v N v q 7.q.f.s.b.j.M.V.j.j.n.k.b.B.v.$XnXmXnXmX%XV.d.M.V.k.c.s.V.c.C.d.m.c.b.N.j.B.v.f.p.7.W I x M v B v M B rX` ",
"oX' B v M n M v G d p 0.j.B.b.k.x.c.c.b.B.k.b.B.;XaXsXbXNXbXmXbXsX6Xm.M.k.V.j.k.x.N.k.B.M.j.M.V.k.k.c.z.t.R U M M v B v M B rX` ",
"oX' B v M n M v H 0 = p.c.b.k.l.M.n.d.b.C.B.b.N.uXMXmXbXMXmXbXMXmXdXh.n.j.C.b.v.b.j.v.c.c.d.j.c.l.k.b.b.y.| E J M v B v M B rX` ",
"oX} B v M n M M N q * g.j.d.b.B.B.&XiX*X,X-X3X2XzXmXbXkXcXvXkXxXkXpX;X:XF.b.Y.*X,X0X=XF.B.B.M.c.b.c.j.l.u.! I M M v B v M B rX` ",
"oX} B v M v M M h w s z.b.c.n.l.d.9XMXmXnXNXbXmXMXMXbXsXsXfXkXfXzXhXmXmXF.v.*XMXNXbXbXH.l.k.k.c.b.c.c.N.u.! I b M v B v M B rX` ",
"oX} B v M v M M B t p l.D.J.L.K.I.aXbXnXcXnXbXnXxXbXlXsXlXsXsXdXfXxXvXNX%X&X-XvXvXxXxX>X$XJ.c.B.j.c.c.l.u.! T M M v B v M B rX` ",
"oX} B v M v M M b u * x.U.1X7XdXdXjXhXpXdXjXpXdXdXjXjXfXjXdXsXjXdXxXsXzXNXMXzXdXkXfXxXlXvX;Xn.N.k.c.c.k.t.! U J M v B v M B rX` ",
"oX} B v M v M M h y = v.L.6X-XdXgXfXfXsXzXfXfXdXxXsXgXdXdXdXfXdXdXBXdXaXcXvXkXgXzXjXgXbXmX6XS.F.M.b.c.l.u.| T B M v B v M B rX` ",
"oX' B M M v M v A t = s.Y.6X0X2X,XaXdXjXdXdXdXdXfXfXdXkXpX8X1X:X;X;X1X1X,X<XaXjXpX<X,X4X,XpXbXxXZ.l.k.k.t.( U M M v M v M B rX` ",
"oX' B M M v M v G y = f.U.:X0X6X7XaXdXsXsXsXdXdXdXdXdXdXaX7X,X4X3X=X6X6X6X=XaXpXaX3X=X4X=XpXkXlXn.j.b.k.t.| T b M v M v M B rX` ",
"oX' B M M v M v n w s f.S.G.J.;X:X9X8X7X<X7X8X8X8X<X<XaX<X,X,X:X,X,X;X1X1X,X<X8X<X,X,X,X,X8XaX<Xm.j.b.k.y.| U y M v M v M B rX` ",
"oX' B M M v M v J w p s.B.j.A.2X;X,X,X,X;X,X,X;X;X;X;X6X6X4X5X5X4X4X4X4X5X;X6X9X;X5X4X4X4X4X;X>Xm.l.k.l.u./ E G M v M v M B rX` ",
"oX' B B M v M v M q 3 p.l.n.m.U.P.P.P.P.P.P.P.K.K.K.K.P.P.K.K.P.P.P.K.P.P.K.K.P.K.P.P.K.P.K.U.U.b.k.k.l.u.| U c M v M v M B rX` ",
"oX' B M M v M v F q 3 p.b.B.j.v.c.c.c.c.b.b.b.b.b.c.c.c.b.c.j.j.k.k.j.c.c.c.j.j.j.k.k.j.b.b.j.b.k.k.b.c.w.} ^ v M v M v M B rX` ",
"oX' B M M v M v Z w = a.d.B.M.l.k.k.k.k.k.k.k.k.j.j.j.j.b.b.b.k.b.b.b.j.k.b.b.b.k.j.b.b.b.c.j.j.k.k.v.s.i.~ U M M v M v M B rX` ",
"oX' B M M v M v L c t 5.w.x.B.c.b.b.b.b.b.b.c.c.k.c.k.j.b.b.b.k.B.k.k.j.j.k.k.b.b.j.k.k.j.c.b.b.b.j.g.a.8.W I x M v M v M B rX` ",
"oX} B v M M M v b J N W &.a.N.c.k.k.k.k.k.k.k.k.k.k.k.k.k.k.k.k.b.b.b.b.b.c.b.b.k.k.k.k.k.k.k.k.z.l.e.) T S L x M v B v v B rX` ",
"oX' N v c v M M y M N S S _ 9.j.c.c.c.c.c.c.b.b.b.b.b.b.b.b.b.b.b.b.b.b.b.b.b.b.b.b.b.b.b.b.b.b.f.t.7.P M m J H M M M M M B rX` ",
".X` B K v c M v G B M A S ~ %.g.k.k.k.k.k.k.k.k.j.j.j.j.j.j.j.j.k.k.k.k.k.j.k.k.j.j.j.j.j.j.j.j.w.) T P K c B G M v c c v B rX` ",
"oX' B M v I .. .Y I v G N M L 5.6.6.6.6.6.6.6.6.6.6.6.6.6.6.6.6.5.5.5.5.5.5.5.5.6.6.6.6.6.6.6.6.8.L y B M b Y }  .Y I M v m rX` ",
"|.' N v v T ,...} T H G n S A ~  . . . . . . . .( ( ( ( ( ( ( ( | | | | | | | | ( ( ( ( ( ( ( ( T N x v v y ! $. .Y I M M m wX` ",
" X' B M M I | I 7 q v d V M d C c c c c c c c c n n n n n n n n M M M M M M M M n n n n n n n n y A P n G y W ) w 0 w c v B rX` ",
"|.} c v M K R I , w S J V L M x M M M M M M M M M M M M M M M M M M M M M M M M M M M M M M M M n m g y v c E ( w 0 c v M B rX` ",
"{.' c M M c B v n f B i c J b M M M M M M M M M M M M M M M M M B B B B B B B B M M M M M M M M J V G v H N A b M v B M M m rX} ",
"{.} c M v c c m v v v v v v c c v v v v v v v v v v v v v v v v v v v v v v v v c c c c c c c c v v v v v v v v c c c B B c rX] ",
"{.` c w 0 0 0 c w w w w w w w w w w w w w w w w w w w w w w w w w w w w w w w w w w w w w w w w w w w w w w w w w w 0 w w c wX{ ",
"_.Y | / R R R / R R R R R R R R R R R R R R R R / / / / / / / / / / / / / / / / R R R R R R R R / / / / / / / / R / R ! R ^ wX[ ",
"{.X.~./.).^.^.^.^.^.^.^.^.^.^.^.^.^.^.^.^.^.^.^.^.^.^.^.^.^.^.^.^.^.^.^.^.^.^.^.^.^.^.^.^.^.^.^.^.^.^.^.^.^.^.^.^.^.^.).^.~.yX} ",
"].' R.T.T.T.T.!.T.T.T.T.T.T.T.T.T.T.T.T.T.T.T.T.T.T.T.T.T.T.T.T.T.T.T.T.T.T.T.T.T.T.T.T.T.T.T.T.T.T.T.T.T.T.T.T.T.T.T.!.T.R.wX` ",
"|.Y 1.*.:.:.<.=.:.:.:.:.:.:.:.:.:.:.:.:.:.:.:.:.:.:.:.:.:.:.:.:.:.:.:.:.:.:.:.:.:.:.:.:.:.:.:.:.:.:.:.:.:.:.:.:.>.<.*.<.<.1.eX} ",
"|.' ,.:.<.:.:.:.:.:.:.:.:.:.:.:.:.:.:.:.:.:.:.:.:.:.:.:.:.:.:.:.:.:.:.:.:.:.:.:.:.:.:.:.:.:.:.:.:.:.:.:.:.:.:.:.=.<.:.<.<.,.rX[ ",
"].} ,.<.<.;.:.:.:.:.:.:.:.:.:.:.:.:.:.:.:.:.:.:.:.:.:.:.:.:.:.:.:.:.:.:.:.:.:.:.;.;.;.;.;.;.;.;.:.:.:.:.:.:.:.:.<.<.*.<.<.,.rX] ",
"|.} ,.*.:.=.<.<.:.:.:.:.:.:.:.:.:.:.:.:.:.:.:.:.:.:.:.:.:.:.:.:.:.:.:.:.:.:.:.:.:.:.:.:.:.:.:.:.:.:.:.:.:.:.:.:.<.*.<.=.<.*.rX] ",
" X' 1.<.:.:.:.<.<.<.<.<.<.<.<.:.<.<.<.<.<.<.<.:.<.<.<.<.<.<.<.<.<.<.<.<.<.<.<.:.<.<.<.<.<.<.<.:.<.<.<.<.<.<.<.:.<.*.*.=.<.1.rXo.",
"oX' ..<.:.:.*.<.:.:.:.:.:.:.:.:.:.:.:.:.:.:.:.:.:.:.:.:.:.:.:.:.:.:.:.:.:.:.:.:.:.:.:.:.:.:.:.:.:.:.:.:.:.:.:.:.*.<.<.:.;.,.qX] ",
"{.} 1.<.*.<.<.<.<.<.<.<.<.<.<.<.<.<.<.<.<.<.<.:.<.<.<.<.<.<.<.<.<.<.<.<.<.<.<.:.<.<.<.<.<.<.<.:.<.<.<.<.<.<.<.:.2.<.*.*.*.,.yX[ ",
"XX} | |  . .R (  . . . . . . . . . . . . . . . . . . . . . . . . . . . . . . . . . . . . . . . . . . . . . . . .( R R  . .Y wX} ",
"|.#.Y |  .| |  .| | | | | | | | | | | | | | | | | | | | | | | | | | | | | | | | | | | | | | | | | | | | | | | | | | | | | ..eX} ",
"OXwXrXeX@XqXwX#XqXqXqXqXqXqXqXqXqXqXqXqXqXqXqX#XqXqXqXqXqXqXqXqXqXqXqXqXqXqXqX#XqXqXqXqXqXqXqX#XqXqXqXqXqXqXqX#XqXeXqXqXqXqXwX{ ",
"o.@.{ @.@.] { @.+.+.+.+.+.+.+.+.{ { { { { { { { { { { { { { { { { { { { { { { { { { { { { { { { { { { { { { { { @.[ [ @.{ { +.Q "
};
