/* XPM */
static char *new_steel_beam_resized[] = {
/* columns rows colors chars-per-pixel */
"64 64 174 2 ",
"   c #271B1B",
".  c #281B1B",
"X  c #321F1D",
"o  c #31201D",
"O  c #2F2827",
"+  c #3A252D",
"@  c #3E2D2E",
"#  c #362424",
"$  c #3C302E",
"%  c #36322F",
"&  c #3C2D32",
"*  c #362D36",
"=  c #3E3232",
"-  c #3A323A",
";  c #402E2D",
":  c #42302F",
">  c #4E3026",
",  c #523328",
"<  c #412D31",
"1  c #482F33",
"2  c #443333",
"3  c #493535",
"4  c #4B3937",
"5  c #4B3638",
"6  c #45393A",
"7  c #4C3A3A",
"8  c #463C37",
"9  c #513D3E",
"0  c #5A393D",
"q  c #4F4039",
"w  c #4C4037",
"e  c #57453F",
"r  c #4C3D40",
"t  c #503640",
"y  c #523E41",
"u  c #214C5F",
"i  c #2F4652",
"p  c #1F4D62",
"a  c #214B61",
"s  c #2D657E",
"d  c #366376",
"f  c #574344",
"g  c #594646",
"h  c #5B4A46",
"j  c #564549",
"k  c #5B4748",
"l  c #5C4849",
"z  c #5C504F",
"x  c #5E4D53",
"c  c #5F5156",
"v  c #624C4C",
"b  c #61464D",
"n  c #6A5347",
"m  c #624F52",
"M  c #635152",
"N  c #6A5455",
"B  c #6A5459",
"V  c #6E5B5B",
"C  c #665951",
"Z  c #735756",
"A  c #755C5B",
"S  c #795D5B",
"D  c #77625F",
"F  c #7E605C",
"G  c #7C6257",
"H  c #735F61",
"J  c #7C5F64",
"K  c #4B636D",
"L  c #556D7C",
"P  c #576D76",
"I  c #636263",
"U  c #6E6E6D",
"Y  c #68676A",
"T  c #766263",
"R  c #7A6464",
"E  c #7D6867",
"W  c #7C6668",
"Q  c #716F6D",
"!  c #7C696A",
"~  c #6F706E",
"^  c #71706F",
"/  c #6F6F70",
"(  c #706F70",
")  c #6F7070",
"_  c #747474",
"`  c #7C7A79",
"'  c #777B78",
"]  c #815E5B",
"[  c #895C52",
"{  c #866E6C",
"}  c #846A6A",
"|  c #87706E",
" . c #89716F",
".. c #8B7271",
"X. c #8C7778",
"o. c #817E7C",
"O. c #8A7476",
"+. c #91797B",
"@. c #84817F",
"#. c #1A7890",
"$. c #187595",
"%. c #20779F",
"&. c #217297",
"*. c #497F8F",
"=. c #477586",
"-. c #53778A",
";. c #52798B",
":. c #168FBA",
">. c #1A8EB7",
",. c #1691BB",
"<. c #1C91BD",
"1. c #3C87A6",
"2. c #3B88A5",
"3. c #3C87A8",
"4. c #338FAC",
"5. c #3B88A9",
"6. c #398BB1",
"7. c #2B98BF",
"8. c #1A8FC4",
"9. c #0E9DCB",
"0. c #109ECE",
"q. c #1895C2",
"w. c #299AC2",
"e. c #0EA0C9",
"r. c #17A1CF",
"t. c #14A6D7",
"y. c #05AEE5",
"u. c #01AFEB",
"i. c #08AFEB",
"p. c #08ADE4",
"a. c #16A6E1",
"s. c #02B1E5",
"d. c #02B0EB",
"f. c #0AB3EB",
"g. c #01AFF0",
"h. c #01B4F3",
"j. c #00BBF6",
"k. c #01BCFB",
"l. c #09B7F3",
"z. c #02C1FA",
"x. c #858280",
"c. c #898887",
"v. c #828986",
"b. c #9C8281",
"n. c #9E8788",
"m. c #9F898B",
"M. c #979696",
"N. c #989798",
"B. c #9C9C9D",
"V. c #A78C8B",
"C. c #A98C8B",
"Z. c #A78F90",
"A. c #A88F90",
"S. c #A79192",
"D. c #A89091",
"F. c #B69A9C",
"G. c #B89B9F",
"H. c #A09FA0",
"J. c #B69FA1",
"K. c #9EA2A1",
"L. c #A3A3A3",
"P. c #A6A8A8",
"I. c #ABACAC",
"U. c #AEB0AF",
"Y. c #B0B0AE",
"T. c #AFB1B1",
"R. c #B0B3B2",
"E. c #BDBAB9",
"W. c #C1BEBD",
"Q. c #C2C0BF",
"!. c #C9BFC3",
"~. c #C5C2C1",
"^. c #C9C3C3",
"/. c #C9CBC8",
/* pixels */
"B.B.M.N.N.N.N.N.N.N.N.N.N.B.B.B.B.B.B.H.B.B.B.B.K.H.L.H.L.L.K.B.B.B.B.B.S.S.K.K.L.H.H.K.B.B.K.B.H.B.H.H.L.L.L.L.P.P.P.P.P.I.L.I ",
"K.v.` ` ` @.@.` @.@.@.@.@.@.@.@.@.@.@.@.@.@.@.@.@.@.@.@.@.@.@.@.@.@.@.o.v.v.x.v.@.@.@.@.@.@.@.@.@.@.@.@.x.x.@.@.@.@.@.@.o.c./.Y ",
"S._ m.D.S.A.S.A.V.S.S.S.S.S.A.A.S.S.S.A.A.D.D.S.D.A.D.D.S.S.S.S.C.S.S.S.Z.Z.S.C.V.S.D.D.A.A.A.D.D.A.D.S.S.S.S.S.A.A.A.A.S.S.W.Y ",
"K._ n.A.V.V.V.V.V.V.V.V.V.C.C.C.C.V.V.C.C.C.C.C.C.C.C.C.V.V.V.V.V.V.V.V.V.V.V.C.V.C.C.C.C.V.V.V.V.C.C.C.V.V.V.V.C.C.V.V.C.S.^.U ",
"L._ E  .| |  .| |  .| | | | | |  .| |  .| | | | | |  . .| |  .| |  .|  .{ | | | | | | | | | | | |  .| | | |  .| | | | | { X.~.U ",
"I._ |  . . . . . . . . . . . . . . . . . . . . . . . . . . . . . . . . . . . . . . . . . . . . . . . . . . . . . ... . . .X.~./ ",
"I._ }  . . . . . . . . . . . . . . . . . . . . . . . . . . . . . . . . . . . . . . . . . . . . . . . . . . . ... . ... .{ X.W.U ",
"I.^ }  . . . . . . . . . . . . . . . . . . . . . . . . . . . . . . . . . . . . . . . . . . . . . . . . . . . . . . . . .| O.~.U ",
"I._ } .. . . . . . . . . . . . . . . . . . . . . . . . .| |  . .| | |  . .|  . . . . . .| |  . . . . . . .| |  . . .|  .| X.Q.~ ",
"P.^ } .. . . . . . . . . . . . . . .|  . . . .|  . . . .|  . . . . . . . . . .|  . . . . . . . . . . .|  .|  . . . .| | | X.Q.U ",
"P.^ { ..O. ..... . . . . . . . . ....... . ... . . . . . . . ... . . ........... . . . .|  . . . . .| |  . ..... . ... . .X.Q.^ ",
"P.^ H W W R W R E R E R E E F } R R W W ] E E E F } R R R } W R W W E R R R W W } E E ] } R W W F } } R R } R W W R W } R { Q.U ",
"I.Q A W T R R R R R T T R R T T R R R R R R T T R R T R R R R R R R R R R R T R R T T T R T R R T R R R R R T T R T R T T ! ~.U ",
"I.Q @ @ @ @ $ $ $ $ $ $ $ $ $ $ & & & @ @ & & = $ $ $ $ $ $ = @ $ $ & @ @ = @ & $ $ $ @ $ $ @ @ $ $ = $ @ @ $ $ $ $ $ $ @ 6 E.~ ",
"I.U                     . . .       . . . .                 . . . . . .           .   .       .         . .               O E.) ",
"Y.Q + @ @ @ @ @ @ @ @ @ @ @ @ @ @ @ @ ; @ ; ; & @ @ @ @ @ @ @ @ @ @ @ @ @ @ & & @ @ @ @ @ @ @ ; @ @ @ @ @ @ @ @ @ @ @ @ + 6 W.) ",
"Y.Q @ ; @ ; 2 < : : ; ; $ : ; ; @ $ @ ; : $ : $ $ ; ; < ; ; @ < ; ; ; @ @ ; < < ; ; ; @ ; ; ; & @ $ @ ; @ ; ; 1 ; 1 ; < @ 7 E./ ",
"Y.U : 2 : f  .W T h : 2 : : 2 2 2 2 2 2 : 2 2 2 2 2 2 2 : 2 2 2 2 2 2 2 2 2 2 2 2 2 2 2 2 2 2 2 : 2 2 2 2 ; m X.T T 9 2 < 9 Q.U ",
"Y.Q : 4 : f O.T V f 1 5 4 4 2 2 2 2 = = = = = = = = = = 2 = = 2 = = 2 = = = = = = = = = 2 = = = 2 6 3 3 3 2 M X.A B y 3 2 r Q.U ",
"U.~ 3 4 4 f E k + 2 r 7 4 4 7 o X X X o o o o o o o o o o o o o o o o o o o o X o o X X X o X X # 7 7 4 7 3 v ! 7 ; 5 7 5 f Q.U ",
"T.( 7 9 7 g T h 3 7 y 9 9 t 6 a a a u u p u u p a u u u u u u p u u u u p a u u u u u u u u u p i 8 7 9 9 7 v A f 7 9 r 4 j Q.~ ",
"T.( y k k k k k k k k l v , - t.l.i.f.f.f.f.f.f.f.f.f.f.f.f.f.f.f.f.f.f.f.f.f.f.f.f.f.f.f.f.f.l.>.@ , v k h k f g k k l j M Q.~ ",
"T.Q g k g k k k k k k y r s %.p.u.u.u.u.u.u.g.g.g.g.g.g.u.g.u.g.g.g.d.h.g.u.g.g.g.g.d.h.g.g.u.h.e.&.s r g k k b k g h h f M W.~ ",
"U.( g k k k k g k k v 3 # 8.k.d.y.u.d.d.u.d.d.d.u.u.g.d.u.u.d.d.u.u.u.u.g.u.d.u.u.u.u.u.u.u.u.d.g.z.<.+ 5 k k k k k h h f z W.U ",
"U.( y k h k k k k f 7 d #.0.d.y.u.u.u.u.u.d.u.u.u.u.s.u.s.u.u.u.u.u.u.u.u.u.d.u.u.u.u.u.u.u.u.u.p.h.0.$.K Z v k h k k h j m Q.U ",
"U./ g b k k k k k 0 * q.k.u.i.u.u.u.u.u.u.u.u.u.u.u.u.u.u.u.u.u.u.u.u.u.u.u.u.u.u.u.u.u.u.u.u.u.i.u.d.k.6.] N g k k k k j z Q.U ",
"U.( y b k k k k b q % >.l.y.u.u.u.u.u.u.u.u.u.u.u.u.u.u.u.u.u.u.u.u.u.u.u.u.u.u.u.u.u.u.u.u.u.u.g.d.s.g.1.[ C j k k k h f M Q.U ",
"U.Q g k k k k k k q & ,.h.u.u.s.u.u.u.u.d.u.u.u.u.u.u.u.u.u.u.u.u.u.u.u.u.u.u.u.u.u.u.u.u.u.u.u.s.i.u.h.5.G B g h k k k f z Q.U ",
"U./ y b k k k g h q & ,.h.u.u.u.u.u.u.u.u.u.u.u.u.u.u.u.u.u.u.u.u.u.u.u.u.u.u.u.u.u.u.u.u.u.u.u.u.u.u.h.5.G B f h k k k g m Q.~ ",
"U._ j k k k k k h f & ,.h.u.u.u.u.u.u.u.u.u.u.u.u.u.u.u.u.u.u.u.u.u.u.u.u.d.u.u.u.u.u.u.u.u.u.u.u.u.u.h.5.G B g k k k h g m W.~ ",
"U./ f k k k k k k 9 & ,.h.u.u.u.u.u.u.u.u.u.u.u.u.u.u.u.u.u.u.d.u.u.u.d.u.u.u.u.u.u.u.u.u.u.u.u.u.u.y.h.5.F N f k k k k f m Q.~ ",
"T./ f k k k k k k f * ,.h.u.u.u.u.u.u.u.u.u.u.u.u.u.u.d.u.u.u.u.u.u.u.u.u.u.u.u.u.u.u.u.u.u.u.u.u.u.u.h.5.F N f h k k h f m W.U ",
"R._ g k g k h k k y & :.h.u.u.u.u.u.u.u.u.u.u.u.d.u.u.u.u.d.u.u.u.u.u.u.u.u.u.d.u.u.u.u.u.u.u.u.u.u.u.h.3.] B g k k k k j M Q.U ",
"R.( y k k k k g h 7 % :.h.u.u.u.u.u.u.u.u.u.u.u.u.u.u.u.u.u.u.u.u.u.u.u.u.u.u.u.u.d.u.u.u.u.u.u.u.u.u.h.3.] C g h k k h g m Q.U ",
"R.( f k k k k k h 9 & :.h.u.u.u.u.u.u.u.u.u.u.u.u.u.u.u.u.u.u.u.d.u.u.u.u.u.u.u.u.u.u.u.u.u.u.u.u.d.u.d.3.] N g k k k k f m W.U ",
"R.( g k k k k g h y & :.h.u.u.u.d.u.u.u.u.d.u.u.u.u.u.u.u.u.u.u.u.u.u.u.u.u.u.u.u.u.u.u.u.u.d.u.u.u.u.h.5.S N g k k k h f m Q.U ",
"R.Q g k k k k k h q & ,.h.u.d.s.u.u.u.u.u.u.u.u.u.u.u.u.u.u.u.u.u.u.u.u.u.u.u.d.u.u.u.u.u.u.u.u.s.d.i.h.2.] B f k k k h f m Q.U ",
"R._ y k k k k k l q & >.d.y.d.d.u.u.u.u.u.u.u.u.u.u.u.u.u.d.u.u.u.u.u.u.u.u.u.u.u.u.u.u.u.u.u.u.u.s.u.g.2.] N j k k k k k m Q.U ",
"R.( k b k k k k k 9 * ,.j.i.i.i.u.u.u.u.d.d.u.u.u.u.u.u.u.u.u.u.d.d.u.u.u.u.u.u.u.u.u.u.d.d.u.u.d.i.u.j.4.T B j k k k k g m Q.U ",
"R.( y k k k k k k j 5 =.4.t.h.i.u.d.u.u.d.d.u.d.u.u.u.d.u.u.u.u.d.d.u.u.s.u.u.u.d.u.u.u.d.d.d.u.p.d.t.4.P n m k k k k k g m ~.U ",
"R._ y k k k k k j h k A H w.h.h.u.u.u.u.u.u.u.d.d.d.u.u.u.u.d.u.d.d.u.d.u.u.u.u.u.d.u.g.d.d.d.d.u.h.7.J N y k k k k k k g M ~.U ",
"T.Q g b k k k k k k j v x L *.p.d.d.d.d.u.i.u.d.d.d.d.d.d.d.d.d.u.u.u.d.d.d.d.d.d.d.d.d.d.d.u.d.r.-.L x v g b k h k k k g M Q.U ",
"I.Q g k k k g k k k k k f Z T t.d.i.i.i.d.f.d.d.u.i.i.i.d.i.i.i.d.d.d.d.f.d.d.d.i.d.d.u.d.f.d.h.w.H Z g g b y b k j g k g x Q./ ",
"P.Q g k g m W H A M g l k v c ;.;.;.-.-.;.;.;.-.;.-.-.-.;.;.;.-.-.;.;.;.;.;.;.;.;.;.;.;.;.;.-.;.L m v k k e B } A V l h g x Q./ ",
"P.U g k k M X.} T N g k k g k A S S S S S S S S S A J S S S S S S S D A S G A A G A G S A S H S Z g g g h f H O.R T m k g m !.U ",
"P.Q f h g v W b ; f k g k k k l l k b b k l l b l l h l k k b b k k l l h h l l h h k k l h l l h k k k k g B } y < f k f m Q.U ",
"L.Q j k k v R k ; y k k k k k k k k k k k k k k k k k g k j k k k k k k g k k k g f h k k k k k k k k k k g B R 9 < f k f m Q.U ",
"L.Q f k k k k k k k k k k k k k h k k k k k k k k h h k k k k k k k k k k h k k h h k k l h k k k k k k k h h k k g k h j x Q./ ",
"H.~ f j k k g f f g k g g j j k g g g e g g k k k j k f b y k k g g g g k k k k g g g e g g g g g g g f k k k k j k g g f l ~._ ",
"S.) 6 8 5 3 5 5 4 4 4 7 7 7 4 4 5 5 4 4 4 4 4 4 4 4 4 4 5 5 7 7 7 7 7 7 5 5 7 , 4 4 4 4 4 4 4 5 7 4 8 w 5 5 5 7 7 5 7 7 3 f Q.) ",
"L.U M B n Z Z [ C N N N N C N N N N Z Z N N N C C B N B N N N [ B C B B B B Z Z N N N N N N n B C C C B N N n Z B B B N M V ~.~ ",
"K._ S.F.F.F.F.G.F.F.F.G.F.F.F.F.F.F.F.G.F.F.F.F.F.F.J.F.F.F.F.G.F.F.F.F.F.F.G.G.F.F.F.F.F.F.F.F.F.F.F.F.F.G.G.F.F.F.F.F.F.J./.~ ",
"L.Q +.n.@.V.+.@.V.+.V.+.b.b.b.b.b.b.b.+.b.b.b.b.b.b.@.C.+.@.C.+.b.b.b.b.C.+.C.+.@.+.@.@.+.V.+.V.b.b.b.b.b.b.+.C.V.+.b.b.b.n.~.~ ",
"H.Q E  .{ }  .} } } } { { { { {  .} }  .{ { { { { { } } ......[ { { { { [ .. .}  . ...+.{ { { { { { } } }  .} } { { { | } O.~._ ",
"L.Q } ........ ... ............. . .{ ........ . ...............................+.+......... ....................... ... .X.~.^ ",
"L.^ } .. . . . . . .{ ......| |  . .....{ .. . .....{ .......... .{ ..{ +.[ ......[ ........|  ...{ { ...... . ...{  . . .X.~.~ ",
"L.U { .. . ... . .....{ .. ...{  . . . . . . . . ... . ... . . . . .....{ ....{  . . . . . . . . . . . . ... . .{ .. . . .X.^.^ ",
"P.U { .. . .|  . . . . . . . ... . . . . . . . . .|  . . . . . . . .{ ....{  . . . . . . . . . . ...|  . . . . ...{  . . .X.Q._ ",
"P.^ ! ....|  . . . . . . . . ... . . . . . . .....| .... . . . ......... . . . . . . . . . .......| .. . . . . ... ... .| X.Q._ ",
"I.^ { ..| | | |  . . . . . . .{  . . .|  . . .|  .| | |  .|  . .{ ..{ .. . . . . . . .|  . .| |  .| | ..| |  . .{  . . .| O.~.U ",
"I.^ A R H J T J D T T J F D D D T D T D T D D T T T D T T D T S D D T T D D S T T T D D D T D T T T D D T D T S D T S T S E W.^ ",
"I.` D E W W R W W W R W W W W W W W W W W R W ! R E W W W W W W W W W E W W W W W W W W W W R ! R ! W W W W W W W W W W R _ Q._ ",
"Y./.^.W.E.E.E.E.E.E.E.E.E.E.E.E.E.E.E.E.E.E.E.E.E.E.E.E.E.E.E.E.E.E.E.E.E.E.E.E.E.E.E.E.E.E.E.E.E.E.E.E.E.E.E.E.E.E.E.E.W.W.Q._ ",
"_ ` ` _ ' _ ' _ ` _ _ ' ' _ ` _ _ _ _ _ _ _ _ _ _ _ _ _ _ _ _ _ _ _ _ _ _ _ _ _ _ _ _ _ _ _ _ _ _ _ _ _ _ _ _ _ _ _ _ _ ( _ ^ I "
};
